<svg width="322" height="324" viewBox="0 0 322 324" fill="none" xmlns="http://www.w3.org/2000/svg">
<g clip-path="url(#clip0_5_1835)">
<path d="M40.5 299V295.5L159.15 295.6L277.75 295.75L277.9 299.15L278.05 302.5H159.25H40.5V299Z" fill="#210D19"/>
<path d="M36.5 294.5C36.5 290.85 36.4 290.5 35.5 290.5C34.75 290.5 34.5 290.85 34.5 291.75C34.5 292.9 34.3 293 32.5 293H30.5V289.75C30.5 286.1 30.4 286.15 35.2 286.8C37.4 287.1 37.5 287.2 37.5 288.8C37.5 290.25 37.7 290.5 38.65 290.5C40 290.5 42.5 292.55 42.5 293.7C42.5 294.15 42.75 294.5 43 294.5C43.3 294.5 43.5 295.05 43.5 295.75C43.5 296.55 43.2 297 42.75 297C42.35 297 42 297.35 42 297.75C42 298.35 41.35 298.5 39.25 298.5H36.5V294.5Z" fill="#271C31"/>
<path d="M283.5 289.25V286.5H286.5H289.5V288.25C289.5 289.7 289.3 290 288.45 290C287.85 290 287.3 290.4 287.15 291C286.95 291.75 286.45 292 285.2 292H283.5V289.25Z" fill="#271C31"/>
<path d="M292.5 282.5C292.5 281.4 292.75 280.5 293 280.5C293.35 280.5 293.5 241.1 293.5 163.35V46.2H291.15C288.75 46.25 288.75 46.25 288.6 44.45L288.45 42.65L293.95 42.3C297 42.1 299.7 42.05 300 42.25C300.35 42.45 300.5 80.55 300.5 163.55V284.5H296.5H292.5V282.5Z" fill="#271C31"/>
<path d="M283.6 35.65L283.75 29.75L286.95 29.6C289.2 29.5 290.3 29.65 290.55 30.1C291.05 30.9 291.1 34.25 290.7 38.45L290.35 41.5H286.9H283.45L283.6 35.65Z" fill="#271C31"/>
<path d="M274.85 302.15C274.25 301.55 274.5 301 275.4 301C276.05 301 276.25 300.6 276.25 299.1V297.25L159.35 297.1C36.05 297 41 297.1 41 294.95C41 294.65 40.4 293.85 39.65 293.2L38.25 292L38.1 293.25C37.85 295.05 37 294.25 37 292.2V290.5H159.75H282.5V296.5V302.5H278.85C276.8 302.5 275 302.35 274.85 302.15Z" fill="#401831"/>
<path d="M40.1 297.75C39.55 297.1 39.65 297 40.75 297C41.55 297 42 297.3 42 297.75C42 298.7 40.95 298.7 40.1 297.75Z" fill="#401831"/>
<path d="M288.5 163.75V43H292.55C295.1 43 296.45 43.2 296.25 43.5C296.1 43.8 294.55 44 292.9 44C291.2 44 290 44.15 290.2 44.35C290.4 44.55 291.55 44.65 292.75 44.55L295 44.4V163.2C295 242.05 294.85 282 294.5 282C294.25 282 294 282.25 294 282.5C294 282.8 294.6 283 295.3 283C296.45 283 296.5 283.1 295.8 283.75C295.3 284.25 294.05 284.5 291.8 284.5H288.5V163.75Z" fill="#401831"/>
<path d="M283.45 296.4C283.45 295.2 283.3 294.55 283.15 294.9C283.05 295.2 282.5 295.5 281.95 295.5C281.2 295.5 281 295.15 281 293.75C281 292.55 280.75 292 280.25 292C279.85 292 279.5 291.65 279.5 291.25C279.5 290.85 279.95 290.5 280.5 290.5C281.3 290.5 281.5 290.15 281.5 288.8V287.1L285.15 286.75L288.85 286.45L288.6 283.95C288.4 281.9 288.5 281.5 289.2 281.5C289.65 281.5 290 281.85 290 282.25C290 282.8 290.6 283 292.25 283C294.15 283 294.5 283.15 294.5 284C294.5 284.65 294.15 285 293.5 285C292.85 285 292.5 285.35 292.5 286C292.5 286.55 292.75 287 293 287C293.8 287 293.6 290.1 292.7 291.05C292.3 291.5 291.8 293.2 291.65 294.8C291.5 296.45 291.1 297.9 290.8 298.1C290.5 298.3 288.75 298.5 286.9 298.5H283.5L283.45 296.4ZM286.5 288.5C287.1 288.1 287.05 288 286.15 288C285.5 288 285 288.25 285 288.5C285 289.15 285.55 289.15 286.5 288.5Z" fill="#2B304C"/>
<path d="M26 43.75C26 42.1 26.1 42 27.75 42C29.4 42 29.5 42.1 29.5 43.75C29.5 45.4 29.4 45.5 27.75 45.5C26.1 45.5 26 45.4 26 43.75Z" fill="#2B304C"/>
<path d="M288.5 43.5C288.5 42.4 288.3 41.5 288 41.5C287.75 41.5 287.5 41.15 287.5 40.75C287.5 40.35 287.85 40 288.25 40C288.8 40 289 39.4 289.05 37.9C289.1 35.8 289.1 32.15 289.05 31.35C289 31.1 288.15 31 287.15 31.1C285.6 31.2 285.2 31.45 285.1 32.4C284.85 34.15 283.75 33.4 283.6 31.35L283.45 29.5L287.6 29.65L291.75 29.75L292.1 32.5C292.75 37.3 292.85 37.5 294.5 37.5C295.3 37.5 296.1 37.75 296.25 38C296.4 38.3 297.45 38.5 298.55 38.5H300.5V42C300.5 44.65 300.35 45.5 299.8 45.5C299.45 45.5 299 45 298.85 44.45C298.6 43.5 298.3 43.4 296.65 43.65C295.6 43.85 293.7 44 292.4 44C290.6 44 290 44.2 290 44.75C290 45.15 289.65 45.5 289.25 45.5C288.7 45.5 288.5 44.95 288.5 43.5Z" fill="#2B304C"/>
<path d="M25.2 40.95C24.85 40.35 26 31.35 26.55 30.4C26.8 30 28.4 29.7 30.7 29.6L34.5 29.4V31.2C34.5 32.95 34.45 33 32.55 33C31.45 33 30.4 33.25 30.25 33.5C30.05 33.8 29.8 35.7 29.65 37.75L29.35 41.5H27.45C26.4 41.5 25.4 41.25 25.2 40.95Z" fill="#2B304C"/>
<path d="M43.9 307.15C42.55 306.95 42.5 306.8 42.5 303.95V301H160H277.5V304.25V307.5L161.4 307.45C97.5 307.4 44.65 307.25 43.9 307.15Z" fill="#572143"/>
<path d="M175 30.75C175 29.1 175.1 29 176.75 29C178.4 29 178.5 29.1 178.5 30.75C178.5 32.4 178.4 32.5 176.75 32.5C175.1 32.5 175 32.4 175 30.75Z" fill="#572143"/>
<path d="M247 30.75V29H249.75H252.5V30.75V32.5H249.75H247V30.75Z" fill="#572143"/>
<path d="M265 30.75V29H268.75H272.5V30.75V32.5H268.75H265V30.75Z" fill="#572143"/>
<path d="M37.1 306.9C36.75 306.55 36.5 304.9 36.5 302.95C36.5 300.15 36.35 299.5 35.65 299.3C33.45 298.65 28.6 298 26.15 298H23.5V296.25C23.5 295.2 23.75 294.5 24.15 294.45C24.45 294.45 24.25 294.25 23.65 294C22.65 293.6 22.5 293.15 22.5 290.75C22.5 288.65 22.65 288 23.25 288C23.85 288 24 287.3 24 284.75V281.5H26.15C27.35 281.5 28.55 281.75 28.9 282.1C29.25 282.45 29.5 283.9 29.5 285.3V287.95L26.9 288.1C24.3 288.25 24.25 288.3 24.1 289.9C23.95 291.15 24.15 291.5 24.85 291.55C26.8 291.6 33.35 292.45 35.15 292.9C36.65 293.3 37 293.25 37 292.65C37 292.15 36.7 292.05 36 292.25C34.65 292.7 33 292.1 33 291.15C33 290.65 33.25 290.5 33.9 290.75C34.35 290.95 35.7 291.25 36.9 291.35C38.6 291.6 38.85 291.75 38.25 292.2C37.65 292.65 37.6 293.55 37.9 297L38.25 301.25L39.9 301.4C41.55 301.55 41.6 301.65 41.4 303.55C41.3 304.6 41.4 305.5 41.6 305.5C41.85 305.5 42 304.5 42 303.25C42 300.3 42.8 300.35 43.2 303.3C43.75 307.6 43.85 307.5 40.6 307.5C39 307.5 37.45 307.25 37.1 306.9ZM39.5 304.65C39.5 304.4 39.25 303.9 39 303.5C38.6 302.9 38.5 302.95 38.5 303.9C38.5 304.5 38.75 305 39 305C39.3 305 39.5 304.85 39.5 304.65Z" fill="#313B5D"/>
<path d="M279.5 301.75C279.5 301.35 279.8 301 280.2 301C280.75 301 280.95 300.1 281.1 297.4C281.2 295.4 281.5 293.35 281.7 292.9C282 292.2 281.9 292 281.05 292C280.1 292 280.05 291.85 280.5 291C280.8 290.45 281.4 290 281.8 290C282.25 290 282.9 289.65 283.3 289.25C283.75 288.85 283.85 288.5 283.55 288.5C283.25 288.5 283 288.3 283 288C283 287.75 283.85 287.5 284.9 287.55C286.35 287.55 286.55 287.65 285.75 287.95C284.85 288.35 284.75 288.75 284.9 292.7C285.05 296 285.25 297 285.8 297C286.2 297 286.5 297.35 286.5 297.75C286.5 298.15 286.3 298.5 286 298.5C285.75 298.5 285.5 298.95 285.5 299.5C285.5 301.15 283.75 302.5 281.5 302.5C280.05 302.5 279.5 302.3 279.5 301.75Z" fill="#313B5D"/>
<path d="M287.5 297.8C287.5 297.4 288.05 296.95 288.75 296.8C289.45 296.6 290 296.15 290 295.75C290 295.35 290.35 295 290.75 295C291.25 295 291.5 295.55 291.5 296.75C291.5 298.45 291.45 298.5 289.5 298.5C288.1 298.5 287.5 298.3 287.5 297.8Z" fill="#313B5D"/>
<path d="M290.2 292.4C290.4 291.25 290.9 289.9 291.3 289.45C291.95 288.7 291.95 288.6 291.25 288.3C290.8 288.15 290 288 289.45 288C288.65 288 288.5 287.65 288.5 285.3C288.5 281.9 289.5 281.3 290.35 284.2C290.8 285.85 290.9 286 290.95 284.95C291 283.45 292.3 283 296.55 283C298.4 283 299 282.8 299 282.25C299 281.85 299.35 281.5 299.75 281.5C300.3 281.5 300.5 282.1 300.5 284.15C300.45 287.1 299.85 288.2 297.9 288.7C296.65 289 296.5 289.25 296.5 291.2V293.35L293.65 293.95C289.75 294.7 289.85 294.75 290.2 292.4Z" fill="#313B5D"/>
<path d="M299 40.75C299 40.2 298.45 40 297.05 40C295.95 40 294.9 39.8 294.75 39.5C294.6 39.25 293.7 39 292.8 39C291.3 39 291.2 38.9 291.1 37.15C291 36.15 290.7 35 290.45 34.7C290.15 34.35 290 33.4 290.1 32.65C290.25 31.3 290.2 31.25 287.65 31.1C285.5 31 285 31.1 285 31.7C285 32.35 284.4 32.5 282.25 32.5H279.5V29.3C279.5 26.15 279.5 26.1 281.05 25.8C281.9 25.65 283.15 25.5 283.8 25.5C284.65 25.5 285 25.2 285 24.5C285 23.3 286.75 23.1 287.15 24.25C287.35 24.65 288.2 25.15 289.1 25.4C290.55 25.75 290.75 26.05 290.9 27.65L291.05 29.5H293.5H295.9L296.25 32.9C296.4 34.75 296.6 36.6 296.65 37C296.7 37.45 297.4 37.8 298.4 37.9C299.85 38.05 300 38.2 300 39.8C300 40.75 299.8 41.5 299.5 41.5C299.25 41.5 299 41.15 299 40.75Z" fill="#313B5D"/>
<path d="M37.15 32.15C36.4 31.85 36.25 28.5 37 28.5C37.3 28.5 37.55 27.55 37.55 26.4C37.6 25.2 37.7 24.65 37.85 25.15C38.05 25.8 38.6 26 40.8 26H43.5V29.25V32.5L40.65 32.45C39.05 32.45 37.45 32.3 37.15 32.15Z" fill="#313B5D"/>
<path d="M40.5 306.75C40.5 306.35 40.85 306 41.25 306C41.8 306 42 305.4 42 303.5C42 301.05 42.05 301 43.5 301C44.35 301 45 301.25 45 301.5C45 301.8 44.75 302 44.5 302C44.2 302 44.25 302.4 44.6 303C44.95 303.55 45.55 304 45.9 304C46.35 304 46.5 304.3 46.3 304.8C46.1 305.35 46.35 305.7 47 305.85C47.55 306 48 306.45 48 306.8C48 307.35 47.1 307.5 44.25 307.5C41.25 307.5 40.5 307.35 40.5 306.75Z" fill="#57274C"/>
<path d="M274.5 306.75C274.5 306.35 274.85 306 275.25 306C275.8 306 276 305.4 276 303.55V301.1L279.25 300.9L282.55 300.75L282.4 304L282.25 307.25L278.4 307.4C275.15 307.5 274.5 307.4 274.5 306.75Z" fill="#57274C"/>
<path d="M37 292.4C37 292.15 36.55 292.1 36 292.25C34.25 292.8 33 292.1 33 290.45C33 289.15 33.15 289 34.65 288.95C36.45 288.9 36.1 288.75 33.4 288.25C32.2 288.05 31.5 287.7 31.5 287.25C31.5 286.65 32.35 286.5 35.5 286.5H39.5V289.15C39.5 291.45 39.35 291.8 38.25 292.35C37.5 292.65 37 292.7 37 292.4Z" fill="#57274C"/>
<path d="M27.7 283.75C27.5 283.3 26.75 283 25.7 283H24V163.5V44H26C27.45 44 28 43.8 28 43.25C28 42.85 28.35 42.5 28.75 42.5C29.4 42.5 29.5 56.3 29.5 163.5C29.5 271.8 29.4 284.5 28.75 284.5C28.3 284.5 27.85 284.15 27.7 283.75Z" fill="#57274C"/>
<path d="M28.0499 37.4C28.1499 32.05 28.45 31.5 31.25 31.5C34.1 31.5 34.5 32.25 34.5 37.45V41.5H31.2H27.95L28.0499 37.4Z" fill="#57274C"/>
<path d="M284 38.5C284 36.85 284.2 35.5 284.5 35.5C284.8 35.5 285 36.55 285 37.9C285 39.6 285.15 40.05 285.5 39.5C285.8 39 286 38.95 286 39.4C286 39.7 286.35 40 286.75 40C287.15 40 287.5 40.35 287.5 40.75C287.5 41.25 286.95 41.5 285.75 41.5H284V38.5Z" fill="#57274C"/>
<path d="M40.5 31.75C40.5 31.35 40.85 31 41.25 31C41.8 31 42 30.4 42 28.5V26H161.5H281V27.65L281.05 29.25L281.75 27.75C282.1 26.95 282.45 26.6 282.45 27C282.5 28.35 281.9 30 281.45 29.7C281.2 29.55 281 29.8 281 30.2C281 30.65 281.35 31 281.75 31C282.15 31 282.5 31.35 282.5 31.75C282.5 32.4 268.7 32.5 161.5 32.5C54.3 32.5 40.5 32.4 40.5 31.75Z" fill="#57274C"/>
<path d="M133.65 306.15C134.1 306.05 134.9 306.05 135.4 306.15C135.85 306.3 135.45 306.4 134.5 306.4C133.55 306.4 133.15 306.3 133.65 306.15Z" fill="#324368"/>
<path d="M37.7 305.4C37.45 305.05 37.25 304.15 37.3 303.4C37.3 302.65 37.15 302.15 36.95 302.3C36.7 302.45 36.25 302 35.9 301.3C35.6 300.6 34.95 300 34.45 300C33.95 300 33.4 299.4 33.05 298.45L32.5 296.9L34.65 297.3C35.8 297.5 37.05 297.65 37.4 297.65C37.8 297.65 38 298.7 38 301.25C38 303.35 38.25 305.05 38.6 305.4C39 305.8 39 306 38.65 306C38.35 306 37.9 305.7 37.7 305.4Z" fill="#324368"/>
<path d="M281.1 303.05C281.05 301.5 281.3 301.05 282.3 300.55C283 300.25 283.4 299.75 283.25 299.5C283.1 299.2 283.2 299 283.45 299C283.75 299 284 298.55 284 298C284 297.35 284.35 297 285 297C286.1 297 286.45 298.75 285.4 299.1C285.05 299.25 284.85 300.05 284.9 301.15C285 302.7 284.85 303 284 303C283.45 303 283 303.25 283 303.55C283 303.85 282.65 303.95 282.2 303.8C281.6 303.6 281.45 303.7 281.7 304.25C281.85 304.65 281.8 305 281.55 305C281.3 305 281.1 304.15 281.1 303.05Z" fill="#324368"/>
<path d="M24.75 296.4C24.65 296.05 24.45 294.95 24.3 293.95L24 292.1L25.75 292.65C27.3 293.1 27.4 293.25 26.8 293.95C26.45 294.4 26.25 295.05 26.35 295.4C26.5 295.7 26.15 296.05 25.65 296.1C25.15 296.15 26.35 296.3 28.25 296.5L31.75 296.8L28.35 296.9C26.05 296.95 24.9 296.8 24.75 296.4Z" fill="#324368"/>
<path d="M23.3501 289.3C23.1501 288.8 23.1001 288.25 23.2501 288.1C23.7001 287.65 24.1001 288.4 23.9001 289.35C23.7501 290.2 23.7001 290.2 23.3501 289.3Z" fill="#324368"/>
<path d="M280.9 31.1501C281.5 31.0501 282.4 31.0501 282.9 31.1501C283.35 31.3001 282.85 31.4001 281.75 31.3501C280.65 31.3501 280.25 31.2501 280.9 31.1501Z" fill="#324368"/>
<path d="M288.8 30.65C288.25 30.5 288.1 30.25 288.4 30.05C288.65 29.9 289 29.2 289.05 28.55C289.2 27.55 288.95 27.25 287.65 26.9C286.75 26.65 285.9 26.2 285.7 25.9C285.15 25.05 284.55 20.85 285.05 21.35C285.25 21.55 285.5 22.45 285.6 23.25C285.7 24.4 286 24.8 287 24.9C288.8 25.1 291 26.05 291 26.6C291 26.85 291.35 27 291.8 26.9C292.4 26.8 292.7 27.2 292.85 28.25C292.95 29.05 293.3 30 293.6 30.35C294 30.85 293.65 31 291.95 30.95C290.75 30.9 289.3 30.75 288.8 30.65Z" fill="#324368"/>
<path d="M281.4 29.75C281.25 29.5 281.4 28.6 281.75 27.75C282.1 26.95 282.45 26.5 282.45 26.85C282.5 27.15 282.65 27.8 282.85 28.3C283.05 28.85 283 29.05 282.6 28.85C282.3 28.65 282 28.9 281.9 29.35C281.8 29.85 281.6 30.05 281.4 29.75Z" fill="#324368"/>
<path d="M45.5 285.5V281.5H49H52.5V285.5V289.5H49H45.5V285.5Z" fill="#732A56"/>
<path d="M265.5 285.5V281.5H269.5H273.5V285.5V289.5H269.5H265.5V285.5Z" fill="#732A56"/>
<path d="M31 286.75C31 285.65 31.2 285.5 32.75 285.5C34.3 285.5 34.5 285.65 34.5 286.75C34.5 287.85 34.3 288 32.75 288C31.2 288 31 287.85 31 286.75Z" fill="#732A56"/>
<path d="M54.85 279.15C54.65 279 54.5 277.4 54.5 275.65V272.5H57.2C61.25 272.5 61.5 272.7 61.5 275.7C61.5 277.15 61.25 278.55 60.9 278.9C60.25 279.55 55.4 279.75 54.85 279.15Z" fill="#732A56"/>
<path d="M64.15 275.15C63.7 275 63.5 273.3 63.5 269.2V263.45L67.9 263.6L72.25 263.75L72.4 265.65C72.5 266.7 72.35 267.5 72.05 267.5C71.7 267.5 71.5 268.9 71.5 271.2V274.9L69.95 275.2C68.15 275.55 65.05 275.55 64.15 275.15Z" fill="#732A56"/>
<path d="M248.85 270.9C248.65 268.9 248.3 267.2 248 267.1C247.75 267 247.5 266.15 247.5 265.2V263.5H250.3C254 263.5 254.5 264.05 254.5 268.45C254.5 273.35 253.9 274.5 251.25 274.5H249.15L248.85 270.9Z" fill="#732A56"/>
<path d="M37 292.45C37 292.2 37.25 292 37.5 292C37.8 292 38 291.65 38 291.25C38 290.85 38.35 290.5 38.75 290.5C39.95 290.5 39.6 291.7 38.25 292.35C37.55 292.65 37 292.7 37 292.45Z" fill="#5B406F"/>
<path d="M33.5 292C32.95 291.65 33.25 291.55 34.6 291.65C35.6 291.7 36.3 291.9 36.15 292.15C35.85 292.65 34.4 292.6 33.5 292Z" fill="#5B406F"/>
<path d="M279.5 289.25V286.5H281.5H283.5V284V281.5H286.75H290V284.7V287.95L287.4 288.1C284.95 288.25 284.75 288.35 284.7 289.5C284.65 290.2 284.6 291 284.55 291.25C284.55 291.55 283.35 291.8 282 291.9L279.5 292.05V289.25Z" fill="#5B406F"/>
<path d="M27.9 285.65C27.55 281.65 27.7 281.5 31.3 281.5H34.5V284.75V288H31.3H28.1L27.9 285.65Z" fill="#5B406F"/>
<path d="M28 42.9499V39.9999H30.5C32.4 39.9999 33 39.7999 33 39.2499C33 37.8999 33.85 38.4999 34.2 40.0499C35 44.2499 34.4 45.2499 30.6 45.5999L28 45.8499V42.9499Z" fill="#5B406F"/>
<path d="M283.5 42C283.5 39.2 283.65 38.5 284.25 38.5C284.65 38.5 285 38.85 285 39.25C285 39.8 285.6 40 287.5 40H290V42.75V45.5H286.75H283.5V42Z" fill="#5B406F"/>
<path d="M33.0001 35.6C33.0001 35.1 32.6501 34.25 32.2501 33.65C31.5001 32.55 30.0001 32.55 28.6501 33.65C27.8001 34.3 27.8001 33.45 28.6501 32.3C29.2001 31.55 30.4001 31.35 36.4001 31.15L43.5001 30.85V33.7V36.5H38.2501C33.5501 36.5 33.0001 36.4 33.0001 35.6Z" fill="#5B406F"/>
<path d="M279.5 34.25C279.5 33 279.3 32 279 32C278.75 32 278.5 31.8 278.5 31.5C278.5 31.2 279.9 31 281.75 31H285V33.75V36.5H282.25H279.5V34.25Z" fill="#5B406F"/>
<path d="M267 289.95C265.35 289.65 221.2 289.55 154.85 289.6L45.5 289.75V288.15C45.5 287 45.75 286.5 46.25 286.5C46.65 286.5 47 286.85 47 287.25C47 287.8 47.55 288 49 288H51V285.5V283H49C47.55 283 47 283.2 47 283.75C47 284.15 46.65 284.5 46.25 284.5C45.65 284.5 45.5 283.85 45.5 281.5V278.5H47.25C48.3 278.5 49 278.75 49 279.15C49 279.5 49.15 279.55 49.4 279.25C49.6 279 50.75 278.4 52 278C54.2 277.25 54.25 277.25 54.1 275.15C53.95 273.05 53.95 273 55.4 273C58.35 273 58.5 272.8 58.5 267.95V263.5H62.5C65.7 263.5 66.5 263.65 66.5 264.25C66.5 264.65 66.15 265 65.75 265C65.15 265 65 265.8 65 269.2C65 273.9 65.3 274.25 68.3 273.7L70 273.4V269.7C70 267.45 70.2 266 70.55 266C70.8 266 70.9 265.8 70.75 265.5C70.6 265.25 70 265 69.5 265C68.85 265 68.65 264.75 68.8 264.25C69.05 263.6 79.85 263.5 161.8 263.5H254.5V265.5V267.5H257H259.5V270V272.5H263.95H268.35L268.7 276.4C268.85 278.5 269.15 280.85 269.3 281.65C269.6 282.85 269.45 283 268.3 283C267.05 283 267 283.15 267 285.5V288H269.5C271.4 288 272 287.8 272 287.25C272 286.85 272.35 286.5 272.8 286.5C273.4 286.5 273.5 286.95 273.4 288.4C273.25 290.15 273.15 290.25 271.5 290.35C270.55 290.35 268.5 290.2 267 289.95ZM59.4 277.4C60.25 276.55 60.15 274.65 59.2 274.3C58.75 274.15 57.85 274 57.2 274C56.15 274 56 274.25 56 275.65C56 276.6 56.15 277.5 56.35 277.65C56.9 278.2 58.75 278.05 59.4 277.4ZM252.3 265.75C251.9 265.35 250.95 265.05 250.15 265.05C249.25 265.1 249.05 265.2 249.65 265.35C250.35 265.55 250.5 265.9 250.3 266.75C250.15 267.4 250.25 268.1 250.5 268.25C250.8 268.45 250.9 268.8 250.75 269.05C250.6 269.3 250.8 269.35 251.2 269.2C251.65 269.05 252.05 269.35 252.35 270.1C252.7 271.05 252.8 270.85 252.9 268.85C253 267.25 252.8 266.25 252.3 265.75Z" fill="#812F60"/>
<path d="M28 44.5C28 43.6 28.2 43.5 29.75 43.8C31.55 44.1 33.4 43.05 32.75 42C32.25 41.15 33 38.5 33.8 38.5C34.35 38.5 34.5 39.3 34.5 42V45.5H31.25C28.3 45.5 28 45.4 28 44.5Z" fill="#812F60"/>
<path d="M42 291.65C40.7 291.15 40.5 290.4 40.5 286.2C40.5 281.7 40.65 281.5 43.8 281.5H45.5V279V276.5H47.5C49.45 276.5 49.5 276.45 49.5 274.8C49.5 272.75 50 272.5 54.3 272.5C56.7 272.5 57.5 272.65 57.5 273.2C57.5 273.55 57.1 274 56.55 274.15C55.85 274.3 55.7 274.7 55.85 275.7C56.2 277.35 55.6 279.65 55 279.25C54.7 279.1 54.5 279.15 54.5 279.4C54.5 279.65 53.8 279.85 53 279.9C51.2 279.95 49.5 281.35 50.45 282C50.9 282.25 50.55 282.45 49.55 282.6C48.4 282.75 48 282.65 48 282.05C48 281.6 47.75 280.9 47.5 280.5C47.15 280 47 281.15 47 284.2V288.65L50.2 288.3C53.45 288 265.15 287.9 268.6 288.25C269.6 288.35 270.7 288.55 271 288.75C271.35 288.95 271.7 288.65 271.85 288.05C272.2 286.75 273.5 286.65 273.5 287.95C273.5 288.45 273.65 289.6 273.8 290.45L274.1 292L158.45 291.95C94.8 291.95 42.4 291.8 42 291.65Z" fill="#90346B"/>
<path d="M275.3 291.2C274.85 290.75 274.5 289.6 274.5 288.45V286.5H278.5C281.7 286.5 282.5 286.65 282.5 287.25C282.5 287.65 282.15 288 281.75 288C281.2 288 281 288.55 281 290V292H278.55C276.95 292 275.8 291.7 275.3 291.2Z" fill="#90346B"/>
<path d="M272 283.75C272 283.2 271.45 283 270.15 283C269.1 283 268 282.8 267.7 282.6C267.4 282.4 267.15 280.95 267.1 279.4L267.05 276.5H270.25H273.5V280.5C273.5 283.7 273.35 284.5 272.75 284.5C272.35 284.5 272 284.15 272 283.75Z" fill="#90346B"/>
<path d="M37.5 273.45C37.5 271.95 38.45 270.5 39.45 270.5C39.75 270.5 40 270.05 40 269.5C40 268.7 40.35 268.5 41.75 268.5H43.5V271.75V275H40.5H37.5V273.45Z" fill="#90346B"/>
<path d="M258 273C258 272.35 258.35 272 259 272C259.65 272 260 272.35 260 273C260 273.65 259.65 274 259 274C258.35 274 258 273.65 258 273Z" fill="#90346B"/>
<path d="M253 267.75C253 266.85 253.25 266.5 254 266.5C254.75 266.5 255 266.85 255 267.75C255 268.65 254.75 269 254 269C253.25 269 253 268.65 253 267.75Z" fill="#90346B"/>
<path d="M270.75 63.35C270.55 62.75 270.5 60.95 270.6 59.45L270.75 56.75L273.55 56.6C277.15 56.4 277.6 56.95 277.4 61.1L277.25 64.25L274.15 64.4C271.25 64.55 271 64.45 270.75 63.35Z" fill="#90346B"/>
<path d="M40.5 289.75C40.5 287.25 41.65 286.55 42.2 288.75C42.4 289.45 42.75 290 43.05 290C43.3 290 44 290.4 44.5 290.9C45.5 291.8 45.45 291.8 43 291.95L40.5 292.05V289.75Z" fill="#9C3974"/>
<path d="M272.4 291.7C272.15 291.5 272 290.15 272 288.65V285.95L274.65 286.3C276.05 286.5 277.35 286.8 277.5 287.05C277.65 287.25 278.9 287.5 280.25 287.65C282.45 287.8 282.35 287.85 279.4 287.9C277.5 287.95 276 288.2 276 288.5C276 288.8 276.45 289 277 289C277.55 289 278 289.25 278 289.5C278 289.8 278.5 290 279.15 290C280.05 290 280.1 289.9 279.5 289.5C278.9 289.1 278.95 289 279.9 289C280.75 289 281 289.3 281 290.25C281 291.2 280.75 291.5 279.9 291.5C279.25 291.5 277.4 291.6 275.75 291.8C274.1 291.95 272.6 291.9 272.4 291.7Z" fill="#9C3974"/>
<path d="M40.85 285.15C40.65 285 40.5 284.1 40.5 283.15C40.5 281.55 40.55 281.5 42.5 281.5C43.95 281.5 44.5 281.7 44.5 282.25C44.5 282.65 44.15 283 43.75 283C43.35 283 43 283.25 43 283.55C43 283.8 42.8 283.9 42.5 283.75C42.25 283.6 42 283.9 42 284.45C42 285.5 41.45 285.8 40.85 285.15Z" fill="#9C3974"/>
<path d="M49.85 276.15C49.65 276 49.5 275.1 49.5 274.15C49.5 272.55 49.55 272.5 51.5 272.5C52.95 272.5 53.5 272.7 53.5 273.25C53.5 273.65 53.15 274 52.75 274C52.35 274 52 274.25 52 274.55C52 274.8 51.8 274.9 51.5 274.75C51.25 274.6 51 274.9 51 275.45C51 276.5 50.45 276.8 49.85 276.15Z" fill="#9C3974"/>
<path d="M31.5 271.5V267.5H37.5H43.45V271.5V275.5H37.45H31.5V271.5ZM40.85 272.65C40.85 271.8 40.6 271.85 39.7 272.7C39.1 273.35 39.1 273.45 39.9 273.35C40.4 273.35 40.85 273 40.85 272.65ZM41.85 270.9C41.75 270.25 41.65 270.65 41.65 271.75C41.6 272.85 41.7 273.35 41.85 272.9C41.95 272.4 41.95 271.5 41.85 270.9Z" fill="#9C3974"/>
<path d="M275.15 275.2C274.75 275 274.5 274 274.5 272.7C274.5 270.7 274.4 270.5 273.3 270.5C270.6 270.5 270.5 270.3 270.5 264.15V258.45L273.9 258.6L277.25 258.75L277.4 263.15L277.55 267.5H282.05H286.55L286.4 271.4L286.25 275.25L281 275.35C278.1 275.4 275.45 275.3 275.15 275.2Z" fill="#9C3974"/>
<path d="M258.35 273.65C258.15 273.5 258 272.35 258 271.15V269H255.8C253.5 269 253 268.55 253 266.2C253 265.45 252.7 265 252.25 265C251.85 265 251.5 264.65 251.5 264.25C251.5 263.65 252.3 263.5 255.5 263.5H259.5V265.5V267.5H261.5C263.35 267.5 263.5 267.6 263.5 268.9C263.5 269.65 263.35 271.1 263.2 272.15C262.9 273.95 262.8 274 260.75 274C259.6 274 258.5 273.85 258.35 273.65Z" fill="#9C3974"/>
<path d="M49.7 245.4C49.8 239.25 50.0999 233.75 50.2999 233.15C50.5499 232.2 50.9999 232 52.5499 232C53.9499 232 54.5 232.2 54.5 232.75C54.5 233.15 54.8 233.5 55.15 233.5C56.75 233.5 57.2499 235.65 57.2999 242.6C57.3499 247.15 57.55 249.7 57.95 250.2C58.3 250.6 58.5 252 58.4 253.6L58.25 256.25L53.8499 256.4L49.45 256.55L49.7 245.4Z" fill="#9C3974"/>
<path d="M52.75 81.5C52.6 81.25 52 81 51.5 81C50.15 81 49.4 76.9 49.6 70.75L49.75 65.75L53.65 65.6L57.5 65.45V69.9C57.5 72.35 57.35 76.05 57.2 78.15L56.85 82H54.95C53.9 82 52.9 81.8 52.75 81.5Z" fill="#9C3974"/>
<path d="M41.1 64.9C40.75 64.55 40.5 63 40.5 61.4C40.5 58.5 40.5 58.5 39 58.5C37.55 58.5 37.5 58.45 37.5 56.05C37.5 53.3 37.85 53 41 53C42.85 53 42.95 53.1 43.3 54.75C43.6 56.45 43.65 56.5 46.05 56.5H48.5V60.4C48.5 62.75 48.25 64.55 47.9 64.9C47.55 65.25 46.05 65.5 44.5 65.5C42.95 65.5 41.45 65.25 41.1 64.9Z" fill="#9C3974"/>
<path d="M270.85 64.65C270.65 64.5 270.5 63.45 270.5 62.4C270.5 60.2 271.7 59.75 272.2 61.75C272.45 62.75 272.85 63 274.05 63C275.15 63 275.65 62.75 275.85 62C276 61.45 276.45 61 276.8 61C277.8 61 277.75 64.3 276.7 64.7C275.65 65.1 271.25 65.1 270.85 64.65Z" fill="#9C3974"/>
<path d="M275.75 59.4C275.05 57.8 272.55 57.5 272.15 58.95C271.7 60.7 270.5 60.2 270.5 58.25V56.5H274H277.5V58.5C277.5 60.75 276.55 61.2 275.75 59.4Z" fill="#9C3974"/>
<path d="M30.5 45C30.5 44.25 30.85 44 31.75 44C32.55 44 33 43.7 33 43.25C33 42.85 33.35 42.5 33.75 42.5C34.25 42.5 34.5 43.05 34.5 44.25C34.5 45.95 34.45 46 32.5 46C30.85 46 30.5 45.85 30.5 45Z" fill="#9C3974"/>
<path d="M283.5 44.25C283.5 43.05 283.75 42.5 284.25 42.5C284.65 42.5 285 42.85 285 43.25C285 43.7 285.45 44 286.25 44C287.15 44 287.5 44.25 287.5 45C287.5 45.85 287.15 46 285.5 46C283.55 46 283.5 45.95 283.5 44.25Z" fill="#9C3974"/>
<path d="M38 290C38 288.55 37.8 288 37.25 288C36.85 288 36.5 287.65 36.5 287.25C36.5 286.65 37.15 286.5 39.25 286.5H42V289.25V292H40H38V290Z" fill="#AC4080"/>
<path d="M272.35 287.65C272.15 287.5 272 286 272 284.4V281.5H274.75H277.5V284.75V288H275.1C273.75 288 272.5 287.85 272.35 287.65Z" fill="#AC4080"/>
<path d="M33 283.75C33 283.2 32.4 283 30.5 283H28V163.45V43.8501L30.5 44.1001C32.65 44.3001 33 44.2501 33 43.4501C33 42.8501 33.25 42.6501 33.7 42.8001C34.15 42.9501 34.5 43.9501 34.6 45.1501L34.75 47.2501L39.15 47.4001L43.5 47.5501V50.9001C43.5 52.7501 43.65 55.1001 43.8 56.1501C44.1 57.8001 44 58.0001 43.05 58.0001C42.15 58.0001 42 58.3001 42 60.4001C42 63.1001 42.6 64.0001 44.5 64.0001C46.4 64.0001 47 63.1001 47 60.4001C47 58.6001 46.8 58.0001 46.25 58.0001C45.85 58.0001 45.5 57.6501 45.5 57.2501C45.5 56.6501 46.2 56.5001 49 56.5001H52.5V59.0001V61.5001H55.25C57.95 61.5001 58 61.5001 58 63.0001C58 64.4001 58.15 64.5001 59.75 64.5001H61.5V161.5V258.5H158.5H255.5V260.2C255.5 261.15 255.3 262.1 255 262.25C254.75 262.4 254.5 263.1 254.5 263.8V265H157.25C71.15 265 60 265.1 60 265.75C60 266.15 59.65 266.5 59.25 266.5C58.7 266.5 58.5 265.9 58.5 264V261.5H55.5H52.5V264V266.5H50.75C49.05 266.5 49 266.55 49 268.5V270.5H45.5C42.7 270.5 42 270.35 42 269.75C42 269.15 41.15 269 37.5 269H33V271.5V274H37.5C41.15 274 42 273.85 42 273.25C42 272.85 42.35 272.5 42.75 272.5C43.25 272.5 43.5 273 43.5 274.2C43.5 275.7 43.3 275.95 42.15 276.15C41.35 276.25 42.5 276.4 44.65 276.45C47.7 276.5 48.5 276.65 48.5 277.25C48.5 277.65 48.15 278 47.75 278C47.2 278 47 278.6 47 280.5V283H44.5C42.6 283 42 283.2 42 283.75C42 284.15 41.65 284.5 41.25 284.5C40.65 284.5 40.5 283.8 40.45 281.4C40.45 279.65 40.3 278.55 40.15 278.9C40 279.25 38.9 279.5 37.2 279.5H34.5V282C34.5 283.9 34.3 284.5 33.75 284.5C33.35 284.5 33 284.15 33 283.75ZM56.9 253.65C57 253.05 56.6 251.9 56.05 251.15C55.2 249.95 55.1 249.4 55.5 247.5C56 244.95 56.05 240 55.55 237.75C55.35 236.7 54.9 236.2 54.1 236.1C53.3 235.95 53 235.6 53 234.7C53 234.05 52.8 233.5 52.55 233.5C51.7 233.5 51.4 236.3 51.25 245.65L51.1 255.05L53.9 254.9C56.4 254.75 56.75 254.6 56.9 253.65ZM55.7 76.6501C55.85 74.5501 56 71.5001 56 69.9001V66.9501L53.65 67.1001L51.25 67.2501L51.1 70.7501C50.85 75.4501 51.75 79.5001 53 79.5001C53.5 79.5001 54.1 79.7501 54.25 80.0001C55 81.2001 55.35 80.2501 55.7 76.6501ZM41.6 55.7501C41.35 54.4001 41.25 54.3501 40.05 54.7501C39.45 54.9501 39 55.5001 39 56.0501C39 56.8501 39.3 57.0501 40.4 56.9001C41.45 56.8001 41.7 56.5001 41.6 55.7501Z" fill="#AC4080"/>
<path d="M283.5 282V279.5H281.75C280.1 279.5 280 279.4 280 277.75C280 276.35 280.2 276 281 276C281.65 276 282 275.65 282 275C282 274.25 282.35 274 283.3 274C284.15 274 284.7 273.7 284.85 273C285 272.45 285.45 272 285.8 272C286.7 272 286.75 275.8 285.9 276.15C285.55 276.3 286.3 276.45 287.65 276.45L290 276.5V279.75V283H287.5C285.6 283 285 283.2 285 283.75C285 284.15 284.65 284.5 284.25 284.5C283.7 284.5 283.5 283.9 283.5 282Z" fill="#AC4080"/>
<path d="M274.85 276.15C274.65 276 274.5 274.95 274.5 273.9C274.5 272.55 274.7 272 275.25 272C275.65 272 276 272.35 276 272.75C276 273.15 276.25 273.55 276.5 273.55C276.8 273.6 277.25 273.7 277.5 273.75C277.8 273.8 278.35 273.9 278.75 273.95C279.2 274 279.5 274.5 279.5 275.25C279.5 276.4 279.3 276.5 277.35 276.5C276.15 276.5 275 276.35 274.85 276.15Z" fill="#AC4080"/>
<path d="M49.5 273.2V270.95L51.4 271.1C53 271.25 53.25 271.45 53.4 272.65C53.55 273.8 53.4 274 52.3 274C51.5 274 51 274.3 51 274.75C51 275.15 50.65 275.5 50.25 275.5C49.7 275.5 49.5 274.9 49.5 273.2Z" fill="#AC4080"/>
<path d="M267 274.75C267 274.2 266.45 274 264.9 274C263.7 274 261.85 273.85 260.75 273.65C259 273.35 258.9 273.3 260 273C260.85 272.8 261.25 272.35 261.25 271.65C261.25 271.05 261.45 270.4 261.65 270.2C262.3 269.55 262 269 261 269C260.35 269 260.1 268.75 260.3 268.25C260.5 267.7 261.35 267.5 263.05 267.5H265.5V264.5V261.5H263H260.5L260.6 163.4L260.75 65.2501L263.15 65.1001L265.5 64.9501V60.7001V56.5001H268H270.5V54.5001V52.5001H272.5H274.5V50.0001V47.5001H279H283.5V45.3001C283.5 43.8001 283.75 43.0001 284.25 42.8001C284.75 42.6501 285 42.8501 285 43.4501C285 44.2501 285.35 44.3001 287.5 44.1001L290 43.8501V47.2001V50.5001H288.25H286.5V160.5C286.5 257.95 286.4 270.5 285.75 270.5C285.35 270.5 285 270.15 285 269.75C285 269.15 284.25 269 281.3 269C277.2 269 276 269.3 276 270.25C276 270.7 275.05 270.8 272.25 270.6L268.5 270.35V272.95C268.5 274.9 268.3 275.5 267.75 275.5C267.35 275.5 267 275.15 267 274.75ZM275 268.45C275 268.2 275.25 268.1 275.5 268.25C275.85 268.5 276 267.2 275.9 264.4L275.75 260.25L273.9 260.1L272 259.95V264.25C272 267 272.2 268.45 272.5 268.25C272.8 268.1 273 268.2 273 268.45C273 268.75 273.45 269 274 269C274.55 269 275 268.75 275 268.45ZM275.2 63.2001C275.8 63.0001 276 62.2001 276 60.4501V58.0001H274H272V60.4001C272 61.7501 272.15 63.0001 272.35 63.1501C272.75 63.6001 274.15 63.6001 275.2 63.2001Z" fill="#AC4080"/>
<path d="M54 272.5C54 271.7 53.8 271 53.5 271C53.25 271 53 270.2 53 269.25V267.5H56.5H60V270.75V274H57H54V272.5Z" fill="#AC4080"/>
<path d="M33 38.25V35H36.25H39.5V38.25V41.5H36.25H33V38.25Z" fill="#AC4080"/>
<path d="M33 284.75V281.5H36.25H39.5V284.75V288H36.25H33V284.75Z" fill="#BE5494"/>
<path d="M276 283.75C276 283.2 275.45 283 274 283H272V280.5C272 278.6 271.8 278 271.25 278C270.85 278 270.5 277.65 270.5 277.25C270.5 276.7 271.05 276.5 272.5 276.5C274.45 276.5 274.5 276.45 274.5 274.75C274.5 272.8 275.7 272.25 276.15 274C276.4 275.05 278 275.4 278 274.45C278 274.05 279.1 273.95 281.5 274.1L285 274.35V161.7V49H280.5C276.85 49 276 49.15 276 49.75C276 50.15 275.65 50.5 275.25 50.5C274.65 50.5 274.5 49.7 274.5 46.5V42.5H279.75H284.95L285.1 45.65L285.25 48.75L287.5 48.8L289.75 48.85L289.9 162.8C289.95 225.45 289.9 277.25 289.75 277.9C289.5 278.85 289.3 278.95 288.5 278.5C287.05 277.75 285 277.85 285 278.75C285 279.35 284.25 279.5 281.25 279.5H277.5V282C277.5 283.9 277.3 284.5 276.75 284.5C276.35 284.5 276 284.15 276 283.75Z" fill="#BE5494"/>
<path d="M33 279C33 278.35 33.35 278 34 278C34.65 278 35 278.35 35 279C35 279.65 34.65 280 34 280C33.35 280 33 279.65 33 279Z" fill="#BE5494"/>
<path d="M37 278.75C37 278.35 37.3 278 37.65 278C38.6 278 39.5 275.85 38.95 274.9C38.6 274.3 38.85 274.15 40.25 274.25C41.65 274.3 42 274.15 42 273.35C42 272.85 42.25 272.5 42.65 272.6C43 272.75 43.3 273.9 43.4 275.4C43.5 277.5 43.4 278 42.8 278C42.35 278 42 278.35 42 278.75C42 279.3 41.4 279.5 39.5 279.5C37.6 279.5 37 279.3 37 278.75Z" fill="#BE5494"/>
<path d="M45.5 275.85C45.5 273.35 46.15 272.5 48.1 272.5C49.15 272.5 49.5 272.25 49.5 271.5C49.5 270.7 49.15 270.5 47.8 270.5C46.75 270.5 46 270.2 45.8 269.75C45.65 269.25 45.85 269 46.5 269C47.3 269 47.4 268.75 47.2 267.4C47.05 266.5 47.15 265.2 47.45 264.5C47.8 263.6 47.95 263.5 47.95 264.15C48 265.25 51 265.4 51 264.25C51 263.85 51.35 263.5 51.75 263.5C52.3 263.5 52.5 264.05 52.5 265.5C52.5 267.45 52.55 267.5 54.15 267.5C55.05 267.5 56.25 267.85 56.8 268.25C57.7 268.95 57.65 268.95 56 269C54.55 269 54.4 269.1 55.1 269.55C55.75 269.9 55.95 270.6 55.9 272C55.85 273.95 55.8 274 54.1 274C53.05 274 52.1 273.65 51.7 273.15C51.1 272.35 51.05 272.65 51 275.15V278H48.25H45.5V275.85Z" fill="#BE5494"/>
<path d="M267 269.8C267 269.35 266.65 269 266.25 269C265.45 269 265.3 268.15 265.8 266.8C266.25 265.55 266.9 265.85 267.1 267.4C267.2 268.35 267.55 268.8 268.4 268.9C269.8 269.1 269.6 270.2 268.1 270.4C267.35 270.5 267 270.3 267 269.8Z" fill="#BE5494"/>
<path d="M258 265.75C258 265.2 257.4 265 255.5 265H253V263.1C253 262.05 253.25 260.95 253.6 260.6C254.05 260.15 253.9 260 252.8 260C251.6 260 251.45 259.9 252 259.25C252.35 258.8 253.45 258.5 254.55 258.5H256.5V160.95C256.5 94.7 256.65 63.1 257 62.45C257.45 61.6 258.1 61.5 262.25 61.5H267V63.95V66.45L264.65 66.6L262.25 66.75L262.1 163.4C262 249.05 262.1 260 262.75 260C263.15 260 263.5 260.35 263.5 260.75C263.5 261.3 262.95 261.5 261.5 261.5H259.5V264C259.5 265.9 259.3 266.5 258.75 266.5C258.35 266.5 258 266.15 258 265.75Z" fill="#BE5494"/>
<path d="M60 67.15C60 66.35 59.8 66 59.6 66.3C59.4 66.6 58.6 66.85 57.75 66.8C56.35 66.75 56.25 66.65 56.4 64.9C56.55 63.45 56.4 63 55.8 63C55.35 63 55 62.65 55 62.25C55 61.65 55.7 61.5 58.25 61.5H61.5V64.2C61.5 65.7 61.35 67.25 61.2 67.7C60.7 68.95 60 68.65 60 67.15Z" fill="#BE5494"/>
<path d="M265.5 57.75C265.5 56.1 265.6 56 267.25 56C268.65 56 269 56.2 269 57C269 57.65 268.65 58 268 58C267.45 58 267 58.35 267 58.75C267 59.15 266.65 59.5 266.25 59.5C265.75 59.5 265.5 58.95 265.5 57.75Z" fill="#BE5494"/>
<path d="M42.3 57.2C42.15 56.75 42 55.55 42 54.45V52.5H45.25H48.5V55.25V58H45.55C43.35 58 42.55 57.8 42.3 57.2Z" fill="#BE5494"/>
<path d="M270.5 55.55V53H272.5C273.6 53 274.5 53.25 274.5 53.5C274.5 53.8 273.9 54 273.15 54C272.05 54 271.9 54.1 272.5 54.5C273.05 54.85 273.1 55 272.6 55C272.15 55 272 55.5 272.1 56.35C272.2 57.35 272 57.8 271.4 57.9C270.65 58.05 270.5 57.7 270.5 55.55Z" fill="#BE5494"/>
<path d="M42 49.75C42 49.2 41.05 49 37.65 48.9L33.25 48.75L33.0999 45.65L32.95 42.5H38.25H43.5V46.5C43.5 49.7 43.35 50.5 42.75 50.5C42.35 50.5 42 50.15 42 49.75Z" fill="#BE5494"/>
<path d="M40.5 35.75C40.5 35.35 40.85 35 41.25 35C41.8 35 42 34.45 42 33V31H156.2C247.1 31 270.5 31.15 270.7 31.6C270.95 32.1 271.05 32.1 271.3 31.65C271.5 31.2 273 31 276.3 31H281V33C281 34.45 281.2 35 281.75 35C282.15 35 282.5 35.35 282.5 35.75C282.5 36.35 281.65 36.5 278.05 36.5C274.95 36.5 273.5 36.3 273.3 35.9C273.05 35.4 272.95 35.4 272.7 35.85C272.5 36.35 248.5 36.5 156.45 36.5C54 36.5 40.5 36.4 40.5 35.75Z" fill="#BE5494"/>
<path d="M279.6 283.5C279.75 278.45 280.05 278 283.05 278H284.9L284.95 283L285 288H282.2H279.4L279.6 283.5Z" fill="#C465A0"/>
<path d="M38 283.75C38 283.2 37.4 283 35.45 283H32.95L33.0999 280.65L33.25 278.25L36.4 278.1L39.5 277.95V281.25C39.5 283.8 39.35 284.5 38.75 284.5C38.35 284.5 38 284.15 38 283.75Z" fill="#C465A0"/>
<path d="M45.6 275.4L45.75 272.75L48.4 272.6L51.05 272.45L50.95 275.2C50.85 277.9 50.8 278 49.4 278C48.15 278 48 277.85 48 276.3C48 275.35 48.3 274.45 48.65 274.35C49 274.15 49.05 274.05 48.7 274.05C47.7 273.95 46.85 275.45 47.1 276.75C47.3 277.75 47.15 278 46.4 278C45.55 278 45.45 277.7 45.6 275.4Z" fill="#C465A0"/>
<path d="M267 277C267 276.35 267.35 276 268 276C268.65 276 269 276.35 269 277C269 277.65 268.65 278 268 278C267.35 278 267 277.65 267 277Z" fill="#C465A0"/>
<path d="M271 272.25C271 270.1 271.05 270 272.5 270C273.35 270 274 269.8 274 269.5C274 269.25 274.45 269 275 269C275.9 269 276 269.35 276 271.75V274.5H273.5H271V272.25Z" fill="#C465A0"/>
<path d="M258 264.5C258 260.85 257.85 260 257.25 260C256.85 260 256.5 259.65 256.5 259.25C256.5 258.85 256.85 258.5 257.25 258.5C257.65 258.5 258 258.85 258 259.25C258 259.8 258.85 260 261.65 260.1L265.25 260.25L265.4 262.2C265.5 263.25 265.4 264.3 265.15 264.45C264.4 265 263.5 266.95 263.5 268C263.5 268.9 263.15 269 260.75 269H258V264.5Z" fill="#C465A0"/>
<path d="M51 263.25V260H55.5C59.15 260 60 259.85 60 259.25C60 258.85 60.35 258.5 60.75 258.5C61.15 258.5 61.5 258.85 61.5 259.25C61.5 259.65 61.15 260 60.75 260C60.25 260 60 260.8 59.9 263.15L59.75 266.25L55.4 266.4L51 266.55V263.25Z" fill="#C465A0"/>
<path d="M68.5 74V70.5L159.4 70.6L250.25 70.75V73.95C250.25 76.1 250.05 77.25 249.65 77.4C249.3 77.5 249 77.2 249 76.65C249 75.8 246 75.75 159.65 75.85C80.35 76 70.25 76.05 70.1 76.75C70 77.15 69.6 77.5 69.2 77.5C68.65 77.5 68.5 76.7 68.5 74Z" fill="#C465A0"/>
<path d="M256.5 63.75V61.5H258.5C259.95 61.5 260.5 61.7 260.5 62.25C260.5 62.65 260.15 63 259.7 63C259.25 63 258.65 63.7 258.35 64.5C257.5 66.8 256.5 66.4 256.5 63.75Z" fill="#C465A0"/>
<path d="M51 58.7501C51 58.2001 50.45 58.0001 49 58.0001H47V56.0001C47 54.5501 46.8 54.0001 46.25 54.0001C45.85 54.0001 45.5 53.6501 45.5 53.2501C45.5 52.4501 47.3 52.2501 49.4 52.8001C50.2 53.0501 50.5 53.5001 50.5 54.5501C50.5 55.6501 50.75 56.0001 51.5 56.0001C52.3 56.0001 52.5 56.3501 52.5 57.7501C52.5 58.9501 52.25 59.5001 51.75 59.5001C51.35 59.5001 51 59.1501 51 58.7501Z" fill="#C465A0"/>
<path d="M265.85 59.15C265.65 59 265.5 57.55 265.5 55.95C265.5 52.65 265.35 52.75 270.9 52.25C274.35 51.9 274.5 51.95 274.5 52.95C274.5 53.75 274.2 54 273.25 54C272.1 54 272 54.2 272 56.05V58.1L269.5 57.9C267.4 57.8 267 57.9 267 58.65C267 59.5 266.45 59.75 265.85 59.15Z" fill="#C465A0"/>
<path d="M33 43C33 42.25 33.35 42 34.25 42C35.05 42 35.5 41.7 35.5 41.25C35.5 40.75 36.05 40.5 37.25 40.5C38.9 40.5 39 40.6 39 42.25V44H36C33.35 44 33 43.9 33 43Z" fill="#C465A0"/>
<path d="M73.9 36.15C72.45 35.8 72.85 35 74.5 34.95C75.95 34.9 76.85 34.75 77.15 34.5C77.6 34.15 78.95 34.15 78.7 34.55C78.55 34.8 79.05 35 79.75 35C80.45 35 80.95 34.8 80.8 34.55C80.6 34.3 81.05 34.35 81.75 34.65C82.45 35 83 35.55 83 35.9C83 36.35 81.85 36.5 78.9 36.45C76.6 36.4 74.35 36.3 73.9 36.15Z" fill="#C465A0"/>
<path d="M84.5 35.9C84.5 35 86.65 34.1 87.8 34.5C88.3 34.7 89.25 34.7 89.8 34.45C90.4 34.25 91.05 34.2 91.25 34.4C91.45 34.6 92 34.8 92.55 34.8C93.05 34.85 93.85 34.9 94.25 34.95C94.65 34.95 95 35.35 95 35.75C95 36.35 94.1 36.5 89.75 36.5C85.9 36.5 84.5 36.35 84.5 35.9Z" fill="#C465A0"/>
<path d="M108.5 35.75C108.5 35.35 108.8 35 109.15 34.95C109.45 34.95 110.4 34.8 111.25 34.7C113.4 34.3 116 34.9 116 35.75C116 36.35 115.2 36.5 112.25 36.5C109.25 36.5 108.5 36.35 108.5 35.75Z" fill="#C465A0"/>
<path d="M120.5 35.8C120.5 34.9 121.75 34.6 125.05 34.75C128.9 34.9 129 34.9 129 35.75C129 36.35 128.2 36.5 124.75 36.5C121.45 36.5 120.5 36.35 120.5 35.8Z" fill="#C465A0"/>
<path d="M139.5 35.8C139.5 34.95 141.35 34.45 142.9 34.85C144.95 35.35 144.2 36.5 141.75 36.5C140.15 36.5 139.5 36.3 139.5 35.8Z" fill="#C465A0"/>
<path d="M144.5 35.8001C144.5 34.8501 145.55 34.7001 150.5 34.8001C156.15 34.9001 156 34.9001 156 35.7501C156 36.3501 155.05 36.5001 150.25 36.5001C145.7 36.5001 144.5 36.3501 144.5 35.8001Z" fill="#C465A0"/>
<path d="M156.5 35.75C156.5 35.05 156.95 34.9 158.75 34.9C160.55 34.9 161 35.05 161 35.75C161 36.3 160.4 36.5 158.75 36.5C157.1 36.5 156.5 36.3 156.5 35.75Z" fill="#C465A0"/>
<path d="M168.5 35.75C168.5 35.35 168.8 34.95 169.15 34.95C175.05 34.4 178 34.7 178 35.8C178 36.35 176.95 36.5 173.25 36.5C169.35 36.5 168.5 36.35 168.5 35.75Z" fill="#C465A0"/>
<path d="M183.5 35.8001C183.5 34.7501 185.7 34.5001 191.4 34.9501C191.7 35.0001 192 35.3501 192 35.7501C192 36.3501 191.2 36.5001 187.75 36.5001C184.45 36.5001 183.5 36.3501 183.5 35.8001Z" fill="#C465A0"/>
<path d="M192.5 35.75C192.5 35.05 192.95 34.9 194.75 34.9C196.55 34.9 197 35.05 197 35.75C197 36.3 196.4 36.5 194.75 36.5C193.1 36.5 192.5 36.3 192.5 35.75Z" fill="#C465A0"/>
<path d="M204.5 35.8C204.5 34.85 205.85 34.6 210.6 34.75C216.25 34.95 216 34.9 216 35.75C216 36.35 215.05 36.5 210.25 36.5C205.7 36.5 204.5 36.35 204.5 35.8Z" fill="#C465A0"/>
<path d="M219.5 35.8001C219.5 34.9501 221.1 34.5501 223.75 34.7501C224.85 34.8501 226.05 34.9501 226.4 34.9501C226.7 35.0001 227 35.3501 227 35.7501C227 36.3501 226.25 36.5001 223.25 36.5001C220.4 36.5001 219.5 36.3501 219.5 35.8001Z" fill="#C465A0"/>
<path d="M237.5 35.7501C237.5 35.3501 237.8 35.0001 238.15 34.9501C238.45 34.9001 239.45 34.8501 240.25 34.7501C242.35 34.5501 244 35.0001 244 35.8001C244 36.3501 243.2 36.5001 240.75 36.5001C238.2 36.5001 237.5 36.3501 237.5 35.7501Z" fill="#C465A0"/>
<path d="M266.65 36.15C262.3 35.9 262.7 35 267.15 35C270.15 35 270.85 34.85 270.85 34.25C270.85 33.7 270.65 33.65 270.3 34C270.05 34.25 269.35 34.5 268.8 34.5C268 34.5 267.9 34.4 268.45 34.05C269.05 33.65 269.05 33.45 268.35 32.8C267.8 32.2 266.55 32 263.9 31.95C261.9 31.95 259.8 31.75 259.25 31.5C258.65 31.25 261.6 31.05 266.9 31.05C272.55 31 275.45 31.15 275.25 31.5C275.1 31.75 274.5 32 273.95 32C272.7 32 272.7 33.5 274 33.85C274.55 34 275 34.3 275 34.55C275 34.8 275.35 35 275.75 35C276.15 35 276.5 35.35 276.5 35.75C276.5 36.5 274.75 36.6 266.65 36.15Z" fill="#C465A0"/>
<path d="M60.7499 31.5C59.9499 31.3 102.25 31.1 154.75 31.1C208 31.1 249.8 31.25 249.25 31.5C248 32.05 62.7999 32.05 60.7499 31.5Z" fill="#C465A0"/>
<path d="M276 285.25C276 282.85 276.1 282.5 277 282.5C277.9 282.5 278 282.85 278 285.25C278 287.65 277.9 288 277 288C276.1 288 276 287.65 276 285.25Z" fill="#C871A6"/>
<path d="M279 287C279 286.35 279.35 286 280 286C280.65 286 281 286.35 281 287C281 287.65 280.65 288 280 288C279.35 288 279 287.65 279 287Z" fill="#C871A6"/>
<path d="M279.5 280.45V277.95L282.15 278.15L284.75 278.35L284.9 280.7C285 281.95 284.9 283 284.7 283C284.5 283 283.75 282.35 282.95 281.55L281.55 280.1L281.25 281.55C280.7 284.05 279.5 283.35 279.5 280.45Z" fill="#C871A6"/>
<path d="M37.85 281.5C37.5 280.1 38 278.5 38.8 278.5C39.3 278.5 39.5 279.15 39.5 280.5C39.5 282.65 38.35 283.35 37.85 281.5Z" fill="#C871A6"/>
<path d="M276 279.25C276 278.05 275.9 278.05 271.65 277.9L267.25 277.75L267.1 275.15L266.95 272.5H268.7C270.45 272.5 270.5 272.45 270.5 270.7V268.95L273.15 269.1L275.75 269.25L275.8 271C275.9 277.65 275.95 278 277 278C277.75 278 278 278.35 278 279.25C278 280.15 277.75 280.5 277 280.5C276.25 280.5 276 280.15 276 279.25Z" fill="#C871A6"/>
<path d="M45.5 274.25C45.5 272.6 45.6 272.5 47.25 272.5C49.2 272.5 49.75 273.7 48 274.15C47.45 274.3 47 274.75 47 275.2C47 275.65 46.65 276 46.25 276C45.75 276 45.5 275.45 45.5 274.25Z" fill="#C871A6"/>
<path d="M261.8 267.4C262.1 265.5 263 263.4 263.75 262.9C264.05 262.65 264 262.35 263.55 262.05C262.3 261.25 263.35 260 265.25 260H267V263.25V266.5H265.25C263.7 266.5 263.5 266.65 263.5 267.75C263.5 268.65 263.25 269 262.5 269C261.65 269 261.55 268.75 261.8 267.4Z" fill="#C871A6"/>
<path d="M56.5 265.85C56.5 265.5 57 265 57.65 264.75C58.5 264.35 58.8 263.7 59 262L59.25 259.75L59.65 262.2C60.25 266.35 60.2 266.5 58.25 266.5C57.15 266.5 56.5 266.25 56.5 265.85Z" fill="#C871A6"/>
<path d="M60 259.25C60 258.85 60.25 258.5 60.5 258.5C60.8 258.5 61 258.85 61 259.25C61 259.65 60.8 260 60.5 260C60.25 260 60 259.65 60 259.25Z" fill="#C871A6"/>
<path d="M251.85 259.65C251.65 259.5 251.5 258 251.5 256.4V253.5H254.75H258V256.75V260H255.1C253.5 260 252 259.85 251.85 259.65Z" fill="#C871A6"/>
<path d="M67 252.15C63.5 251.6 63.5 251.6 63.5 249.25V247H65.45C66.55 247 67.75 247.35 68.2 247.75C68.6 248.15 69.15 248.5 69.45 248.5C69.75 248.5 70 249.05 70 249.75C70 250.55 70.3 251 70.75 251C71.15 251 71.5 251.35 71.5 251.75C71.5 252.5 70 252.65 67 252.15Z" fill="#C871A6"/>
<path d="M68 77.75C68 76.35 68.2 76 69 76C69.8 76 70 76.35 70 77.75C70 79.15 69.8 79.5 69 79.5C68.2 79.5 68 79.15 68 77.75Z" fill="#C871A6"/>
<path d="M249 73.2C249 72.75 248.55 72.3 248 72.15C246.25 71.7 246.8 70.5 248.75 70.5C250.4 70.5 250.5 70.6 250.5 72.25C250.5 73.45 250.25 74 249.75 74C249.35 74 249 73.65 249 73.2Z" fill="#C871A6"/>
<path d="M252 65.5C252 64.5 251.65 64.5 156 64.5C71 64.5 60 64.4 60 63.75C60 63.35 59.65 63 59.25 63C58.65 63 58.5 62.25 58.5 59.25V55.5L55.9 55.55C54.45 55.6 53.7 55.7 54.25 55.85C57.75 56.55 57.5 56.25 57.5 59.75V63H54.25H51V60.2V57.35L48.95 57.7C46.95 58 46.9 58 47.2 56.9C47.35 56.25 47.5 55.6 47.5 55.4C47.5 55.15 47.9 55 48.4 54.95C48.85 54.9 48.5 54.65 47.65 54.4C45.4 53.65 45.5 52.5 47.75 52.5H49.5V49V45.5H45.75C42.75 45.5 42 45.35 42 44.75C42 44.35 41.65 44 41.25 44C40.7 44 40.5 43.4 40.5 41.75C40.5 39.35 40.3 39.5 44.25 38.8C46.2 38.45 273 38.45 273.55 38.8C274.05 39.1 274.15 43.5 273.7 44.7C273.5 45.3 272.7 45.5 270.95 45.5H268.5V48.8C268.5 50.95 268.75 52.3 269.2 52.8C270.35 53.95 270.5 53.65 270.5 50.5V47.5H273.25H276V50.7V53.95H272.45C267.35 53.95 267 54.15 266.95 56.9C266.85 58.6 266.8 58.85 266.65 57.75C266.35 55.8 265.8 55.5 262.4 55.5H259.5V59.25C259.5 62.25 259.35 63 258.75 63C258.25 63 258 63.5 258 64.5C258 65.65 257.75 66 257.05 66C256.5 66 255.95 65.7 255.85 65.4C255.7 65 255.55 65.1 255.55 65.65C255.5 66.3 255.05 66.5 253.75 66.5C252.35 66.5 252 66.3 252 65.5Z" fill="#C871A6"/>
<path d="M268.9 57.15C269.5 57.05 270.4 57.05 270.9 57.15C271.35 57.3 270.85 57.3999 269.75 57.3499C268.65 57.3499 268.25 57.25 268.9 57.15Z" fill="#C871A6"/>
<path d="M42 53C42 52.35 42.35 52 43 52C43.65 52 44 52.35 44 53C44 53.65 43.65 54 43 54C42.35 54 42 53.65 42 53Z" fill="#C871A6"/>
<path d="M33.65 43.65C33.3 43.55 33 42.65 33 41.7V40H35.5C37.4 40 38 39.8 38 39.25C38 38.85 38.35 38.5 38.75 38.5C39.35 38.5 39.5 39.15 39.5 41.25C39.5 43.65 39.4 44 38.5 44C37.8 44 37.5 43.65 37.45 42.9C37.45 42.1 37.35 42 37.15 42.5C36.6 43.85 35.2 44.3 33.65 43.65Z" fill="#C871A6"/>
<path d="M279.8 42.2C279.65 41.75 279.5 39.95 279.5 38.2V35H282.25H285V38.15C285 40.65 284.8 41.45 284 42.15C282.7 43.25 280.2 43.25 279.8 42.2Z" fill="#C871A6"/>
<path d="M38 283V278H40H42V273.5V269H46.5H51V267V265H55.5H60V267V269H55.5H51V271.5V274H49H47V276V278H44.5H42V283V288H40H38V283Z" fill="#D189B7"/>
<path d="M276.5 287.65C276.45 287.45 276.35 285.7 276.2 283.75C275.8 278.55 276.05 278 278.8 278H281.05L280.9 282.9L280.75 287.75L278.65 287.9C277.45 288 276.5 287.9 276.5 287.65Z" fill="#D189B7"/>
<path d="M274.05 276.45C275 275.6 275.1 275.35 274.5 275C274.1 274.7 274 274.5 274.3 274.5C274.6 274.5 275.2 274.85 275.55 275.3C276.1 276 276.05 276.2 275.25 276.8C273.7 277.95 272.65 277.65 274.05 276.45Z" fill="#D189B7"/>
<path d="M267 271.5V269H264.5H262V267V265H264.5H267V267V269H269.5H272V271.5V274H269.5H267V271.5Z" fill="#D189B7"/>
<path d="M60 256.75V253.5H64.25C66.75 253.5 68.5 253.3 68.5 253C68.5 252.75 67.25 252.5 65.75 252.5C63.65 252.5 63 252.35 63 251.75C63 251.35 62.8 251 62.5 251C62.25 251 62 251.25 62 251.5C62 251.8 61.55 252 61 252C60 252 60 251.65 60 157.5V63H57.9H55.75L55.9 60.55C56.1 57.9 55.5 57.25 53.2 57.7C51.35 58.05 50.75 57.3 51.5 55.55C52.1 54 52.15 54 56.05 54H59.95L60.1 58.35L60.25 62.75L156.85 62.9L253.45 63L253.65 64.15C253.85 65.25 253.85 65.25 253.95 64.05C254 63.05 254.2 62.9 255.45 63.1C257.4 63.4 258 62.05 258 57.5V54H262.5H267V49V44H269.5C271.75 44 272 43.85 272.3 42.75C272.45 42.05 272.5 41.15 272.3 40.75C272.05 40.1 259.25 40 161.15 39.9C40.85 39.8 47.9 39.75 45.75 40.25C44.95 40.4 43.75 40.65 43.15 40.8C41.9 41.05 41.6 42.4 42.6 43.4C42.95 43.75 44.75 44 47.1 44H51V49V54.05L46.65 53.9L42.25 53.75L42.1 48.85C42 45.1 41.8 44 41.25 44C40.85 44 40.5 43.35 40.4 42.4C40.3 41.15 40 40.7 39.15 40.6C38.1 40.45 38 40.15 38 37.7V35H159.5H281V37.45C281 38.8 281.15 40.25 281.3 40.7C281.55 41.4 281.7 41.4 282.35 40.75C282.75 40.35 283.5 40 284.05 40C284.85 40 285 40.35 285 42V44H280.5H276V46.5V49H274H272V51.5V54H269.5H267V58.5V63H262.4H257.75L257.9 159.5C257.95 224.25 257.85 256 257.5 256C257.25 256 257 255.8 257 255.5C257 255.25 256.1 255 254.95 255C252.9 255 252.9 255 253.1 256.65C253.25 257.5 253.45 258.6 253.55 259C253.75 259.65 242.7 259.75 156.9 259.9L60 260V256.75ZM249 161.5V72H159.5H70V74.9C70 76.45 70 116.5 70 163.9C70 224.45 69.85 250 69.45 250C69.2 250 69.1 250.25 69.25 250.5C69.45 250.85 100 251 159.3 251H249V161.5ZM67 249.7C67 249.2 66.75 249 66.2 249.2C65.8 249.35 65.6 249.3 65.75 249C65.9 248.7 65.8 248.5 65.55 248.5C64.8 248.5 64.85 249.85 65.65 250.15C66.75 250.6 67 250.5 67 249.7Z" fill="#D189B7"/>
<rect x="23" y="26" width="277" height="277" rx="19" stroke="#401831" stroke-width="10"/>
<rect x="68" y="76" width="182" height="181" fill="#C465A0"/>
<path d="M112.5 132.5L161 192.5L209.5 132.5" stroke="#F1D1E5" stroke-width="25"/>
</g>
<defs>
<clipPath id="clip0_5_1835">
<rect width="322" height="324" fill="white"/>
</clipPath>
</defs>
</svg>
