<svg width="738" height="324" viewBox="0 0 738 324" fill="none" xmlns="http://www.w3.org/2000/svg">
<g clip-path="url(#clip0_6_2005)">
<path d="M94.4727 299V295.5L377.699 295.6L660.806 295.75L661.164 299.15L661.523 302.5H377.938H94.4727V299Z" fill="#210D19"/>
<path d="M83.6552 294.5C83.6552 290.85 83.426 290.5 81.3633 290.5C79.6444 290.5 79.0714 290.85 79.0714 291.75C79.0714 292.9 78.613 293 74.4875 293H69.9037V289.75C69.9037 286.1 69.6745 286.15 80.6757 286.8C85.718 287.1 85.9472 287.2 85.9472 288.8C85.9472 290.25 86.4056 290.5 88.5829 290.5C91.677 290.5 97.4068 292.55 97.4068 293.7C97.4068 294.15 97.9798 294.5 98.5528 294.5C99.2403 294.5 99.6987 295.05 99.6987 295.75C99.6987 296.55 99.0111 297 97.9798 297C97.063 297 96.2608 297.35 96.2608 297.75C96.2608 298.35 94.7711 298.5 89.958 298.5H83.6552V294.5Z" fill="#271C31"/>
<path d="M649.761 289.25V286.5H656.637H663.512V288.25C663.512 289.7 663.054 290 661.106 290C659.731 290 658.47 290.4 658.126 291C657.668 291.75 656.522 292 653.657 292H649.761V289.25Z" fill="#271C31"/>
<path d="M670.388 282.5C670.388 281.4 670.961 280.5 671.534 280.5C672.336 280.5 672.68 241.1 672.68 163.35V46.2H667.294C661.793 46.25 661.794 46.25 661.45 44.45L661.106 42.65L673.712 42.3C680.702 42.1 686.89 42.05 687.578 42.25C688.38 42.45 688.724 80.55 688.724 163.55V284.5H679.556H670.388V282.5Z" fill="#271C31"/>
<path d="M649.99 35.65L650.334 29.75L657.668 29.6C662.825 29.5 665.346 29.65 665.919 30.1C667.065 30.9 667.179 34.25 666.263 38.45L665.461 41.5H657.553H649.646L649.99 35.65Z" fill="#271C31"/>
<path d="M629.936 302.15C628.561 301.55 629.134 301 631.196 301C632.686 301 633.144 300.6 633.144 299.1V297.25L365.218 297.1C82.6239 297 93.969 297.1 93.969 294.95C93.969 294.65 92.5938 293.85 90.8749 293.2L87.6662 292L87.3224 293.25C86.7494 295.05 84.8013 294.25 84.8013 292.2V290.5H366.135H647.469V296.5V302.5H639.104C634.405 302.5 630.28 302.35 629.936 302.15Z" fill="#401831"/>
<path d="M91.9063 297.75C90.6457 297.1 90.8749 297 93.396 297C95.2296 297 96.261 297.3 96.261 297.75C96.261 298.7 93.8544 298.7 91.9063 297.75Z" fill="#401831"/>
<path d="M661.22 163.75V43H670.503C676.347 43 679.441 43.2 678.983 43.5C678.639 43.8 675.087 44 671.305 44C667.409 44 664.658 44.15 665.117 44.35C665.575 44.55 668.211 44.65 670.961 44.55L676.118 44.4V163.2C676.118 242.05 675.774 282 674.972 282C674.399 282 673.826 282.25 673.826 282.5C673.826 282.8 675.201 283 676.806 283C679.441 283 679.556 283.1 677.951 283.75C676.806 284.25 673.941 284.5 668.784 284.5H661.22V163.75Z" fill="#401831"/>
<path d="M649.646 296.4C649.646 295.2 649.303 294.55 648.959 294.9C648.73 295.2 647.469 295.5 646.209 295.5C644.49 295.5 644.031 295.15 644.031 293.75C644.031 292.55 643.458 292 642.312 292C641.395 292 640.593 291.65 640.593 291.25C640.593 290.85 641.625 290.5 642.885 290.5C644.719 290.5 645.177 290.15 645.177 288.8V287.1L653.543 286.75L662.023 286.45L661.45 283.95C660.991 281.9 661.221 281.5 662.825 281.5C663.856 281.5 664.658 281.85 664.658 282.25C664.658 282.8 666.034 283 669.815 283C674.17 283 674.972 283.15 674.972 284C674.972 284.65 674.17 285 672.68 285C671.19 285 670.388 285.35 670.388 286C670.388 286.55 670.961 287 671.534 287C673.368 287 672.909 290.1 670.847 291.05C669.93 291.5 668.784 293.2 668.44 294.8C668.096 296.45 667.18 297.9 666.492 298.1C665.804 298.3 661.794 298.5 657.553 298.5H649.761L649.646 296.4ZM656.637 288.5C658.012 288.1 657.897 288 655.835 288C654.345 288 653.199 288.25 653.199 288.5C653.199 289.15 654.459 289.15 656.637 288.5Z" fill="#2B304C"/>
<path d="M59.5901 43.75C59.5901 42.1 59.8193 42 63.601 42C67.3826 42 67.6118 42.1 67.6118 43.75C67.6118 45.4 67.3826 45.5 63.601 45.5C59.8193 45.5 59.5901 45.4 59.5901 43.75Z" fill="#2B304C"/>
<path d="M661.221 43.5C661.221 42.4 660.762 41.5 660.075 41.5C659.502 41.5 658.929 41.15 658.929 40.75C658.929 40.35 659.731 40 660.648 40C661.908 40 662.367 39.4 662.481 37.9C662.596 35.8 662.596 32.15 662.481 31.35C662.367 31.1 660.418 31 658.127 31.1C654.574 31.2 653.657 31.45 653.428 32.4C652.855 34.15 650.334 33.4 649.99 31.35L649.646 29.5L659.158 29.65L668.669 29.75L669.472 32.5C670.961 37.3 671.191 37.5 674.972 37.5C676.806 37.5 678.639 37.75 678.983 38C679.327 38.3 681.733 38.5 684.255 38.5H688.724V42C688.724 44.65 688.38 45.5 687.119 45.5C686.317 45.5 685.286 45 684.942 44.45C684.369 43.5 683.682 43.4 679.9 43.65C677.493 43.85 673.139 44 670.159 44C666.034 44 664.659 44.2 664.659 44.75C664.659 45.15 663.856 45.5 662.94 45.5C661.679 45.5 661.221 44.95 661.221 43.5Z" fill="#2B304C"/>
<path d="M57.7566 40.95C56.9544 40.35 59.5901 31.35 60.8507 30.4C61.4236 30 65.0907 29.7 70.3622 29.6L79.0715 29.4V31.2C79.0715 32.95 78.9569 33 74.6022 33C72.0811 33 69.6746 33.25 69.3308 33.5C68.8724 33.8 68.2994 35.7 67.9556 37.75L67.2681 41.5H62.9134C60.5069 41.5 58.215 41.25 57.7566 40.95Z" fill="#2B304C"/>
<path d="M100.616 307.15C97.5215 306.95 97.4069 306.8 97.4069 303.95V301H366.708H636.009V304.25V307.5L369.917 307.45C223.463 307.4 102.335 307.25 100.616 307.15Z" fill="#572143"/>
<path d="M401.087 30.75C401.087 29.1 401.316 29 405.098 29C408.879 29 409.109 29.1 409.109 30.75C409.109 32.4 408.879 32.5 405.098 32.5C401.316 32.5 401.087 32.4 401.087 30.75Z" fill="#572143"/>
<path d="M566.106 30.75V29H572.409H578.711V30.75V32.5H572.409H566.106V30.75Z" fill="#572143"/>
<path d="M607.36 30.75V29H615.955H624.55V30.75V32.5H615.955H607.36V30.75Z" fill="#572143"/>
<path d="M85.0305 306.9C84.2283 306.55 83.6553 304.9 83.6553 302.95C83.6553 300.15 83.3115 299.5 81.7072 299.3C76.6649 298.65 65.5491 298 59.9339 298H53.8603V296.25C53.8603 295.2 54.4333 294.5 55.35 294.45C56.0376 294.45 55.5792 294.25 54.2041 294C51.9121 293.6 51.5684 293.15 51.5684 290.75C51.5684 288.65 51.9121 288 53.2873 288C54.6625 288 55.0062 287.3 55.0062 284.75V281.5H59.9339C62.6842 281.5 65.4345 281.75 66.2367 282.1C67.0389 282.45 67.6118 283.9 67.6118 285.3V287.95L61.6528 288.1C55.6938 288.25 55.5792 288.3 55.2354 289.9C54.8917 291.15 55.35 291.5 56.9544 291.55C61.4236 291.6 76.4358 292.45 80.5612 292.9C83.9991 293.3 84.8013 293.25 84.8013 292.65C84.8013 292.15 84.1137 292.05 82.5094 292.25C79.4153 292.7 75.6336 292.1 75.6336 291.15C75.6336 290.65 76.2066 290.5 77.6963 290.75C78.7277 290.95 81.8218 291.25 84.5721 291.35C88.4684 291.6 89.0413 291.75 87.6662 292.2C86.291 292.65 86.1764 293.55 86.864 297L87.6662 301.25L91.4479 301.4C95.2295 301.55 95.3441 301.65 94.8858 303.55C94.6566 304.6 94.8857 305.5 95.3441 305.5C95.9171 305.5 96.2609 304.5 96.2609 303.25C96.2609 300.3 98.0944 300.35 99.0112 303.3C100.272 307.6 100.501 307.5 93.0522 307.5C89.3851 307.5 85.8326 307.25 85.0305 306.9ZM90.5311 304.65C90.5311 304.4 89.9581 303.9 89.3851 303.5C88.4684 302.9 88.2392 302.95 88.2392 303.9C88.2392 304.5 88.8121 305 89.3851 305C90.0727 305 90.5311 304.85 90.5311 304.65Z" fill="#313B5D"/>
<path d="M640.593 301.75C640.593 301.35 641.281 301 642.198 301C643.458 301 643.917 300.1 644.26 297.4C644.49 295.4 645.177 293.35 645.636 292.9C646.323 292.2 646.094 292 644.146 292C641.968 292 641.854 291.85 642.885 291C643.573 290.45 644.948 290 645.865 290C646.896 290 648.386 289.65 649.303 289.25C650.334 288.85 650.563 288.5 649.876 288.5C649.188 288.5 648.615 288.3 648.615 288C648.615 287.75 650.563 287.5 652.97 287.55C656.293 287.55 656.751 287.65 654.918 287.95C652.855 288.35 652.626 288.75 652.97 292.7C653.313 296 653.772 297 655.032 297C655.949 297 656.637 297.35 656.637 297.75C656.637 298.15 656.178 298.5 655.491 298.5C654.918 298.5 654.345 298.95 654.345 299.5C654.345 301.15 650.334 302.5 645.177 302.5C641.854 302.5 640.593 302.3 640.593 301.75Z" fill="#313B5D"/>
<path d="M658.929 297.8C658.929 297.4 660.189 296.95 661.794 296.8C663.398 296.6 664.659 296.15 664.659 295.75C664.659 295.35 665.461 295 666.377 295C667.523 295 668.096 295.55 668.096 296.75C668.096 298.45 667.982 298.5 663.513 298.5C660.304 298.5 658.929 298.3 658.929 297.8Z" fill="#313B5D"/>
<path d="M665.117 292.4C665.575 291.25 666.721 289.9 667.638 289.45C669.128 288.7 669.128 288.6 667.523 288.3C666.492 288.15 664.658 288 663.398 288C661.564 288 661.22 287.65 661.22 285.3C661.22 281.9 663.512 281.3 665.461 284.2C666.492 285.85 666.721 286 666.836 284.95C666.95 283.45 669.93 283 679.67 283C683.91 283 685.286 282.8 685.286 282.25C685.286 281.85 686.088 281.5 687.005 281.5C688.265 281.5 688.724 282.1 688.724 284.15C688.609 287.1 687.234 288.2 682.765 288.7C679.9 289 679.556 289.25 679.556 291.2V293.35L673.024 293.95C664.085 294.7 664.315 294.75 665.117 292.4Z" fill="#313B5D"/>
<path d="M685.286 40.75C685.286 40.2 684.025 40 680.817 40C678.295 40 675.889 39.8 675.545 39.5C675.201 39.25 673.139 39 671.076 39C667.638 39 667.409 38.9 667.18 37.15C666.95 36.15 666.263 35 665.69 34.7C665.002 34.35 664.658 33.4 664.888 32.65C665.231 31.3 665.117 31.25 659.272 31.1C654.345 31 653.199 31.1 653.199 31.7C653.199 32.35 651.824 32.5 646.896 32.5H640.593V29.3C640.593 26.15 640.593 26.1 644.146 25.8C646.094 25.65 648.959 25.5 650.449 25.5C652.397 25.5 653.199 25.2 653.199 24.5C653.199 23.3 657.21 23.1 658.126 24.25C658.585 24.65 660.533 25.15 662.596 25.4C665.919 25.75 666.377 26.05 666.721 27.65L667.065 29.5H672.68H678.181L678.983 32.9C679.327 34.75 679.785 36.6 679.9 37C680.014 37.45 681.619 37.8 683.911 37.9C687.234 38.05 687.578 38.2 687.578 39.8C687.578 40.75 687.119 41.5 686.432 41.5C685.859 41.5 685.286 41.15 685.286 40.75Z" fill="#313B5D"/>
<path d="M85.1451 32.15C83.4261 31.85 83.0823 28.5 84.8013 28.5C85.4888 28.5 86.0618 27.55 86.0618 26.4C86.1764 25.2 86.4056 24.65 86.7494 25.15C87.2078 25.8 88.4683 26 93.5106 26H99.6988V29.25V32.5L93.1668 32.45C89.4997 32.45 85.8326 32.3 85.1451 32.15Z" fill="#313B5D"/>
<path d="M92.823 306.75C92.823 306.35 93.6252 306 94.5419 306C95.8025 306 96.2609 305.4 96.2609 303.5C96.2609 301.05 96.3755 301 99.6988 301C101.647 301 103.137 301.25 103.137 301.5C103.137 301.8 102.564 302 101.991 302C101.303 302 101.418 302.4 102.22 303C103.022 303.55 104.397 304 105.199 304C106.231 304 106.575 304.3 106.116 304.8C105.658 305.35 106.231 305.7 107.721 305.85C108.981 306 110.012 306.45 110.012 306.8C110.012 307.35 107.95 307.5 101.418 307.5C94.5419 307.5 92.823 307.35 92.823 306.75Z" fill="#57274C"/>
<path d="M629.134 306.75C629.134 306.35 629.936 306 630.852 306C632.113 306 632.571 305.4 632.571 303.55V301.1L640.02 300.9L647.584 300.75L647.24 304L646.896 307.25L638.072 307.4C630.623 307.5 629.134 307.4 629.134 306.75Z" fill="#57274C"/>
<path d="M84.8013 292.4C84.8013 292.15 83.7699 292.1 82.5093 292.25C78.4985 292.8 75.6336 292.1 75.6336 290.45C75.6336 289.15 75.9774 289 79.4152 288.95C83.5407 288.9 82.7385 288.75 76.5503 288.25C73.8 288.05 72.1957 287.7 72.1957 287.25C72.1957 286.65 74.1438 286.5 81.3634 286.5H90.5311V289.15C90.5311 291.45 90.1873 291.8 87.6662 292.35C85.9472 292.65 84.8013 292.7 84.8013 292.4Z" fill="#57274C"/>
<path d="M63.4864 283.75C63.028 283.3 61.309 283 58.9025 283H55.0062V163.5V44H59.5901C62.9134 44 64.1739 43.8 64.1739 43.25C64.1739 42.85 64.9761 42.5 65.8929 42.5C67.3826 42.5 67.6118 56.3 67.6118 163.5C67.6118 271.8 67.3826 284.5 65.8929 284.5C64.8615 284.5 63.8301 284.15 63.4864 283.75Z" fill="#57274C"/>
<path d="M64.2885 37.4C64.5177 32.05 65.2053 31.5 71.6227 31.5C78.1547 31.5 79.0714 32.25 79.0714 37.45V41.5H71.5081H64.0593L64.2885 37.4Z" fill="#57274C"/>
<path d="M650.907 38.5C650.907 36.85 651.365 35.5 652.053 35.5C652.74 35.5 653.199 36.55 653.199 37.9C653.199 39.6 653.542 40.05 654.345 39.5C655.032 39 655.491 38.95 655.491 39.4C655.491 39.7 656.293 40 657.21 40C658.126 40 658.928 40.35 658.928 40.75C658.928 41.25 657.668 41.5 654.918 41.5H650.907V38.5Z" fill="#57274C"/>
<path d="M92.823 31.75C92.823 31.35 93.6252 31 94.5419 31C95.8025 31 96.2609 30.4 96.2609 28.5V26H370.146H644.031V27.65L644.146 29.25L645.75 27.75C646.552 26.95 647.354 26.6 647.354 27C647.469 28.35 646.094 30 645.062 29.7C644.489 29.55 644.031 29.8 644.031 30.2C644.031 30.65 644.833 31 645.75 31C646.667 31 647.469 31.35 647.469 31.75C647.469 32.4 615.84 32.5 370.146 32.5C124.452 32.5 92.823 32.4 92.823 31.75Z" fill="#57274C"/>
<path d="M316.829 306.15C317.903 306.05 319.813 306.05 321.006 306.15C322.08 306.3 321.126 306.4 318.858 306.4C316.59 306.4 315.635 306.3 316.829 306.15Z" fill="#324368"/>
<path d="M87.7888 305.4C87.192 305.05 86.7146 304.15 86.8339 303.4C86.8339 302.65 86.4759 302.15 85.9985 302.3C85.4017 302.45 84.3275 302 83.492 301.3C82.7759 300.6 81.2243 300 80.0308 300C78.8372 300 77.5243 299.4 76.6889 298.45L75.376 296.9L80.5082 297.3C83.2533 297.5 86.2372 297.65 87.0727 297.65C88.0275 297.65 88.5049 298.7 88.5049 301.25C88.5049 303.35 89.1017 305.05 89.9371 305.4C90.892 305.8 90.892 306 90.0565 306C89.3404 306 88.2662 305.7 87.7888 305.4Z" fill="#324368"/>
<path d="M668.803 303.05C668.684 301.5 669.281 301.05 671.668 300.55C673.339 300.25 674.294 299.75 673.936 299.5C673.578 299.2 673.816 299 674.413 299C675.129 299 675.726 298.55 675.726 298C675.726 297.35 676.561 297 678.113 297C680.739 297 681.574 298.75 679.068 299.1C678.232 299.25 677.755 300.05 677.874 301.15C678.113 302.7 677.755 303 675.726 303C674.413 303 673.339 303.25 673.339 303.55C673.339 303.85 672.503 303.95 671.429 303.8C669.997 303.6 669.639 303.7 670.236 304.25C670.594 304.65 670.474 305 669.878 305C669.281 305 668.803 304.15 668.803 303.05Z" fill="#324368"/>
<path d="M56.8762 296.4C56.6375 296.05 56.1601 294.95 55.8021 293.95L55.0859 292.1L59.2633 292.65C62.9633 293.1 63.202 293.25 61.7697 293.95C60.9343 294.4 60.4569 295.05 60.6956 295.4C61.0536 295.7 60.2182 296.05 59.0246 296.1C57.8311 296.15 60.6956 296.3 65.231 296.5L73.5858 296.8L65.4697 296.9C59.9794 296.95 57.2343 296.8 56.8762 296.4Z" fill="#324368"/>
<path d="M53.5343 289.3C53.0569 288.8 52.9375 288.25 53.2956 288.1C54.3698 287.65 55.3246 288.4 54.8472 289.35C54.4891 290.2 54.3698 290.2 53.5343 289.3Z" fill="#324368"/>
<path d="M668.326 31.1501C669.758 31.0501 671.907 31.0501 673.1 31.1501C674.174 31.3001 672.981 31.4001 670.355 31.3501C667.729 31.3501 666.774 31.2501 668.326 31.1501Z" fill="#324368"/>
<path d="M669.519 29.75C669.161 29.5 669.519 28.6 670.355 27.75C671.19 26.95 672.026 26.5 672.026 26.85C672.145 27.15 672.503 27.8 672.98 28.3C673.458 28.85 673.338 29.05 672.384 28.85C671.668 28.65 670.951 28.9 670.713 29.35C670.474 29.85 669.997 30.05 669.519 29.75Z" fill="#324368"/>
<path d="M106.408 285.5V281.5H114.763H123.117V285.5V289.5H114.763H106.408V285.5Z" fill="#732A56"/>
<path d="M631.565 285.5V281.5H641.113H650.662V285.5V289.5H641.113H631.565V285.5Z" fill="#732A56"/>
<path d="M71.7954 286.75C71.7954 285.65 72.2728 285.5 75.9728 285.5C79.6728 285.5 80.1502 285.65 80.1502 286.75C80.1502 287.85 79.6728 288 75.9728 288C72.2728 288 71.7954 287.85 71.7954 286.75Z" fill="#732A56"/>
<path d="M128.727 279.15C128.25 279 127.892 277.4 127.892 275.65V272.5H134.337C144.004 272.5 144.601 272.7 144.601 275.7C144.601 277.15 144.004 278.55 143.169 278.9C141.617 279.55 130.04 279.75 128.727 279.15Z" fill="#732A56"/>
<path d="M150.927 275.15C149.853 275 149.375 273.3 149.375 269.2V263.45L159.879 263.6L170.262 263.75L170.62 265.65C170.859 266.7 170.501 267.5 169.785 267.5C168.949 267.5 168.472 268.9 168.472 271.2V274.9L164.772 275.2C160.475 275.55 153.075 275.55 150.927 275.15Z" fill="#732A56"/>
<path d="M591.82 270.9C591.342 268.9 590.507 267.2 589.791 267.1C589.194 267 588.597 266.15 588.597 265.2V263.5H595.281C604.113 263.5 605.307 264.05 605.307 268.45C605.307 273.35 603.874 274.5 597.549 274.5H592.536L591.82 270.9Z" fill="#732A56"/>
<path d="M86.1178 292.45C86.1178 292.2 86.7146 292 87.3113 292C88.0275 292 88.5049 291.65 88.5049 291.25C88.5049 290.85 89.3404 290.5 90.2952 290.5C93.1597 290.5 92.3242 291.7 89.1016 292.35C87.4307 292.65 86.1178 292.7 86.1178 292.45Z" fill="#5B406F"/>
<path d="M77.7631 292C76.4502 291.65 77.1663 291.55 80.3888 291.65C82.7759 291.7 84.4469 291.9 84.0888 292.15C83.3727 292.65 79.9114 292.6 77.7631 292Z" fill="#5B406F"/>
<path d="M664.984 289.25V286.5H669.758H674.532V284V281.5H682.29H690.048V284.7V287.95L683.842 288.1C677.993 288.25 677.516 288.35 677.397 289.5C677.277 290.2 677.158 291 677.039 291.25C677.039 291.55 674.174 291.8 670.952 291.9L664.984 292.05V289.25Z" fill="#5B406F"/>
<path d="M64.3954 285.65C63.56 281.65 63.918 281.5 72.5115 281.5H80.1501V284.75V288H72.5115H64.8728L64.3954 285.65Z" fill="#5B406F"/>
<path d="M64.6342 42.9499V39.9999H70.6018C75.1373 39.9999 76.5695 39.7999 76.5695 39.2499C76.5695 37.8999 78.5986 38.4999 79.434 40.0499C81.3437 44.2499 79.9114 45.2499 70.8406 45.5999L64.6342 45.8499V42.9499Z" fill="#5B406F"/>
<path d="M674.532 42C674.532 39.2 674.89 38.5 676.322 38.5C677.277 38.5 678.113 38.85 678.113 39.25C678.113 39.8 679.545 40 684.08 40H690.048V42.75V45.5H682.29H674.532V42Z" fill="#5B406F"/>
<path d="M76.5696 35.6C76.5696 35.1 75.7341 34.25 74.7793 33.65C72.989 32.55 69.4084 32.55 66.1858 33.65C64.1568 34.3 64.1568 33.45 66.1858 32.3C67.4987 31.55 70.3632 31.35 84.6857 31.15L101.634 30.85V33.7V36.5H89.1018C77.8825 36.5 76.5696 36.4 76.5696 35.6Z" fill="#5B406F"/>
<path d="M664.984 34.25C664.984 33 664.506 32 663.79 32C663.193 32 662.597 31.8 662.597 31.5C662.597 31.2 665.939 31 670.355 31H678.113V33.75V36.5H671.548H664.984V34.25Z" fill="#5B406F"/>
<path d="M635.145 289.95C631.207 289.65 525.817 289.55 367.435 289.6L106.408 289.75V288.15C106.408 287 107.005 286.5 108.198 286.5C109.153 286.5 109.989 286.85 109.989 287.25C109.989 287.8 111.302 288 114.763 288H119.537V285.5V283H114.763C111.302 283 109.989 283.2 109.989 283.75C109.989 284.15 109.153 284.5 108.198 284.5C106.766 284.5 106.408 283.85 106.408 281.5V278.5H110.585C113.092 278.5 114.763 278.75 114.763 279.15C114.763 279.5 115.121 279.55 115.718 279.25C116.195 279 118.94 278.4 121.924 278C127.176 277.25 127.295 277.25 126.937 275.15C126.579 273.05 126.579 273 130.04 273C137.082 273 137.44 272.8 137.44 267.95V263.5H146.988C154.627 263.5 156.537 263.65 156.537 264.25C156.537 264.65 155.701 265 154.746 265C153.314 265 152.956 265.8 152.956 269.2C152.956 273.9 153.672 274.25 160.833 273.7L164.891 273.4V269.7C164.891 267.45 165.369 266 166.204 266C166.801 266 167.04 265.8 166.682 265.5C166.324 265.25 164.891 265 163.698 265C162.146 265 161.669 264.75 162.027 264.25C162.624 263.6 188.404 263.5 384.025 263.5H605.307V265.5V267.5H611.275H617.242V270V272.5H627.865H638.368L639.204 276.4C639.562 278.5 640.278 280.85 640.636 281.65C641.352 282.85 640.994 283 638.249 283C635.265 283 635.145 283.15 635.145 285.5V288H641.113C645.649 288 647.081 287.8 647.081 287.25C647.081 286.85 647.916 286.5 648.99 286.5C650.423 286.5 650.661 286.95 650.423 288.4C650.065 290.15 649.826 290.25 645.887 290.35C643.62 290.35 638.726 290.2 635.145 289.95ZM139.588 277.4C141.617 276.55 141.379 274.65 139.111 274.3C138.037 274.15 135.888 274 134.337 274C131.83 274 131.472 274.25 131.472 275.65C131.472 276.6 131.83 277.5 132.308 277.65C133.621 278.2 138.037 278.05 139.588 277.4ZM600.055 265.75C599.101 265.35 596.833 265.05 594.923 265.05C592.775 265.1 592.297 265.2 593.73 265.35C595.401 265.55 595.759 265.9 595.281 266.75C594.923 267.4 595.162 268.1 595.759 268.25C596.475 268.45 596.714 268.8 596.355 269.05C595.997 269.3 596.475 269.35 597.43 269.2C598.504 269.05 599.459 269.35 600.175 270.1C601.01 271.05 601.249 270.85 601.488 268.85C601.726 267.25 601.249 266.25 600.055 265.75Z" fill="#812F60"/>
<path d="M64.6343 44.5C64.6343 43.6 65.1117 43.5 68.8117 43.8C73.1084 44.1 77.5245 43.05 75.9729 42C74.7794 41.15 76.5697 38.5 78.4793 38.5C79.7922 38.5 80.1503 39.3 80.1503 42V45.5H72.3923C65.3504 45.5 64.6343 45.4 64.6343 44.5Z" fill="#812F60"/>
<path d="M98.0533 291.65C94.9501 291.15 94.4727 290.4 94.4727 286.2C94.4727 281.7 94.8307 281.5 102.35 281.5H106.408V279V276.5H111.182C115.837 276.5 115.956 276.45 115.956 274.8C115.956 272.75 117.15 272.5 127.414 272.5C133.143 272.5 135.053 272.65 135.053 273.2C135.053 273.55 134.098 274 132.785 274.15C131.114 274.3 130.756 274.7 131.114 275.7C131.95 277.35 130.518 279.65 129.085 279.25C128.369 279.1 127.892 279.15 127.892 279.4C127.892 279.65 126.221 279.85 124.311 279.9C120.014 279.95 115.956 281.35 118.224 282C119.298 282.25 118.463 282.45 116.076 282.6C113.331 282.75 112.376 282.65 112.376 282.05C112.376 281.6 111.779 280.9 111.182 280.5C110.347 280 109.989 281.15 109.989 284.2V288.65L117.627 288.3C125.385 288 630.729 287.9 638.965 288.25C641.352 288.35 643.978 288.55 644.694 288.75C645.529 288.95 646.365 288.65 646.723 288.05C647.558 286.75 650.661 286.65 650.661 287.95C650.661 288.45 651.019 289.6 651.378 290.45L652.094 292L376.028 291.95C224.091 291.95 99.0081 291.8 98.0533 291.65Z" fill="#90346B"/>
<path d="M654.958 291.2C653.884 290.75 653.049 289.6 653.049 288.45V286.5H662.597C670.236 286.5 672.145 286.65 672.145 287.25C672.145 287.65 671.31 288 670.355 288C669.042 288 668.565 288.55 668.565 290V292H662.716C658.897 292 656.152 291.7 654.958 291.2Z" fill="#90346B"/>
<path d="M647.081 283.75C647.081 283.2 645.768 283 642.665 283C640.158 283 637.532 282.8 636.816 282.6C636.1 282.4 635.503 280.95 635.384 279.4L635.265 276.5H642.903H650.661V280.5C650.661 283.7 650.303 284.5 648.871 284.5C647.916 284.5 647.081 284.15 647.081 283.75Z" fill="#90346B"/>
<path d="M87.3115 273.45C87.3115 271.95 89.5792 270.5 91.9663 270.5C92.6824 270.5 93.2792 270.05 93.2792 269.5C93.2792 268.7 94.1147 268.5 97.4566 268.5H101.634V271.75V275H94.4728H87.3115V273.45Z" fill="#90346B"/>
<path d="M613.662 273C613.662 272.35 614.497 272 616.049 272C617.601 272 618.436 272.35 618.436 273C618.436 273.65 617.601 274 616.049 274C614.497 274 613.662 273.65 613.662 273Z" fill="#90346B"/>
<path d="M601.727 267.75C601.727 266.85 602.323 266.5 604.114 266.5C605.904 266.5 606.501 266.85 606.501 267.75C606.501 268.65 605.904 269 604.114 269C602.323 269 601.727 268.65 601.727 267.75Z" fill="#90346B"/>
<path d="M644.097 63.35C643.62 62.75 643.5 60.95 643.739 59.45L644.097 56.75L650.781 56.6C659.374 56.4 660.448 56.95 659.971 61.1L659.613 64.25L652.213 64.4C645.291 64.55 644.694 64.45 644.097 63.35Z" fill="#90346B"/>
<path d="M94.4727 289.75C94.4727 287.25 97.2178 286.55 98.5307 288.75C99.0081 289.45 99.8436 290 100.56 290C101.156 290 102.827 290.4 104.021 290.9C106.408 291.8 106.289 291.8 100.44 291.95L94.4727 292.05V289.75Z" fill="#9C3974"/>
<path d="M648.036 291.7C647.439 291.5 647.081 290.15 647.081 288.65V285.95L653.407 286.3C656.748 286.5 659.852 286.8 660.21 287.05C660.568 287.25 663.552 287.5 666.774 287.65C672.026 287.8 671.787 287.85 664.745 287.9C660.21 287.95 656.629 288.2 656.629 288.5C656.629 288.8 657.703 289 659.016 289C660.329 289 661.403 289.25 661.403 289.5C661.403 289.8 662.597 290 664.148 290C666.297 290 666.416 289.9 664.984 289.5C663.552 289.1 663.671 289 665.939 289C667.968 289 668.564 289.3 668.564 290.25C668.564 291.2 667.968 291.5 665.939 291.5C664.387 291.5 659.971 291.6 656.032 291.8C652.094 291.95 648.513 291.9 648.036 291.7Z" fill="#9C3974"/>
<path d="M95.3081 285.15C94.8307 285 94.4727 284.1 94.4727 283.15C94.4727 281.55 94.592 281.5 99.2468 281.5C102.708 281.5 104.021 281.7 104.021 282.25C104.021 282.65 103.185 283 102.231 283C101.276 283 100.44 283.25 100.44 283.55C100.44 283.8 99.9629 283.9 99.2468 283.75C98.65 283.6 98.0533 283.9 98.0533 284.45C98.0533 285.5 96.7404 285.8 95.3081 285.15Z" fill="#9C3974"/>
<path d="M116.792 276.15C116.314 276 115.956 275.1 115.956 274.15C115.956 272.55 116.076 272.5 120.73 272.5C124.192 272.5 125.505 272.7 125.505 273.25C125.505 273.65 124.669 274 123.714 274C122.759 274 121.924 274.25 121.924 274.55C121.924 274.8 121.447 274.9 120.73 274.75C120.134 274.6 119.537 274.9 119.537 275.45C119.537 276.5 118.224 276.8 116.792 276.15Z" fill="#9C3974"/>
<path d="M72.9888 271.5V267.5H87.3112H101.514V271.5V275.5H87.1919H72.9888V271.5ZM95.3079 272.65C95.3079 271.8 94.7112 271.85 92.5628 272.7C91.1305 273.35 91.1306 273.45 93.0402 273.35C94.2338 273.35 95.3079 273 95.3079 272.65ZM97.695 270.9C97.4563 270.25 97.2176 270.65 97.2176 271.75C97.0982 272.85 97.3369 273.35 97.695 272.9C97.9337 272.4 97.9337 271.5 97.695 270.9Z" fill="#9C3974"/>
<path d="M654.6 275.2C653.645 275 653.048 274 653.048 272.7C653.048 270.7 652.81 270.5 650.184 270.5C643.739 270.5 643.5 270.3 643.5 264.15V258.45L651.616 258.6L659.613 258.75L659.971 263.15L660.329 267.5H671.071H681.813L681.454 271.4L681.096 275.25L668.564 275.35C661.642 275.4 655.316 275.3 654.6 275.2Z" fill="#9C3974"/>
<path d="M614.497 273.65C614.02 273.5 613.662 272.35 613.662 271.15V269H608.41C602.92 269 601.726 268.55 601.726 266.2C601.726 265.45 601.01 265 599.936 265C598.981 265 598.146 264.65 598.146 264.25C598.146 263.65 600.055 263.5 607.694 263.5H617.242V265.5V267.5H622.016C626.432 267.5 626.79 267.6 626.79 268.9C626.79 269.65 626.432 271.1 626.074 272.15C625.358 273.95 625.119 274 620.226 274C617.481 274 614.855 273.85 614.497 273.65Z" fill="#9C3974"/>
<path d="M116.434 245.4C116.672 239.25 117.389 233.75 117.866 233.15C118.463 232.2 119.537 232 123.237 232C126.579 232 127.892 232.2 127.892 232.75C127.892 233.15 128.608 233.5 129.443 233.5C133.263 233.5 134.456 235.65 134.575 242.6C134.695 247.15 135.172 249.7 136.127 250.2C136.963 250.6 137.44 252 137.201 253.6L136.843 256.25L126.34 256.4L115.837 256.55L116.434 245.4Z" fill="#9C3974"/>
<path d="M123.714 81.5C123.356 81.25 121.924 81 120.73 81C117.508 81 115.718 76.9 116.195 70.75L116.553 65.75L125.863 65.6L135.053 65.45V69.9C135.053 72.35 134.695 76.05 134.337 78.15L133.501 82H128.966C126.459 82 124.072 81.8 123.714 81.5Z" fill="#9C3974"/>
<path d="M95.9047 64.9C95.0693 64.55 94.4725 63 94.4725 61.4C94.4725 58.5 94.4725 58.5 90.8919 58.5C87.4306 58.5 87.3113 58.45 87.3113 56.05C87.3113 53.3 88.1468 53 95.666 53C100.082 53 100.321 53.1 101.156 54.75C101.872 56.45 101.992 56.5 107.721 56.5H113.569V60.4C113.569 62.75 112.972 64.55 112.137 64.9C111.301 65.25 107.721 65.5 104.021 65.5C100.321 65.5 96.7402 65.25 95.9047 64.9Z" fill="#9C3974"/>
<path d="M644.335 64.65C643.858 64.5 643.5 63.45 643.5 62.4C643.5 60.2 646.365 59.75 647.558 61.75C648.155 62.75 649.11 63 651.974 63C654.6 63 655.793 62.75 656.271 62C656.629 61.45 657.703 61 658.539 61C660.926 61 660.806 64.3 658.3 64.7C655.793 65.1 645.29 65.1 644.335 64.65Z" fill="#9C3974"/>
<path d="M656.032 59.4C654.361 57.8 648.393 57.5 647.439 58.95C646.364 60.7 643.5 60.2 643.5 58.25V56.5H651.855H660.21V58.5C660.21 60.75 657.942 61.2 656.032 59.4Z" fill="#9C3974"/>
<path d="M70.6018 45C70.6018 44.25 71.4373 44 73.5857 44C75.4953 44 76.5695 43.7 76.5695 43.25C76.5695 42.85 77.405 42.5 78.3598 42.5C79.5533 42.5 80.1501 43.05 80.1501 44.25C80.1501 45.95 80.0308 46 75.376 46C71.4373 46 70.6018 45.85 70.6018 45Z" fill="#9C3974"/>
<path d="M674.532 44.25C674.532 43.05 675.129 42.5 676.322 42.5C677.277 42.5 678.113 42.85 678.113 43.25C678.113 43.7 679.187 44 681.096 44C683.245 44 684.08 44.25 684.08 45C684.08 45.85 683.245 46 679.306 46C674.651 46 674.532 45.95 674.532 44.25Z" fill="#9C3974"/>
<path d="M88.5051 290C88.5051 288.55 88.0276 288 86.7147 288C85.7599 288 84.9244 287.65 84.9244 287.25C84.9244 286.65 86.476 286.5 91.4889 286.5H98.0534V289.25V292H93.2792H88.5051V290Z" fill="#AC4080"/>
<path d="M647.917 287.65C647.439 287.5 647.081 286 647.081 284.4V281.5H653.646H660.21V284.75V288H654.481C651.258 288 648.275 287.85 647.917 287.65Z" fill="#AC4080"/>
<path d="M76.5697 283.75C76.5697 283.2 75.1374 283 70.602 283H64.6343V163.45V43.8501L70.602 44.1001C75.7342 44.3001 76.5697 44.2501 76.5697 43.4501C76.5697 42.8501 77.1664 42.6501 78.2406 42.8001C79.3148 42.9501 80.1503 43.9501 80.389 45.1501L80.747 47.2501L91.2502 47.4001L101.634 47.5501V50.9001C101.634 52.7501 101.992 55.1001 102.35 56.1501C103.066 57.8001 102.827 58.0001 100.56 58.0001C98.4114 58.0001 98.0533 58.3001 98.0533 60.4001C98.0533 63.1001 99.4856 64.0001 104.021 64.0001C108.556 64.0001 109.989 63.1001 109.989 60.4001C109.989 58.6001 109.511 58.0001 108.198 58.0001C107.244 58.0001 106.408 57.6501 106.408 57.2501C106.408 56.6501 108.079 56.5001 114.763 56.5001H123.118V59.0001V61.5001H129.682C136.127 61.5001 136.247 61.5001 136.247 63.0001C136.247 64.4001 136.605 64.5001 140.424 64.5001H144.601V161.5V258.5H376.148H607.694V260.2C607.694 261.15 607.217 262.1 606.501 262.25C605.904 262.4 605.307 263.1 605.307 263.8V265H373.164C167.637 265 141.021 265.1 141.021 265.75C141.021 266.15 140.185 266.5 139.23 266.5C137.918 266.5 137.44 265.9 137.44 264V261.5H130.279H123.118V264V266.5H118.94C114.882 266.5 114.763 266.55 114.763 268.5V270.5H106.408C99.7243 270.5 98.0533 270.35 98.0533 269.75C98.0533 269.15 96.0243 269 87.3115 269H76.5697V271.5V274H87.3115C96.0243 274 98.0533 273.85 98.0533 273.25C98.0533 272.85 98.8888 272.5 99.8437 272.5C101.037 272.5 101.634 273 101.634 274.2C101.634 275.7 101.157 275.95 98.4114 276.15C96.5017 276.25 99.2469 276.4 104.379 276.45C111.66 276.5 113.569 276.65 113.569 277.25C113.569 277.65 112.734 278 111.779 278C110.466 278 109.989 278.6 109.989 280.5V283H104.021C99.4856 283 98.0533 283.2 98.0533 283.75C98.0533 284.15 97.2179 284.5 96.263 284.5C94.8308 284.5 94.4727 283.8 94.3534 281.4C94.3534 279.65 93.9953 278.55 93.6373 278.9C93.2792 279.25 90.6534 279.5 86.5954 279.5H80.1503V282C80.1503 283.9 79.6729 284.5 78.36 284.5C77.4051 284.5 76.5697 284.15 76.5697 283.75ZM133.621 253.65C133.859 253.05 132.905 251.9 131.592 251.15C129.563 249.95 129.324 249.4 130.279 247.5C131.472 244.95 131.592 240 130.398 237.75C129.921 236.7 128.847 236.2 126.937 236.1C125.027 235.95 124.311 235.6 124.311 234.7C124.311 234.05 123.834 233.5 123.237 233.5C121.208 233.5 120.492 236.3 120.134 245.65L119.776 255.05L126.46 254.9C132.427 254.75 133.263 254.6 133.621 253.65ZM130.756 76.6501C131.114 74.5501 131.472 71.5001 131.472 69.9001V66.9501L125.863 67.1001L120.134 67.2501L119.776 70.7501C119.179 75.4501 121.327 79.5001 124.311 79.5001C125.505 79.5001 126.937 79.7501 127.295 80.0001C129.085 81.2001 129.921 80.2501 130.756 76.6501ZM97.0985 55.7501C96.5017 54.4001 96.263 54.3501 93.3985 54.7501C91.9663 54.9501 90.8921 55.5001 90.8921 56.0501C90.8921 56.8501 91.6082 57.0501 94.234 56.9001C96.7405 56.8001 97.3372 56.5001 97.0985 55.7501Z" fill="#AC4080"/>
<path d="M674.532 282V279.5H670.355C666.416 279.5 666.177 279.4 666.177 277.75C666.177 276.35 666.655 276 668.565 276C670.116 276 670.952 275.65 670.952 275C670.952 274.25 671.787 274 674.055 274C676.084 274 677.397 273.7 677.755 273C678.113 272.45 679.187 272 680.023 272C682.171 272 682.29 275.8 680.261 276.15C679.426 276.3 681.216 276.45 684.439 276.45L690.048 276.5V279.75V283H684.081C679.545 283 678.113 283.2 678.113 283.75C678.113 284.15 677.277 284.5 676.323 284.5C675.01 284.5 674.532 283.9 674.532 282Z" fill="#AC4080"/>
<path d="M653.884 276.15C653.407 276 653.049 274.95 653.049 273.9C653.049 272.55 653.526 272 654.839 272C655.794 272 656.629 272.35 656.629 272.75C656.629 273.15 657.226 273.55 657.823 273.55C658.539 273.6 659.613 273.7 660.21 273.75C660.926 273.8 662.239 273.9 663.194 273.95C664.268 274 664.984 274.5 664.984 275.25C664.984 276.4 664.507 276.5 659.852 276.5C656.987 276.5 654.242 276.35 653.884 276.15Z" fill="#AC4080"/>
<path d="M115.956 273.2V270.95L120.492 271.1C124.311 271.25 124.908 271.45 125.266 272.65C125.624 273.8 125.266 274 122.64 274C120.731 274 119.537 274.3 119.537 274.75C119.537 275.15 118.702 275.5 117.747 275.5C116.434 275.5 115.956 274.9 115.956 273.2Z" fill="#AC4080"/>
<path d="M635.146 274.75C635.146 274.2 633.833 274 630.133 274C627.268 274 622.852 273.85 620.226 273.65C616.049 273.35 615.81 273.3 618.436 273C620.465 272.8 621.42 272.35 621.42 271.65C621.42 271.05 621.897 270.4 622.375 270.2C623.926 269.55 623.21 269 620.823 269C619.272 269 618.675 268.75 619.152 268.25C619.63 267.7 621.659 267.5 625.717 267.5H631.565V264.5V261.5H625.597H619.63L619.868 163.4L620.226 65.2501L625.955 65.1001L631.565 64.9501V60.7001V56.5001H637.533H643.5V54.5001V52.5001H648.275H653.049V50.0001V47.5001H663.791H674.532V45.3001C674.532 43.8001 675.129 43.0001 676.323 42.8001C677.516 42.6501 678.113 42.8501 678.113 43.4501C678.113 44.2501 678.949 44.3001 684.081 44.1001L690.048 43.8501V47.2001V50.5001H685.871H681.694V160.5C681.694 257.95 681.455 270.5 679.903 270.5C678.949 270.5 678.113 270.15 678.113 269.75C678.113 269.15 676.323 269 669.281 269C659.494 269 656.629 269.3 656.629 270.25C656.629 270.7 654.362 270.8 647.678 270.6L638.726 270.35V272.95C638.726 274.9 638.249 275.5 636.936 275.5C635.981 275.5 635.146 275.15 635.146 274.75ZM654.242 268.45C654.242 268.2 654.839 268.1 655.436 268.25C656.271 268.5 656.629 267.2 656.391 264.4L656.033 260.25L651.616 260.1L647.081 259.95V264.25C647.081 267 647.558 268.45 648.275 268.25C648.991 268.1 649.468 268.2 649.468 268.45C649.468 268.75 650.542 269 651.855 269C653.168 269 654.242 268.75 654.242 268.45ZM654.72 63.2001C656.152 63.0001 656.629 62.2001 656.629 60.4501V58.0001H651.855H647.081V60.4001C647.081 61.7501 647.439 63.0001 647.917 63.1501C648.871 63.6001 652.213 63.6001 654.72 63.2001Z" fill="#AC4080"/>
<path d="M126.698 272.5C126.698 271.7 126.221 271 125.505 271C124.908 271 124.311 270.2 124.311 269.25V267.5H132.666H141.021V270.75V274H133.859H126.698V272.5Z" fill="#AC4080"/>
<path d="M76.5696 38.25V35H84.3276H92.0856V38.25V41.5H84.3276H76.5696V38.25Z" fill="#AC4080"/>
<path d="M76.5697 284.75V281.5H84.3277H92.0857V284.75V288H84.3277H76.5697V284.75Z" fill="#BE5494"/>
<path d="M656.629 283.75C656.629 283.2 655.316 283 651.855 283H647.081V280.5C647.081 278.6 646.603 278 645.29 278C644.335 278 643.5 277.65 643.5 277.25C643.5 276.7 644.813 276.5 648.274 276.5C652.929 276.5 653.048 276.45 653.048 274.75C653.048 272.8 655.913 272.25 656.987 274C657.584 275.05 661.403 275.4 661.403 274.45C661.403 274.05 664.029 273.95 669.758 274.1L678.113 274.35V161.7V49H667.371C658.658 49 656.629 49.15 656.629 49.75C656.629 50.15 655.793 50.5 654.839 50.5C653.406 50.5 653.048 49.7 653.048 46.5V42.5H665.58H677.993L678.351 45.65L678.709 48.75L684.08 48.8L689.451 48.85L689.809 162.8C689.929 225.45 689.809 277.25 689.451 277.9C688.854 278.85 688.377 278.95 686.467 278.5C683.006 277.75 678.113 277.85 678.113 278.75C678.113 279.35 676.322 279.5 669.161 279.5H660.21V282C660.21 283.9 659.732 284.5 658.419 284.5C657.464 284.5 656.629 284.15 656.629 283.75Z" fill="#BE5494"/>
<path d="M76.5697 279C76.5697 278.35 77.4052 278 78.9568 278C80.5084 278 81.3439 278.35 81.3439 279C81.3439 279.65 80.5084 280 78.9568 280C77.4052 280 76.5697 279.65 76.5697 279Z" fill="#BE5494"/>
<path d="M86.1179 278.75C86.1179 278.35 86.834 278 87.6695 278C89.9372 278 92.0856 275.85 90.7727 274.9C89.9372 274.3 90.534 274.15 93.8759 274.25C97.2178 274.3 98.0533 274.15 98.0533 273.35C98.0533 272.85 98.6501 272.5 99.6049 272.6C100.44 272.75 101.157 273.9 101.395 275.4C101.634 277.5 101.395 278 99.963 278C98.8888 278 98.0533 278.35 98.0533 278.75C98.0533 279.3 96.6211 279.5 92.0856 279.5C87.5502 279.5 86.1179 279.3 86.1179 278.75Z" fill="#BE5494"/>
<path d="M106.408 275.85C106.408 273.35 107.96 272.5 112.614 272.5C115.121 272.5 115.956 272.25 115.956 271.5C115.956 270.7 115.121 270.5 111.898 270.5C109.392 270.5 107.601 270.2 107.124 269.75C106.766 269.25 107.243 269 108.795 269C110.705 269 110.943 268.75 110.466 267.4C110.108 266.5 110.347 265.2 111.063 264.5C111.898 263.6 112.256 263.5 112.256 264.15C112.376 265.25 119.537 265.4 119.537 264.25C119.537 263.85 120.372 263.5 121.327 263.5C122.64 263.5 123.117 264.05 123.117 265.5C123.117 267.45 123.237 267.5 127.056 267.5C129.205 267.5 132.069 267.85 133.382 268.25C135.53 268.95 135.411 268.95 131.472 269C128.011 269 127.653 269.1 129.324 269.55C130.875 269.9 131.353 270.6 131.234 272C131.114 273.95 130.995 274 126.937 274C124.43 274 122.163 273.65 121.208 273.15C119.776 272.35 119.656 272.65 119.537 275.15V278H112.972H106.408V275.85Z" fill="#BE5494"/>
<path d="M635.145 269.8C635.145 269.35 634.31 269 633.355 269C631.445 269 631.087 268.15 632.281 266.8C633.355 265.55 634.907 265.85 635.384 267.4C635.623 268.35 636.458 268.8 638.487 268.9C641.829 269.1 641.352 270.2 637.771 270.4C635.981 270.5 635.145 270.3 635.145 269.8Z" fill="#BE5494"/>
<path d="M613.662 265.75C613.662 265.2 612.229 265 607.694 265H601.726V263.1C601.726 262.05 602.323 260.95 603.158 260.6C604.233 260.15 603.875 260 601.249 260C598.384 260 598.026 259.9 599.339 259.25C600.175 258.8 602.8 258.5 605.426 258.5H610.081V160.95C610.081 94.7 610.439 63.1 611.275 62.45C612.349 61.6 613.9 61.5 623.807 61.5H635.145V63.95V66.45L629.536 66.6L623.807 66.75L623.449 163.4C623.21 249.05 623.449 260 625 260C625.955 260 626.791 260.35 626.791 260.75C626.791 261.3 625.478 261.5 622.016 261.5H617.242V264C617.242 265.9 616.765 266.5 615.452 266.5C614.497 266.5 613.662 266.15 613.662 265.75Z" fill="#BE5494"/>
<path d="M141.021 67.15C141.021 66.35 140.543 66 140.066 66.3C139.588 66.6 137.679 66.85 135.65 66.8C132.308 66.75 132.069 66.65 132.427 64.9C132.785 63.45 132.427 63 130.995 63C129.921 63 129.085 62.65 129.085 62.25C129.085 61.65 130.756 61.5 136.843 61.5H144.601V64.2C144.601 65.7 144.243 67.25 143.885 67.7C142.692 68.95 141.021 68.65 141.021 67.15Z" fill="#BE5494"/>
<path d="M631.565 57.75C631.565 56.1 631.804 56 635.742 56C639.084 56 639.92 56.2 639.92 57C639.92 57.65 639.084 58 637.533 58C636.22 58 635.146 58.35 635.146 58.75C635.146 59.15 634.31 59.5 633.355 59.5C632.162 59.5 631.565 58.95 631.565 57.75Z" fill="#BE5494"/>
<path d="M98.7693 57.2C98.4113 56.75 98.0532 55.55 98.0532 54.45V52.5H105.811H113.569V55.25V58H106.527C101.276 58 99.3661 57.8 98.7693 57.2Z" fill="#BE5494"/>
<path d="M643.5 55.55V53H648.274C650.9 53 653.048 53.25 653.048 53.5C653.048 53.8 651.616 54 649.826 54C647.2 54 646.842 54.1 648.274 54.5C649.587 54.85 649.706 55 648.513 55C647.439 55 647.081 55.5 647.319 56.35C647.558 57.35 647.081 57.8 645.648 57.9C643.858 58.05 643.5 57.7 643.5 55.55Z" fill="#BE5494"/>
<path d="M98.0532 49.75C98.0532 49.2 95.7855 49 87.6695 48.9L77.1663 48.75L76.8083 45.65L76.4502 42.5H89.1017H101.634V46.5C101.634 49.7 101.276 50.5 99.8435 50.5C98.8887 50.5 98.0532 50.15 98.0532 49.75Z" fill="#BE5494"/>
<path d="M94.4727 35.75C94.4727 35.35 95.3081 35 96.263 35C97.5759 35 98.0533 34.45 98.0533 33V31H370.657C587.643 31 643.5 31.15 643.978 31.6C644.574 32.1 644.813 32.1 645.41 31.65C645.887 31.2 649.468 31 657.345 31H668.564V33C668.564 34.45 669.042 35 670.355 35C671.31 35 672.145 35.35 672.145 35.75C672.145 36.35 670.116 36.5 661.523 36.5C654.123 36.5 650.661 36.3 650.184 35.9C649.587 35.4 649.349 35.4 648.752 35.85C648.274 36.35 590.984 36.5 371.254 36.5C126.698 36.5 94.4727 36.4 94.4727 35.75Z" fill="#BE5494"/>
<path d="M665.223 283.5C665.581 278.45 666.297 278 673.458 278H677.874L677.993 283L678.113 288H671.429H664.745L665.223 283.5Z" fill="#C465A0"/>
<path d="M88.5049 283.75C88.5049 283.2 87.0727 283 82.4179 283H76.4502L76.8083 280.65L77.1663 278.25L84.6856 278.1L92.0855 277.95V281.25C92.0855 283.8 91.7275 284.5 90.2952 284.5C89.3404 284.5 88.5049 284.15 88.5049 283.75Z" fill="#C465A0"/>
<path d="M106.647 275.4L107.005 272.75L113.331 272.6L119.656 272.45L119.418 275.2C119.179 277.9 119.06 278 115.718 278C112.734 278 112.376 277.85 112.376 276.3C112.376 275.35 113.092 274.45 113.927 274.35C114.763 274.15 114.882 274.05 114.047 274.05C111.66 273.95 109.631 275.45 110.227 276.75C110.705 277.75 110.347 278 108.556 278C106.527 278 106.289 277.7 106.647 275.4Z" fill="#C465A0"/>
<path d="M635.146 277C635.146 276.35 635.981 276 637.533 276C639.084 276 639.92 276.35 639.92 277C639.92 277.65 639.084 278 637.533 278C635.981 278 635.146 277.65 635.146 277Z" fill="#C465A0"/>
<path d="M644.694 272.25C644.694 270.1 644.813 270 648.274 270C650.303 270 651.855 269.8 651.855 269.5C651.855 269.25 652.929 269 654.242 269C656.391 269 656.629 269.35 656.629 271.75V274.5H650.662H644.694V272.25Z" fill="#C465A0"/>
<path d="M613.662 264.5C613.662 260.85 613.304 260 611.871 260C610.917 260 610.081 259.65 610.081 259.25C610.081 258.85 610.917 258.5 611.871 258.5C612.826 258.5 613.662 258.85 613.662 259.25C613.662 259.8 615.691 260 622.374 260.1L630.968 260.25L631.326 262.2C631.565 263.25 631.326 264.3 630.729 264.45C628.939 265 626.791 266.95 626.791 268C626.791 268.9 625.955 269 620.226 269H613.662V264.5Z" fill="#C465A0"/>
<path d="M119.537 263.25V260H130.279C138.992 260 141.021 259.85 141.021 259.25C141.021 258.85 141.856 258.5 142.811 258.5C143.766 258.5 144.601 258.85 144.601 259.25C144.601 259.65 143.766 260 142.811 260C141.617 260 141.021 260.8 140.782 263.15L140.424 266.25L130.04 266.4L119.537 266.55V263.25Z" fill="#C465A0"/>
<path d="M161.311 74V70.5L378.296 70.6L595.162 70.75V73.95C595.162 76.1 594.684 77.25 593.729 77.4C592.894 77.5 592.178 77.2 592.178 76.65C592.178 75.8 585.017 75.75 378.893 75.85C189.597 76 165.488 76.05 165.13 76.75C164.891 77.15 163.936 77.5 162.982 77.5C161.669 77.5 161.311 76.7 161.311 74Z" fill="#C465A0"/>
<path d="M610.081 63.75V61.5H614.855C618.316 61.5 619.629 61.7 619.629 62.25C619.629 62.65 618.794 63 617.72 63C616.646 63 615.213 63.7 614.497 64.5C612.468 66.8 610.081 66.4 610.081 63.75Z" fill="#C465A0"/>
<path d="M119.537 58.7501C119.537 58.2001 118.224 58.0001 114.763 58.0001H109.989V56.0001C109.989 54.5501 109.511 54.0001 108.198 54.0001C107.243 54.0001 106.408 53.6501 106.408 53.2501C106.408 52.4501 110.705 52.2501 115.718 52.8001C117.627 53.0501 118.343 53.5001 118.343 54.5501C118.343 55.6501 118.94 56.0001 120.73 56.0001C122.64 56.0001 123.117 56.3501 123.117 57.7501C123.117 58.9501 122.521 59.5001 121.327 59.5001C120.372 59.5001 119.537 59.1501 119.537 58.7501Z" fill="#C465A0"/>
<path d="M632.4 59.15C631.923 59 631.565 57.55 631.565 55.95C631.565 52.65 631.207 52.75 644.455 52.25C652.691 51.9 653.049 51.95 653.049 52.95C653.049 53.75 652.332 54 650.065 54C647.32 54 647.081 54.2 647.081 56.05V58.1L641.113 57.9C636.1 57.8 635.146 57.9 635.146 58.65C635.146 59.5 633.833 59.75 632.4 59.15Z" fill="#C465A0"/>
<path d="M76.5697 43C76.5697 42.25 77.4052 42 79.5535 42C81.4632 42 82.5374 41.7 82.5374 41.25C82.5374 40.75 83.8503 40.5 86.7148 40.5C90.6535 40.5 90.8922 40.6 90.8922 42.25V44H83.7309C77.4052 44 76.5697 43.9 76.5697 43Z" fill="#C465A0"/>
<path d="M174.201 36.15C170.74 35.8 171.695 35 175.633 34.95C179.094 34.9 181.243 34.75 181.959 34.5C183.033 34.15 186.256 34.15 185.659 34.55C185.301 34.8 186.494 35 188.165 35C189.836 35 191.03 34.8 190.672 34.55C190.194 34.3 191.269 34.35 192.94 34.65C194.61 35 195.923 35.55 195.923 35.9C195.923 36.35 193.178 36.5 186.136 36.45C180.646 36.4 175.275 36.3 174.201 36.15Z" fill="#C465A0"/>
<path d="M199.504 35.9C199.504 35 204.636 34.1 207.381 34.5C208.575 34.7 210.843 34.7 212.155 34.45C213.588 34.25 215.139 34.2 215.617 34.4C216.094 34.6 217.407 34.8 218.72 34.8C219.913 34.85 221.823 34.9 222.778 34.95C223.733 34.95 224.568 35.35 224.568 35.75C224.568 36.35 222.42 36.5 212.036 36.5C202.846 36.5 199.504 36.35 199.504 35.9Z" fill="#C465A0"/>
<path d="M256.794 35.75C256.794 35.35 257.51 35 258.345 34.95C259.061 34.95 261.329 34.8 263.358 34.7C268.49 34.3 274.697 34.9 274.697 35.75C274.697 36.35 272.787 36.5 265.745 36.5C258.584 36.5 256.794 36.35 256.794 35.75Z" fill="#C465A0"/>
<path d="M285.439 35.8C285.439 34.9 288.423 34.6 296.3 34.75C305.49 34.9 305.729 34.9 305.729 35.75C305.729 36.35 303.819 36.5 295.584 36.5C287.706 36.5 285.439 36.35 285.439 35.8Z" fill="#C465A0"/>
<path d="M330.793 35.8C330.793 34.95 335.209 34.45 338.909 34.85C343.803 35.35 342.012 36.5 336.164 36.5C332.345 36.5 330.793 36.3 330.793 35.8Z" fill="#C465A0"/>
<path d="M342.729 35.8001C342.729 34.8501 345.235 34.7001 357.051 34.8001C370.538 34.9001 370.18 34.9001 370.18 35.7501C370.18 36.3501 367.912 36.5001 356.454 36.5001C345.593 36.5001 342.729 36.3501 342.729 35.8001Z" fill="#C465A0"/>
<path d="M371.374 35.75C371.374 35.05 372.448 34.9 376.744 34.9C381.041 34.9 382.115 35.05 382.115 35.75C382.115 36.3 380.683 36.5 376.744 36.5C372.806 36.5 371.374 36.3 371.374 35.75Z" fill="#C465A0"/>
<path d="M400.019 35.75C400.019 35.35 400.735 34.95 401.57 34.95C415.654 34.4 422.696 34.7 422.696 35.8C422.696 36.35 420.189 36.5 411.357 36.5C402.048 36.5 400.019 36.35 400.019 35.75Z" fill="#C465A0"/>
<path d="M435.825 35.8001C435.825 34.7501 441.076 34.5001 454.683 34.9501C455.399 35.0001 456.115 35.3501 456.115 35.7501C456.115 36.3501 454.205 36.5001 445.97 36.5001C438.092 36.5001 435.825 36.3501 435.825 35.8001Z" fill="#C465A0"/>
<path d="M457.308 35.75C457.308 35.05 458.382 34.9 462.679 34.9C466.976 34.9 468.05 35.05 468.05 35.75C468.05 36.3 466.618 36.5 462.679 36.5C458.74 36.5 457.308 36.3 457.308 35.75Z" fill="#C465A0"/>
<path d="M485.953 35.8C485.953 34.85 489.176 34.6 500.514 34.75C514.001 34.95 513.405 34.9 513.405 35.75C513.405 36.35 511.137 36.5 499.679 36.5C488.818 36.5 485.953 36.35 485.953 35.8Z" fill="#C465A0"/>
<path d="M521.759 35.8001C521.759 34.9501 525.579 34.5501 531.904 34.7501C534.53 34.8501 537.395 34.9501 538.23 34.9501C538.946 35.0001 539.662 35.3501 539.662 35.7501C539.662 36.3501 537.872 36.5001 530.711 36.5001C523.908 36.5001 521.759 36.3501 521.759 35.8001Z" fill="#C465A0"/>
<path d="M564.727 35.7501C564.727 35.3501 565.443 35.0001 566.278 34.9501C566.994 34.9001 569.381 34.8501 571.291 34.7501C576.304 34.5501 580.243 35.0001 580.243 35.8001C580.243 36.3501 578.333 36.5001 572.485 36.5001C566.398 36.5001 564.727 36.3501 564.727 35.7501Z" fill="#C465A0"/>
<path d="M634.31 36.15C623.926 35.9 624.881 35 635.503 35C642.665 35 644.336 34.85 644.336 34.25C644.336 33.7 643.858 33.65 643.023 34C642.426 34.25 640.755 34.5 639.442 34.5C637.532 34.5 637.294 34.4 638.607 34.05C640.039 33.65 640.039 33.45 638.368 32.8C637.055 32.2 634.071 32 627.745 31.95C622.971 31.95 617.958 31.75 616.645 31.5C615.213 31.25 622.255 31.05 634.907 31.05C648.394 31 655.316 31.15 654.839 31.5C654.481 31.75 653.048 32 651.736 32C648.752 32 648.752 33.5 651.855 33.85C653.168 34 654.242 34.3 654.242 34.55C654.242 34.8 655.077 35 656.032 35C656.987 35 657.823 35.35 657.823 35.75C657.823 36.5 653.645 36.6 634.31 36.15Z" fill="#C465A0"/>
<path d="M142.811 31.5C140.901 31.3 241.875 31.1 367.196 31.1C494.308 31.1 594.088 31.25 592.775 31.5C589.791 32.05 147.704 32.05 142.811 31.5Z" fill="#C465A0"/>
<path d="M656.629 285.25C656.629 282.85 656.868 282.5 659.016 282.5C661.164 282.5 661.403 282.85 661.403 285.25C661.403 287.65 661.164 288 659.016 288C656.868 288 656.629 287.65 656.629 285.25Z" fill="#C871A6"/>
<path d="M663.79 287C663.79 286.35 664.626 286 666.177 286C667.729 286 668.564 286.35 668.564 287C668.564 287.65 667.729 288 666.177 288C664.626 288 663.79 287.65 663.79 287Z" fill="#C871A6"/>
<path d="M664.984 280.45V277.95L671.31 278.15L677.516 278.35L677.874 280.7C678.113 281.95 677.874 283 677.397 283C676.919 283 675.129 282.35 673.219 281.55L669.877 280.1L669.161 281.55C667.848 284.05 664.984 283.35 664.984 280.45Z" fill="#C871A6"/>
<path d="M88.1469 281.5C87.3114 280.1 88.505 278.5 90.4146 278.5C91.6082 278.5 92.0856 279.15 92.0856 280.5C92.0856 282.65 89.3404 283.35 88.1469 281.5Z" fill="#C871A6"/>
<path d="M656.629 279.25C656.629 278.05 656.39 278.05 646.245 277.9L635.742 277.75L635.384 275.15L635.026 272.5H639.204C643.381 272.5 643.5 272.45 643.5 270.7V268.95L649.826 269.1L656.032 269.25L656.152 271C656.39 277.65 656.51 278 659.016 278C660.807 278 661.403 278.35 661.403 279.25C661.403 280.15 660.807 280.5 659.016 280.5C657.226 280.5 656.629 280.15 656.629 279.25Z" fill="#C871A6"/>
<path d="M106.408 274.25C106.408 272.6 106.647 272.5 110.585 272.5C115.24 272.5 116.553 273.7 112.376 274.15C111.063 274.3 109.989 274.75 109.989 275.2C109.989 275.65 109.153 276 108.198 276C107.005 276 106.408 275.45 106.408 274.25Z" fill="#C871A6"/>
<path d="M622.733 267.4C623.449 265.5 625.597 263.4 627.387 262.9C628.104 262.65 627.984 262.35 626.91 262.05C623.926 261.25 626.433 260 630.968 260H635.145V263.25V266.5H630.968C627.268 266.5 626.791 266.65 626.791 267.75C626.791 268.65 626.194 269 624.404 269C622.375 269 622.136 268.75 622.733 267.4Z" fill="#C871A6"/>
<path d="M132.666 265.85C132.666 265.5 133.859 265 135.411 264.75C137.44 264.35 138.156 263.7 138.634 262L139.23 259.75L140.185 262.2C141.617 266.35 141.498 266.5 136.843 266.5C134.217 266.5 132.666 266.25 132.666 265.85Z" fill="#C871A6"/>
<path d="M141.021 259.25C141.021 258.85 141.617 258.5 142.214 258.5C142.93 258.5 143.408 258.85 143.408 259.25C143.408 259.65 142.93 260 142.214 260C141.617 260 141.021 259.65 141.021 259.25Z" fill="#C871A6"/>
<path d="M598.981 259.65C598.504 259.5 598.146 258 598.146 256.4V253.5H605.904H613.662V256.75V260H606.739C602.92 260 599.339 259.85 598.981 259.65Z" fill="#C871A6"/>
<path d="M157.73 252.15C149.375 251.6 149.375 251.6 149.375 249.25V247H154.03C156.656 247 159.52 247.35 160.595 247.75C161.549 248.15 162.862 248.5 163.578 248.5C164.295 248.5 164.891 249.05 164.891 249.75C164.891 250.55 165.607 251 166.682 251C167.636 251 168.472 251.35 168.472 251.75C168.472 252.5 164.891 252.65 157.73 252.15Z" fill="#C871A6"/>
<path d="M160.117 77.75C160.117 76.35 160.595 76 162.504 76C164.414 76 164.891 76.35 164.891 77.75C164.891 79.15 164.414 79.5 162.504 79.5C160.595 79.5 160.117 79.15 160.117 77.75Z" fill="#C871A6"/>
<path d="M592.178 73.2C592.178 72.75 591.104 72.3 589.791 72.15C585.614 71.7 586.927 70.5 591.581 70.5C595.52 70.5 595.759 70.6 595.759 72.25C595.759 73.45 595.162 74 593.969 74C593.014 74 592.178 73.65 592.178 73.2Z" fill="#C871A6"/>
<path d="M599.339 65.5C599.339 64.5 598.504 64.5 370.18 64.5C167.278 64.5 141.021 64.4 141.021 63.75C141.021 63.35 140.185 63 139.23 63C137.798 63 137.44 62.25 137.44 59.25V55.5L131.234 55.55C127.772 55.6 125.982 55.7 127.295 55.85C135.65 56.55 135.053 56.25 135.053 59.75V63H127.295H119.537V60.2V57.35L114.643 57.7C109.869 58 109.75 58 110.466 56.9C110.824 56.25 111.182 55.6 111.182 55.4C111.182 55.15 112.137 55 113.331 54.95C114.405 54.9 113.569 54.65 111.54 54.4C106.169 53.65 106.408 52.5 111.779 52.5H115.956V49V45.5H107.005C99.8436 45.5 98.0533 45.35 98.0533 44.75C98.0533 44.35 97.2178 44 96.263 44C94.9501 44 94.4727 43.4 94.4727 41.75C94.4727 39.35 93.9952 39.5 103.424 38.8C108.079 38.45 649.468 38.45 650.781 38.8C651.974 39.1 652.213 43.5 651.139 44.7C650.661 45.3 648.752 45.5 644.574 45.5H638.726V48.8C638.726 50.95 639.323 52.3 640.397 52.8C643.142 53.95 643.5 53.65 643.5 50.5V47.5H650.065H656.629V50.7V53.95H648.155C635.981 53.95 635.145 54.15 635.026 56.9C634.787 58.6 634.668 58.85 634.31 57.75C633.594 55.8 632.281 55.5 624.165 55.5H617.242V59.25C617.242 62.25 616.884 63 615.452 63C614.259 63 613.662 63.5 613.662 64.5C613.662 65.65 613.065 66 611.394 66C610.081 66 608.768 65.7 608.53 65.4C608.171 65 607.813 65.1 607.813 65.65C607.694 66.3 606.62 66.5 603.517 66.5C600.175 66.5 599.339 66.3 599.339 65.5Z" fill="#C871A6"/>
<path d="M639.681 57.15C641.113 57.05 643.262 57.05 644.455 57.15C645.529 57.3 644.336 57.3999 641.71 57.3499C639.084 57.3499 638.129 57.25 639.681 57.15Z" fill="#C871A6"/>
<path d="M98.0532 53C98.0532 52.35 98.8887 52 100.44 52C101.992 52 102.827 52.35 102.827 53C102.827 53.65 101.992 54 100.44 54C98.8887 54 98.0532 53.65 98.0532 53Z" fill="#C871A6"/>
<path d="M78.1212 43.65C77.2857 43.55 76.5696 42.65 76.5696 41.7V40H82.5373C87.0727 40 88.505 39.8 88.505 39.25C88.505 38.85 89.3404 38.5 90.2953 38.5C91.7275 38.5 92.0856 39.15 92.0856 41.25C92.0856 43.65 91.8469 44 89.6985 44C88.0275 44 87.3114 43.65 87.1921 42.9C87.1921 42.1 86.9534 42 86.4759 42.5C85.1631 43.85 81.8212 44.3 78.1212 43.65Z" fill="#C871A6"/>
<path d="M665.7 42.2C665.342 41.75 664.984 39.95 664.984 38.2V35H671.548H678.113V38.15C678.113 40.65 677.635 41.45 675.726 42.15C672.623 43.25 666.655 43.25 665.7 42.2Z" fill="#C871A6"/>
<path d="M88.5049 283V278H93.279H98.0532V273.5V269H108.795H119.537V267V265H130.279H141.021V267V269H130.279H119.537V271.5V274H114.763H109.989V276V278H104.021H98.0532V283V288H93.279H88.5049V283Z" fill="#D189B7"/>
<path d="M657.823 287.65C657.703 287.45 657.465 285.7 657.106 283.75C656.152 278.55 656.748 278 663.313 278H668.684L668.326 282.9L667.968 287.75L662.955 287.9C660.09 288 657.823 287.9 657.823 287.65Z" fill="#D189B7"/>
<path d="M651.974 276.45C654.242 275.6 654.481 275.35 653.049 275C652.094 274.7 651.855 274.5 652.571 274.5C653.287 274.5 654.719 274.85 655.555 275.3C656.868 276 656.748 276.2 654.839 276.8C651.139 277.95 648.632 277.65 651.974 276.45Z" fill="#D189B7"/>
<path d="M635.145 271.5V269H629.178H623.21V267V265H629.178H635.145V267V269H641.113H647.081V271.5V274H641.113H635.145V271.5Z" fill="#D189B7"/>
<path d="M141.021 256.75V253.5H151.166C157.133 253.5 161.311 253.3 161.311 253C161.311 252.75 158.327 252.5 154.746 252.5C149.733 252.5 148.182 252.35 148.182 251.75C148.182 251.35 147.704 251 146.988 251C146.391 251 145.795 251.25 145.795 251.5C145.795 251.8 144.721 252 143.408 252C141.021 252 141.021 251.65 141.021 157.5V63H136.008H130.875L131.234 60.55C131.711 57.9 130.279 57.25 124.788 57.7C120.372 58.05 118.94 57.3 120.73 55.55C122.163 54 122.282 54 131.592 54H140.901L141.259 58.35L141.617 62.75L372.209 62.9L602.8 63L603.278 64.15C603.755 65.25 603.755 65.25 603.994 64.05C604.113 63.05 604.591 62.9 607.575 63.1C612.229 63.4 613.662 62.05 613.662 57.5V54H624.404H635.145V49V44H641.113C646.484 44 647.081 43.85 647.797 42.75C648.155 42.05 648.274 41.15 647.797 40.75C647.2 40.1 616.646 40 382.473 39.9C95.308 39.8 112.137 39.75 107.005 40.25C105.095 40.4 102.231 40.65 100.798 40.8C97.8145 41.05 97.0984 42.4 99.4854 43.4C100.321 43.75 104.618 44 110.227 44H119.537V49V54.05L109.153 53.9L98.65 53.75L98.2919 48.85C98.0532 45.1 97.5758 44 96.2629 44C95.3081 44 94.4726 43.35 94.2339 42.4C93.9952 41.15 93.279 40.7 91.25 40.6C88.7436 40.45 88.5049 40.15 88.5049 37.7V35H378.535H668.564V37.45C668.564 38.8 668.922 40.25 669.281 40.7C669.877 41.4 670.235 41.4 671.787 40.75C672.742 40.35 674.532 40 675.845 40C677.755 40 678.113 40.35 678.113 42V44H667.371H656.629V46.5V49H651.855H647.081V51.5V54H641.113H635.145V58.5V63H624.165H613.065L613.423 159.5C613.542 224.25 613.304 256 612.468 256C611.871 256 611.275 255.8 611.275 255.5C611.275 255.25 609.126 255 606.381 255C601.488 255 601.488 255 601.965 256.65C602.323 257.5 602.8 258.6 603.039 259C603.517 259.65 577.139 259.75 372.328 259.9L141.021 260V256.75ZM592.178 161.5V72H378.535H164.891V74.9C164.891 76.45 164.891 116.5 164.891 163.9C164.891 224.45 164.533 250 163.578 250C162.982 250 162.743 250.25 163.101 250.5C163.578 250.85 236.504 251 378.057 251H592.178V161.5ZM157.73 249.7C157.73 249.2 157.133 249 155.82 249.2C154.866 249.35 154.388 249.3 154.746 249C155.104 248.7 154.866 248.5 154.269 248.5C152.479 248.5 152.598 249.85 154.508 250.15C157.133 250.6 157.73 250.5 157.73 249.7Z" fill="#D189B7"/>
<rect x="46.2546" y="26" width="647.783" height="277" rx="19" stroke="#401831" stroke-width="10"/>
<rect x="160" y="76" width="435" height="181" fill="#C465A0"/>
<path d="M235.918 214.56L212.648 163.86C212.344 163.21 212.019 162.452 211.673 161.585C211.326 160.718 211.023 159.852 210.763 158.985C210.806 159.678 210.828 160.502 210.828 161.455C210.871 162.408 210.893 163.253 210.893 163.99V213H194.058V122H210.893L233.968 173.61C234.401 174.563 234.791 175.517 235.138 176.47C235.528 177.38 235.896 178.333 236.243 179.33C236.589 178.333 236.936 177.358 237.283 176.405C237.629 175.452 237.998 174.52 238.388 173.61L261.918 122H277.713V213H260.878V163.86C260.878 163.08 260.878 162.213 260.878 161.26C260.921 160.307 260.943 159.527 260.943 158.92C260.683 159.7 260.358 160.545 259.968 161.455C259.621 162.322 259.274 163.123 258.928 163.86L235.918 214.56ZM299.048 213V122H360.538V137.99H315.883V158.01H342.338V174H315.883V196.88H363.268V213H299.048ZM379.663 213V122H395.393L431.273 175.56C431.75 176.34 432.356 177.402 433.093 178.745C433.873 180.045 434.523 181.237 435.043 182.32C434.913 181.367 434.805 180.218 434.718 178.875C434.675 177.488 434.653 176.383 434.653 175.56V122H451.423V213H436.408L399.813 159.05C399.336 158.313 398.708 157.273 397.928 155.93C397.191 154.587 396.563 153.373 396.043 152.29C396.173 153.373 396.26 154.543 396.303 155.8C396.346 157.057 396.368 158.14 396.368 159.05V213H379.663ZM508.464 214.56C500.837 214.56 494.315 213.152 488.899 210.335C483.525 207.475 479.409 203.337 476.549 197.92C473.732 192.503 472.324 185.96 472.324 178.29V122H489.159V178.29C489.159 185.18 490.697 190.25 493.774 193.5C496.85 196.75 501.747 198.375 508.464 198.375C512.71 198.375 516.264 197.703 519.124 196.36C521.984 195.017 524.129 192.872 525.559 189.925C526.989 186.935 527.704 183.057 527.704 178.29V122H544.604V178.29C544.604 184.703 543.65 190.207 541.744 194.8C539.88 199.393 537.28 203.163 533.944 206.11C530.65 209.013 526.815 211.158 522.439 212.545C518.062 213.888 513.404 214.56 508.464 214.56Z" fill="#F1D1E5"/>
</g>
<defs>
<clipPath id="clip0_6_2005">
<rect width="738" height="324" fill="white"/>
</clipPath>
</defs>
</svg>
