<svg width="322" height="324" viewBox="0 0 322 324" fill="none" xmlns="http://www.w3.org/2000/svg"><g clip-path="url(#a)"><path d="M40.5 299v-3.5l118.65.1 118.6.15.15 3.4.15 3.35H40.5z" fill="#210D19"/><path d="M36.5 294.5c0-3.65-.1-4-1-4-.75 0-1 .35-1 1.25 0 1.15-.2 1.25-2 1.25h-2v-3.25c0-3.65-.1-3.6 4.7-2.95 2.2.3 2.3.4 2.3 2 0 1.45.2 1.7 1.15 1.7 1.35 0 3.85 2.05 3.85 3.2 0 .45.25.8.5.8.3 0 .5.55.5 1.25 0 .8-.3 1.25-.75 1.25-.4 0-.75.35-.75.75 0 .6-.65.75-2.75.75H36.5zm247-5.25v-2.75h6v1.75c0 1.45-.2 1.75-1.05 1.75-.6 0-1.15.4-1.3 1-.2.75-.7 1-1.95 1h-1.7zm9-6.75c0-1.1.25-2 .5-2 .35 0 .5-39.4.5-117.15V46.2h-2.35c-2.4.05-2.4.05-2.55-1.75l-.15-1.8 5.5-.35c3.05-.2 5.75-.25 6.05-.05.35.2.5 38.3.5 121.3V284.5h-8zm-8.9-246.85.15-5.9 3.2-.15c2.25-.1 3.35.05 3.6.5.5.8.55 4.15.15 8.35l-.35 3.05h-6.9z" fill="#271C31"/><path d="M274.85 302.15c-.6-.6-.35-1.15.55-1.15.65 0 .85-.4.85-1.9v-1.85l-116.9-.15C36.05 297 41 297.1 41 294.95c0-.3-.6-1.1-1.35-1.75l-1.4-1.2-.15 1.25c-.25 1.8-1.1 1-1.1-1.05v-1.7h245.5v12h-3.65c-2.05 0-3.85-.15-4-.35" fill="#401831"/><path d="M40.1 297.75c-.55-.65-.45-.75.65-.75.8 0 1.25.3 1.25.75 0 .95-1.05.95-1.9 0m248.4-134V43h4.05c2.55 0 3.9.2 3.7.5-.15.3-1.7.5-3.35.5-1.7 0-2.9.15-2.7.35s1.35.3 2.55.2l2.25-.15v118.8c0 78.85-.15 118.8-.5 118.8-.25 0-.5.25-.5.5 0 .3.6.5 1.3.5 1.15 0 1.2.1.5.75-.5.5-1.75.75-4 .75h-3.3z" fill="#401831"/><path d="M283.45 296.4c0-1.2-.15-1.85-.3-1.5-.1.3-.65.6-1.2.6-.75 0-.95-.35-.95-1.75 0-1.2-.25-1.75-.75-1.75-.4 0-.75-.35-.75-.75s.45-.75 1-.75c.8 0 1-.35 1-1.7v-1.7l3.65-.35 3.7-.3-.25-2.5c-.2-2.05-.1-2.45.6-2.45.45 0 .8.35.8.75 0 .55.6.75 2.25.75 1.9 0 2.25.15 2.25 1 0 .65-.35 1-1 1s-1 .35-1 1c0 .55.25 1 .5 1 .8 0 .6 3.1-.3 4.05-.4.45-.9 2.15-1.05 3.75-.15 1.65-.55 3.1-.85 3.3s-2.05.4-3.9.4h-3.4zm3.05-7.9c.6-.4.55-.5-.35-.5-.65 0-1.15.25-1.15.5 0 .65.55.65 1.5 0M26 43.75c0-1.65.1-1.75 1.75-1.75s1.75.1 1.75 1.75-.1 1.75-1.75 1.75S26 45.4 26 43.75m262.5-.25c0-1.1-.2-2-.5-2-.25 0-.5-.35-.5-.75s.35-.75.75-.75c.55 0 .75-.6.8-2.1.05-2.1.05-5.75 0-6.55-.05-.25-.9-.35-1.9-.25-1.55.1-1.95.35-2.05 1.3-.25 1.75-1.35 1-1.5-1.05l-.15-1.85 4.15.15 4.15.1.35 2.75c.65 4.8.75 5 2.4 5 .8 0 1.6.25 1.75.5.15.3 1.2.5 2.3.5h1.95V42c0 2.65-.15 3.5-.7 3.5-.35 0-.8-.5-.95-1.05-.25-.95-.55-1.05-2.2-.8-1.05.2-2.95.35-4.25.35-1.8 0-2.4.2-2.4.75 0 .4-.35.75-.75.75-.55 0-.75-.55-.75-2M25.2 40.95c-.35-.6.8-9.6 1.35-10.55.25-.4 1.85-.7 4.15-.8l3.8-.2v1.8c0 1.75-.05 1.8-1.95 1.8-1.1 0-2.15.25-2.3.5-.2.3-.45 2.2-.6 4.25l-.3 3.75h-1.9c-1.05 0-2.05-.25-2.25-.55" fill="#2B304C"/><path d="M43.9 307.15c-1.35-.2-1.4-.35-1.4-3.2V301h235v6.5l-116.1-.05c-63.9-.05-116.75-.2-117.5-.3M175 30.75c0-1.65.1-1.75 1.75-1.75s1.75.1 1.75 1.75-.1 1.75-1.75 1.75-1.75-.1-1.75-1.75m72 0V29h5.5v3.5H247zm18 0V29h7.5v3.5H265z" fill="#572143"/><path d="M37.1 306.9c-.35-.35-.6-2-.6-3.95 0-2.8-.15-3.45-.85-3.65-2.2-.65-7.05-1.3-9.5-1.3H23.5v-1.75c0-1.05.25-1.75.65-1.8.3 0 .1-.2-.5-.45-1-.4-1.15-.85-1.15-3.25 0-2.1.15-2.75.75-2.75s.75-.7.75-3.25v-3.25h2.15c1.2 0 2.4.25 2.75.6s.6 1.8.6 3.2v2.65l-2.6.15c-2.6.15-2.65.2-2.8 1.8-.15 1.25.05 1.6.75 1.65 1.95.05 8.5.9 10.3 1.35 1.5.4 1.85.35 1.85-.25 0-.5-.3-.6-1-.4-1.35.45-3-.15-3-1.1 0-.5.25-.65.9-.4.45.2 1.8.5 3 .6 1.7.25 1.95.4 1.35.85s-.65 1.35-.35 4.8l.35 4.25 1.65.15c1.65.15 1.7.25 1.5 2.15-.1 1.05 0 1.95.2 1.95.25 0 .4-1 .4-2.25 0-2.95.8-2.9 1.2.05.55 4.3.65 4.2-2.6 4.2-1.6 0-3.15-.25-3.5-.6m2.4-2.25c0-.25-.25-.75-.5-1.15-.4-.6-.5-.55-.5.4 0 .6.25 1.1.5 1.1.3 0 .5-.15.5-.35m240-2.9c0-.4.3-.75.7-.75.55 0 .75-.9.9-3.6.1-2 .4-4.05.6-4.5.3-.7.2-.9-.65-.9-.95 0-1-.15-.55-1 .3-.55.9-1 1.3-1 .45 0 1.1-.35 1.5-.75.45-.4.55-.75.25-.75s-.55-.2-.55-.5c0-.25.85-.5 1.9-.45 1.45 0 1.65.1.85.4-.9.4-1 .8-.85 4.75.15 3.3.35 4.3.9 4.3.4 0 .7.35.7.75s-.2.75-.5.75c-.25 0-.5.45-.5 1 0 1.65-1.75 3-4 3-1.45 0-2-.2-2-.75m8-3.95c0-.4.55-.85 1.25-1 .7-.2 1.25-.65 1.25-1.05s.35-.75.75-.75c.5 0 .75.55.75 1.75 0 1.7-.05 1.75-2 1.75-1.4 0-2-.2-2-.7m2.7-5.4c.2-1.15.7-2.5 1.1-2.95.65-.75.65-.85-.05-1.15-.45-.15-1.25-.3-1.8-.3-.8 0-.95-.35-.95-2.7 0-3.4 1-4 1.85-1.1.45 1.65.55 1.8.6.75.05-1.5 1.35-1.95 5.6-1.95 1.85 0 2.45-.2 2.45-.75 0-.4.35-.75.75-.75.55 0 .75.6.75 2.65-.05 2.95-.65 4.05-2.6 4.55-1.25.3-1.4.55-1.4 2.5v2.15l-2.85.6c-3.9.75-3.8.8-3.45-1.55M299 40.75c0-.55-.55-.75-1.95-.75-1.1 0-2.15-.2-2.3-.5-.15-.25-1.05-.5-1.95-.5-1.5 0-1.6-.1-1.7-1.85-.1-1-.4-2.15-.65-2.45-.3-.35-.45-1.3-.35-2.05.15-1.35.1-1.4-2.45-1.55-2.15-.1-2.65 0-2.65.6 0 .65-.6.8-2.75.8h-2.75v-3.2c0-3.15 0-3.2 1.55-3.5.85-.15 2.1-.3 2.75-.3.85 0 1.2-.3 1.2-1 0-1.2 1.75-1.4 2.15-.25.2.4 1.05.9 1.95 1.15 1.45.35 1.65.65 1.8 2.25l.15 1.85h4.85l.35 3.4c.15 1.85.35 3.7.4 4.1.05.45.75.8 1.75.9 1.45.15 1.6.3 1.6 1.9 0 .95-.2 1.7-.5 1.7-.25 0-.5-.35-.5-.75m-261.85-8.6c-.75-.3-.9-3.65-.15-3.65.3 0 .55-.95.55-2.1.05-1.2.15-1.75.3-1.25.2.65.75.85 2.95.85h2.7v6.5l-2.85-.05c-1.6 0-3.2-.15-3.5-.3" fill="#313B5D"/><path d="M40.5 306.75c0-.4.35-.75.75-.75.55 0 .75-.6.75-2.5 0-2.45.05-2.5 1.5-2.5.85 0 1.5.25 1.5.5 0 .3-.25.5-.5.5-.3 0-.25.4.1 1 .35.55.95 1 1.3 1 .45 0 .6.3.4.8-.2.55.05.9.7 1.05.55.15 1 .6 1 .95 0 .55-.9.7-3.75.7-3 0-3.75-.15-3.75-.75m234 0c0-.4.35-.75.75-.75.55 0 .75-.6.75-2.45v-2.45l3.25-.2 3.3-.15-.15 3.25-.15 3.25-3.85.15c-3.25.1-3.9 0-3.9-.65M37 292.4c0-.25-.45-.3-1-.15-1.75.55-3-.15-3-1.8 0-1.3.15-1.45 1.65-1.5 1.8-.05 1.45-.2-1.25-.7-1.2-.2-1.9-.55-1.9-1 0-.6.85-.75 4-.75h4v2.65c0 2.3-.15 2.65-1.25 3.2-.75.3-1.25.35-1.25.05m-9.3-8.65c-.2-.45-.95-.75-2-.75H24V44h2c1.45 0 2-.2 2-.75 0-.4.35-.75.75-.75.65 0 .75 13.8.75 121 0 108.3-.1 121-.75 121-.45 0-.9-.35-1.05-.75m.35-246.35c.1-5.35.4-5.9 3.2-5.9 2.85 0 3.25.75 3.25 5.95v4.05h-6.55zM284 38.5c0-1.65.2-3 .5-3s.5 1.05.5 2.4c0 1.7.15 2.15.5 1.6.3-.5.5-.55.5-.1 0 .3.35.6.75.6s.75.35.75.75c0 .5-.55.75-1.75.75H284zM40.5 31.75c0-.4.35-.75.75-.75.55 0 .75-.6.75-2.5V26h239v1.65l.05 1.6.7-1.5c.35-.8.7-1.15.7-.75.05 1.35-.55 3-1 2.7-.25-.15-.45.1-.45.5 0 .45.35.8.75.8s.75.35.75.75c0 .65-13.8.75-121 .75s-121-.1-121-.75" fill="#57274C"/><path d="M133.65 306.15c.45-.1 1.25-.1 1.75 0 .45.15.05.25-.9.25s-1.35-.1-.85-.25m-95.95-.75c-.25-.35-.45-1.25-.4-2 0-.75-.15-1.25-.35-1.1-.25.15-.7-.3-1.05-1-.3-.7-.95-1.3-1.45-1.3s-1.05-.6-1.4-1.55l-.55-1.55 2.15.4c1.15.2 2.4.35 2.75.35.4 0 .6 1.05.6 3.6 0 2.1.25 3.8.6 4.15.4.4.4.6.05.6-.3 0-.75-.3-.95-.6m243.4-2.35c-.05-1.55.2-2 1.2-2.5.7-.3 1.1-.8.95-1.05-.15-.3-.05-.5.2-.5.3 0 .55-.45.55-1 0-.65.35-1 1-1 1.1 0 1.45 1.75.4 2.1-.35.15-.55.95-.5 2.05.1 1.55-.05 1.85-.9 1.85-.55 0-1 .25-1 .55s-.35.4-.8.25c-.6-.2-.75-.1-.5.45.15.4.1.75-.15.75s-.45-.85-.45-1.95M24.75 296.4c-.1-.35-.3-1.45-.45-2.45l-.3-1.85 1.75.55c1.55.45 1.65.6 1.05 1.3-.35.45-.55 1.1-.45 1.45.15.3-.2.65-.7.7s.7.2 2.6.4l3.5.3-3.4.1c-2.3.05-3.45-.1-3.6-.5m-1.4-7.1c-.2-.5-.25-1.05-.1-1.2.45-.45.85.3.65 1.25-.15.85-.2.85-.55-.05M280.9 31.15c.6-.1 1.5-.1 2 0 .45.15-.05.25-1.15.2-1.1 0-1.5-.1-.85-.2m7.9-.5c-.55-.15-.7-.4-.4-.6.25-.15.6-.85.65-1.5.15-1-.1-1.3-1.4-1.65-.9-.25-1.75-.7-1.95-1-.55-.85-1.15-5.05-.65-4.55.2.2.45 1.1.55 1.9.1 1.15.4 1.55 1.4 1.65 1.8.2 4 1.15 4 1.7 0 .25.35.4.8.3.6-.1.9.3 1.05 1.35.1.8.45 1.75.75 2.1.4.5.05.65-1.65.6-1.2-.05-2.65-.2-3.15-.3m-7.4-.9c-.15-.25 0-1.15.35-2 .35-.8.7-1.25.7-.9.05.3.2.95.4 1.45.2.55.15.75-.25.55-.3-.2-.6.05-.7.5-.1.5-.3.7-.5.4" fill="#324368"/><path d="M45.5 285.5v-4h7v8h-7zm220 0v-4h8v8h-8zM31 286.75c0-1.1.2-1.25 1.75-1.25s1.75.15 1.75 1.25-.2 1.25-1.75 1.25-1.75-.15-1.75-1.25m23.85-7.6c-.2-.15-.35-1.75-.35-3.5v-3.15h2.7c4.05 0 4.3.2 4.3 3.2 0 1.45-.25 2.85-.6 3.2-.65.65-5.5.85-6.05.25m9.3-4c-.45-.15-.65-1.85-.65-5.95v-5.75l4.4.15 4.35.15.15 1.9c.1 1.05-.05 1.85-.35 1.85-.35 0-.55 1.4-.55 3.7v3.7l-1.55.3c-1.8.35-4.9.35-5.8-.05m184.7-4.25c-.2-2-.55-3.7-.85-3.8-.25-.1-.5-.95-.5-1.9v-1.7h2.8c3.7 0 4.2.55 4.2 4.95 0 4.9-.6 6.05-3.25 6.05h-2.1z" fill="#732A56"/><path d="M37 292.45c0-.25.25-.45.5-.45.3 0 .5-.35.5-.75s.35-.75.75-.75c1.2 0 .85 1.2-.5 1.85-.7.3-1.25.35-1.25.1m-3.5-.45c-.55-.35-.25-.45 1.1-.35 1 .05 1.7.25 1.55.5-.3.5-1.75.45-2.65-.15m246-2.75v-2.75h4v-5h6.5v6.45l-2.6.15c-2.45.15-2.65.25-2.7 1.4-.05.7-.1 1.5-.15 1.75 0 .3-1.2.55-2.55.65l-2.5.15zm-251.6-3.6c-.35-4-.2-4.15 3.4-4.15h3.2v6.5h-6.4zm.1-242.7V40h2.5c1.9 0 2.5-.2 2.5-.75 0-1.35.85-.75 1.2.8.8 4.2.2 5.2-3.6 5.55l-2.6.25zM283.5 42c0-2.8.15-3.5.75-3.5.4 0 .75.35.75.75 0 .55.6.75 2.5.75h2.5v5.5h-6.5zM33 35.6c0-.5-.35-1.35-.75-1.95-.75-1.1-2.25-1.1-3.6 0-.85.65-.85-.2 0-1.35.55-.75 1.75-.95 7.75-1.15l7.1-.3v5.65h-5.25c-4.7 0-5.25-.1-5.25-.9m246.5-1.35c0-1.25-.2-2.25-.5-2.25-.25 0-.5-.2-.5-.5s1.4-.5 3.25-.5H285v5.5h-5.5z" fill="#5B406F"/><path d="M267 289.95c-1.65-.3-45.8-.4-112.15-.35l-109.35.15v-1.6c0-1.15.25-1.65.75-1.65.4 0 .75.35.75.75 0 .55.55.75 2 .75h2v-5h-2c-1.45 0-2 .2-2 .75 0 .4-.35.75-.75.75-.6 0-.75-.65-.75-3v-3h1.75c1.05 0 1.75.25 1.75.65 0 .35.15.4.4.1.2-.25 1.35-.85 2.6-1.25 2.2-.75 2.25-.75 2.1-2.85s-.15-2.15 1.3-2.15c2.95 0 3.1-.2 3.1-5.05v-4.45h4c3.2 0 4 .15 4 .75 0 .4-.35.75-.75.75-.6 0-.75.8-.75 4.2 0 4.7.3 5.05 3.3 4.5l1.7-.3v-3.7c0-2.25.2-3.7.55-3.7.25 0 .35-.2.2-.5-.15-.25-.75-.5-1.25-.5-.65 0-.85-.25-.7-.75.25-.65 11.05-.75 93-.75h92.7v4h5v5h8.85l.35 3.9c.15 2.1.45 4.45.6 5.25.3 1.2.15 1.35-1 1.35-1.25 0-1.3.15-1.3 2.5v2.5h2.5c1.9 0 2.5-.2 2.5-.75 0-.4.35-.75.8-.75.6 0 .7.45.6 1.9-.15 1.75-.25 1.85-1.9 1.95-.95 0-3-.15-4.5-.4M59.4 277.4c.85-.85.75-2.75-.2-3.1-.45-.15-1.35-.3-2-.3-1.05 0-1.2.25-1.2 1.65 0 .95.15 1.85.35 2 .55.55 2.4.4 3.05-.25m192.9-11.65c-.4-.4-1.35-.7-2.15-.7-.9.05-1.1.15-.5.3.7.2.85.55.65 1.4-.15.65-.05 1.35.2 1.5.3.2.4.55.25.8s.05.3.45.15c.45-.15.85.15 1.15.9.35.95.45.75.55-1.25.1-1.6-.1-2.6-.6-3.1M28 44.5c0-.9.2-1 1.75-.7 1.8.3 3.65-.75 3-1.8-.5-.85.25-3.5 1.05-3.5.55 0 .7.8.7 3.5v3.5h-3.25c-2.95 0-3.25-.1-3.25-1" fill="#812F60"/><path d="M42 291.65c-1.3-.5-1.5-1.25-1.5-5.45 0-4.5.15-4.7 3.3-4.7h1.7v-5h2c1.95 0 2-.05 2-1.7 0-2.05.5-2.3 4.8-2.3 2.4 0 3.2.15 3.2.7 0 .35-.4.8-.95.95-.7.15-.85.55-.7 1.55.35 1.65-.25 3.95-.85 3.55-.3-.15-.5-.1-.5.15s-.7.45-1.5.5c-1.8.05-3.5 1.45-2.55 2.1.45.25.1.45-.9.6-1.15.15-1.55.05-1.55-.55 0-.45-.25-1.15-.5-1.55-.35-.5-.5.65-.5 3.7v4.45l3.2-.35c3.25-.3 214.95-.4 218.4-.05 1 .1 2.1.3 2.4.5.35.2.7-.1.85-.7.35-1.3 1.65-1.4 1.65-.1 0 .5.15 1.65.3 2.5l.3 1.55-115.65-.05c-63.65 0-116.05-.15-116.45-.3m233.3-.45c-.45-.45-.8-1.6-.8-2.75v-1.95h4c3.2 0 4 .15 4 .75 0 .4-.35.75-.75.75-.55 0-.75.55-.75 2v2h-2.45c-1.6 0-2.75-.3-3.25-.8m-3.3-7.45c0-.55-.55-.75-1.85-.75-1.05 0-2.15-.2-2.45-.4s-.55-1.65-.6-3.2l-.05-2.9h6.45v4c0 3.2-.15 4-.75 4-.4 0-.75-.35-.75-.75m-234.5-10.3c0-1.5.95-2.95 1.95-2.95.3 0 .55-.45.55-1 0-.8.35-1 1.75-1h1.75v6.5h-6zM258 273c0-.65.35-1 1-1s1 .35 1 1-.35 1-1 1-1-.35-1-1m-5-5.25c0-.9.25-1.25 1-1.25s1 .35 1 1.25-.25 1.25-1 1.25-1-.35-1-1.25m17.75-204.4c-.2-.6-.25-2.4-.15-3.9l.15-2.7 2.8-.15c3.6-.2 4.05.35 3.85 4.5l-.15 3.15-3.1.15c-2.9.15-3.15.05-3.4-1.05" fill="#90346B"/><path d="M40.5 289.75c0-2.5 1.15-3.2 1.7-1 .2.7.55 1.25.85 1.25.25 0 .95.4 1.45.9 1 .9.95.9-1.5 1.05l-2.5.1zm231.9 1.95c-.25-.2-.4-1.55-.4-3.05v-2.7l2.65.35c1.4.2 2.7.5 2.85.75.15.2 1.4.45 2.75.6 2.2.15 2.1.2-.85.25-1.9.05-3.4.3-3.4.6s.45.5 1 .5 1 .25 1 .5c0 .3.5.5 1.15.5.9 0 .95-.1.35-.5s-.55-.5.4-.5c.85 0 1.1.3 1.1 1.25s-.25 1.25-1.1 1.25c-.65 0-2.5.1-4.15.3-1.65.15-3.15.1-3.35-.1m-231.55-6.55c-.2-.15-.35-1.05-.35-2 0-1.6.05-1.65 2-1.65 1.45 0 2 .2 2 .75 0 .4-.35.75-.75.75s-.75.25-.75.55c0 .25-.2.35-.5.2-.25-.15-.5.15-.5.7 0 1.05-.55 1.35-1.15.7m9-9c-.2-.15-.35-1.05-.35-2 0-1.6.05-1.65 2-1.65 1.45 0 2 .2 2 .75 0 .4-.35.75-.75.75s-.75.25-.75.55c0 .25-.2.35-.5.2-.25-.15-.5.15-.5.7 0 1.05-.55 1.35-1.15.7M31.5 271.5v-4h11.95v8H31.5zm9.35 1.15c0-.85-.25-.8-1.15.05-.6.65-.6.75.2.65.5 0 .95-.35.95-.7m1-1.75c-.1-.65-.2-.25-.2.85-.05 1.1.05 1.6.2 1.15.1-.5.1-1.4 0-2m233.3 4.3c-.4-.2-.65-1.2-.65-2.5 0-2-.1-2.2-1.2-2.2-2.7 0-2.8-.2-2.8-6.35v-5.7l3.4.15 3.35.15.15 4.4.15 4.35h9l-.15 3.9-.15 3.85-5.25.1c-2.9.05-5.55-.05-5.85-.15m-16.8-1.55c-.2-.15-.35-1.3-.35-2.5V269h-2.2c-2.3 0-2.8-.45-2.8-2.8 0-.75-.3-1.2-.75-1.2-.4 0-.75-.35-.75-.75 0-.6.8-.75 4-.75h4v4h2c1.85 0 2 .1 2 1.4 0 .75-.15 2.2-.3 3.25-.3 1.8-.4 1.85-2.45 1.85-1.15 0-2.25-.15-2.4-.35M49.7 245.4c.1-6.15.4-11.65.6-12.25.25-.95.7-1.15 2.25-1.15 1.4 0 1.95.2 1.95.75 0 .4.3.75.65.75 1.6 0 2.1 2.15 2.15 9.1.05 4.55.25 7.1.65 7.6.35.4.55 1.8.45 3.4l-.15 2.65-4.4.15-4.4.15zm3.05-163.9c-.15-.25-.75-.5-1.25-.5-1.35 0-2.1-4.1-1.9-10.25l.15-5 3.9-.15 3.85-.15v4.45c0 2.45-.15 6.15-.3 8.25L56.85 82h-1.9c-1.05 0-2.05-.2-2.2-.5M41.1 64.9c-.35-.35-.6-1.9-.6-3.5 0-2.9 0-2.9-1.5-2.9-1.45 0-1.5-.05-1.5-2.45 0-2.75.35-3.05 3.5-3.05 1.85 0 1.95.1 2.3 1.75.3 1.7.35 1.75 2.75 1.75h2.45v3.9c0 2.35-.25 4.15-.6 4.5s-1.85.6-3.4.6-3.05-.25-3.4-.6m229.75-.25c-.2-.15-.35-1.2-.35-2.25 0-2.2 1.2-2.65 1.7-.65.25 1 .65 1.25 1.85 1.25 1.1 0 1.6-.25 1.8-1 .15-.55.6-1 .95-1 1 0 .95 3.3-.1 3.7s-5.45.4-5.85-.05" fill="#9C3974"/><path d="M275.75 59.4c-.7-1.6-3.2-1.9-3.6-.45-.45 1.75-1.65 1.25-1.65-.7V56.5h7v2c0 2.25-.95 2.7-1.75.9M30.5 45c0-.75.35-1 1.25-1 .8 0 1.25-.3 1.25-.75 0-.4.35-.75.75-.75.5 0 .75.55.75 1.75 0 1.7-.05 1.75-2 1.75-1.65 0-2-.15-2-1m253-.75c0-1.2.25-1.75.75-1.75.4 0 .75.35.75.75 0 .45.45.75 1.25.75.9 0 1.25.25 1.25 1 0 .85-.35 1-2 1-1.95 0-2-.05-2-1.75" fill="#9C3974"/><path d="M38 290c0-1.45-.2-2-.75-2-.4 0-.75-.35-.75-.75 0-.6.65-.75 2.75-.75H42v5.5h-4zm234.35-2.35c-.2-.15-.35-1.65-.35-3.25v-2.9h5.5v6.5h-2.4c-1.35 0-2.6-.15-2.75-.35M33 283.75c0-.55-.6-.75-2.5-.75H28V43.85l2.5.25c2.15.2 2.5.15 2.5-.65 0-.6.25-.8.7-.65s.8 1.15.9 2.35l.15 2.1 4.4.15 4.35.15v3.35c0 1.85.15 4.2.3 5.25.3 1.65.2 1.85-.75 1.85-.9 0-1.05.3-1.05 2.4 0 2.7.6 3.6 2.5 3.6s2.5-.9 2.5-3.6c0-1.8-.2-2.4-.75-2.4-.4 0-.75-.35-.75-.75 0-.6.7-.75 3.5-.75h3.5v5h2.75c2.7 0 2.75 0 2.75 1.5 0 1.4.15 1.5 1.75 1.5h1.75v194h194v1.7c0 .95-.2 1.9-.5 2.05-.25.15-.5.85-.5 1.55v1.2h-97.25c-86.1 0-97.25.1-97.25.75 0 .4-.35.75-.75.75-.55 0-.75-.6-.75-2.5v-2.5h-6v5h-1.75c-1.7 0-1.75.05-1.75 2v2h-3.5c-2.8 0-3.5-.15-3.5-.75s-.85-.75-4.5-.75H33v5h4.5c3.65 0 4.5-.15 4.5-.75 0-.4.35-.75.75-.75.5 0 .75.5.75 1.7 0 1.5-.2 1.75-1.35 1.95-.8.1.35.25 2.5.3 3.05.05 3.85.2 3.85.8 0 .4-.35.75-.75.75-.55 0-.75.6-.75 2.5v2.5h-2.5c-1.9 0-2.5.2-2.5.75 0 .4-.35.75-.75.75-.6 0-.75-.7-.8-3.1 0-1.75-.15-2.85-.3-2.5s-1.25.6-2.95.6h-2.7v2.5c0 1.9-.2 2.5-.75 2.5-.4 0-.75-.35-.75-.75m23.9-30.1c.1-.6-.3-1.75-.85-2.5-.85-1.2-.95-1.75-.55-3.65.5-2.55.55-7.5.05-9.75-.2-1.05-.65-1.55-1.45-1.65-.8-.15-1.1-.5-1.1-1.4 0-.65-.2-1.2-.45-1.2-.85 0-1.15 2.8-1.3 12.15l-.15 9.4 2.8-.15c2.5-.15 2.85-.3 3-1.25m-1.2-177c.15-2.1.3-5.15.3-6.75v-2.95l-2.35.15-2.4.15-.15 3.5c-.25 4.7.65 8.75 1.9 8.75.5 0 1.1.25 1.25.5.75 1.2 1.1.25 1.45-3.35m-14.1-20.9c-.25-1.35-.35-1.4-1.55-1-.6.2-1.05.75-1.05 1.3 0 .8.3 1 1.4.85 1.05-.1 1.3-.4 1.2-1.15M283.5 282v-2.5h-1.75c-1.65 0-1.75-.1-1.75-1.75 0-1.4.2-1.75 1-1.75.65 0 1-.35 1-1 0-.75.35-1 1.3-1 .85 0 1.4-.3 1.55-1 .15-.55.6-1 .95-1 .9 0 .95 3.8.1 4.15-.35.15.4.3 1.75.3l2.35.05v6.5h-2.5c-1.9 0-2.5.2-2.5.75 0 .4-.35.75-.75.75-.55 0-.75-.6-.75-2.5m-8.65-5.85c-.2-.15-.35-1.2-.35-2.25 0-1.35.2-1.9.75-1.9.4 0 .75.35.75.75s.25.8.5.8c.3.05.75.15 1 .2.3.05.85.15 1.25.2.45.05.75.55.75 1.3 0 1.15-.2 1.25-2.15 1.25-1.2 0-2.35-.15-2.5-.35" fill="#AC4080"/><path d="M49.5 273.2v-2.25l1.9.15c1.6.15 1.85.35 2 1.55.15 1.15 0 1.35-1.1 1.35-.8 0-1.3.3-1.3.75 0 .4-.35.75-.75.75-.55 0-.75-.6-.75-2.3m217.5 1.55c0-.55-.55-.75-2.1-.75-1.2 0-3.05-.15-4.15-.35-1.75-.3-1.85-.35-.75-.65.85-.2 1.25-.65 1.25-1.35 0-.6.2-1.25.4-1.45.65-.65.35-1.2-.65-1.2-.65 0-.9-.25-.7-.75.2-.55 1.05-.75 2.75-.75h2.45v-6h-5l.1-98.1.15-98.15 2.4-.15 2.35-.15V56.5h5v-4h4v-5h9v-2.2c0-1.5.25-2.3.75-2.5.5-.15.75.05.75.65 0 .8.35.85 2.5.65l2.5-.25v6.65h-3.5v110c0 97.45-.1 110-.75 110-.4 0-.75-.35-.75-.75 0-.6-.75-.75-3.7-.75-4.1 0-5.3.3-5.3 1.25 0 .45-.95.55-3.75.35l-3.75-.25v2.6c0 1.95-.2 2.55-.75 2.55-.4 0-.75-.35-.75-.75m8-6.3c0-.25.25-.35.5-.2.35.25.5-1.05.4-3.85l-.15-4.15-1.85-.15-1.9-.15v4.3c0 2.75.2 4.2.5 4 .3-.15.5-.05.5.2 0 .3.45.55 1 .55s1-.25 1-.55m.2-205.25c.6-.2.8-1 .8-2.75V58h-4v2.4c0 1.35.15 2.6.35 2.75.4.45 1.8.45 2.85.05M54 272.5c0-.8-.2-1.5-.5-1.5-.25 0-.5-.8-.5-1.75v-1.75h7v6.5h-6zM33 38.25V35h6.5v6.5H33z" fill="#AC4080"/><path d="M33 284.75v-3.25h6.5v6.5H33zm243-1c0-.55-.55-.75-2-.75h-2v-2.5c0-1.9-.2-2.5-.75-2.5-.4 0-.75-.35-.75-.75 0-.55.55-.75 2-.75 1.95 0 2-.05 2-1.75 0-1.95 1.2-2.5 1.65-.75.25 1.05 1.85 1.4 1.85.45 0-.4 1.1-.5 3.5-.35l3.5.25V49h-4.5c-3.65 0-4.5.15-4.5.75 0 .4-.35.75-.75.75-.6 0-.75-.8-.75-4v-4h10.45l.15 3.15.15 3.1 2.25.05 2.25.05.15 113.95c.05 62.65 0 114.45-.15 115.1-.25.95-.45 1.05-1.25.6-1.45-.75-3.5-.65-3.5.25 0 .6-.75.75-3.75.75h-3.75v2.5c0 1.9-.2 2.5-.75 2.5-.4 0-.75-.35-.75-.75M33 279c0-.65.35-1 1-1s1 .35 1 1-.35 1-1 1-1-.35-1-1m4-.25c0-.4.3-.75.65-.75.95 0 1.85-2.15 1.3-3.1-.35-.6-.1-.75 1.3-.65 1.4.05 1.75-.1 1.75-.9 0-.5.25-.85.65-.75.35.15.65 1.3.75 2.8.1 2.1 0 2.6-.6 2.6-.45 0-.8.35-.8.75 0 .55-.6.75-2.5.75s-2.5-.2-2.5-.75m8.5-2.9c0-2.5.65-3.35 2.6-3.35 1.05 0 1.4-.25 1.4-1 0-.8-.35-1-1.7-1-1.05 0-1.8-.3-2-.75-.15-.5.05-.75.7-.75.8 0 .9-.25.7-1.6-.15-.9-.05-2.2.25-2.9.35-.9.5-1 .5-.35.05 1.1 3.05 1.25 3.05.1 0-.4.35-.75.75-.75.55 0 .75.55.75 2 0 1.95.05 2 1.65 2 .9 0 2.1.35 2.65.75.9.7.85.7-.8.75-1.45 0-1.6.1-.9.55.65.35.85 1.05.8 2.45-.05 1.95-.1 2-1.8 2-1.05 0-2-.35-2.4-.85-.6-.8-.65-.5-.7 2V278h-5.5zM267 269.8c0-.45-.35-.8-.75-.8-.8 0-.95-.85-.45-2.2.45-1.25 1.1-.95 1.3.6.1.95.45 1.4 1.3 1.5 1.4.2 1.2 1.3-.3 1.5-.75.1-1.1-.1-1.1-.6m-9-4.05c0-.55-.6-.75-2.5-.75H253v-1.9c0-1.05.25-2.15.6-2.5.45-.45.3-.6-.8-.6-1.2 0-1.35-.1-.8-.75.35-.45 1.45-.75 2.55-.75h1.95v-97.55c0-66.25.15-97.85.5-98.5.45-.85 1.1-.95 5.25-.95H267v4.95l-2.35.15-2.4.15-.15 96.65c-.1 85.65 0 96.6.65 96.6.4 0 .75.35.75.75 0 .55-.55.75-2 .75h-2v2.5c0 1.9-.2 2.5-.75 2.5-.4 0-.75-.35-.75-.75M60 67.15c0-.8-.2-1.15-.4-.85s-1 .55-1.85.5c-1.4-.05-1.5-.15-1.35-1.9.15-1.45 0-1.9-.6-1.9-.45 0-.8-.35-.8-.75 0-.6.7-.75 3.25-.75h3.25v2.7c0 1.5-.15 3.05-.3 3.5-.5 1.25-1.2.95-1.2-.55m205.5-9.4c0-1.65.1-1.75 1.75-1.75 1.4 0 1.75.2 1.75 1 0 .65-.35 1-1 1-.55 0-1 .35-1 .75s-.35.75-.75.75c-.5 0-.75-.55-.75-1.75M42.3 57.2c-.15-.45-.3-1.65-.3-2.75V52.5h6.5V58h-2.95c-2.2 0-3-.2-3.25-.8" fill="#BE5494"/><path d="M270.5 55.55V53h2c1.1 0 2 .25 2 .5 0 .3-.6.5-1.35.5-1.1 0-1.25.1-.65.5.55.35.6.5.1.5-.45 0-.6.5-.5 1.35.1 1-.1 1.45-.7 1.55-.75.15-.9-.2-.9-2.35M42 49.75c0-.55-.95-.75-4.35-.85l-4.4-.15-.15-3.1-.15-3.15H43.5v4c0 3.2-.15 4-.75 4-.4 0-.75-.35-.75-.75m-1.5-14c0-.4.35-.75.75-.75.55 0 .75-.55.75-2v-2h114.2c90.9 0 114.3.15 114.5.6.25.5.35.5.6.05.2-.45 1.7-.65 5-.65h4.7v2c0 1.45.2 2 .75 2 .4 0 .75.35.75.75 0 .6-.85.75-4.45.75-3.1 0-4.55-.2-4.75-.6-.25-.5-.35-.5-.6-.05-.2.5-24.2.65-116.25.65C54 36.5 40.5 36.4 40.5 35.75" fill="#BE5494"/><path d="M279.6 283.5c.15-5.05.45-5.5 3.45-5.5h1.85l.05 5 .05 5h-5.6zm-241.6.25c0-.55-.6-.75-2.55-.75h-2.5l.15-2.35.15-2.4 3.15-.15 3.1-.15v3.3c0 2.55-.15 3.25-.75 3.25-.4 0-.75-.35-.75-.75m7.6-8.35.15-2.65 2.65-.15 2.65-.15-.1 2.75c-.1 2.7-.15 2.8-1.55 2.8-1.25 0-1.4-.15-1.4-1.7 0-.95.3-1.85.65-1.95.35-.2.4-.3.05-.3-1-.1-1.85 1.4-1.6 2.7.2 1 .05 1.25-.7 1.25-.85 0-.95-.3-.8-2.6M267 277c0-.65.35-1 1-1s1 .35 1 1-.35 1-1 1-1-.35-1-1m4-4.75c0-2.15.05-2.25 1.5-2.25.85 0 1.5-.2 1.5-.5 0-.25.45-.5 1-.5.9 0 1 .35 1 2.75v2.75h-5zm-13-7.75c0-3.65-.15-4.5-.75-4.5-.4 0-.75-.35-.75-.75s.35-.75.75-.75.75.35.75.75c0 .55.85.75 3.65.85l3.6.15.15 1.95c.1 1.05 0 2.1-.25 2.25-.75.55-1.65 2.5-1.65 3.55 0 .9-.35 1-2.75 1H258zm-207-1.25V260h4.5c3.65 0 4.5-.15 4.5-.75 0-.4.35-.75.75-.75s.75.35.75.75-.35.75-.75.75c-.5 0-.75.8-.85 3.15l-.15 3.1-4.35.15-4.4.15zM68.5 74v-3.5l90.9.1 90.85.15v3.2q0 3.225-.6 3.45c-.35.1-.65-.2-.65-.75 0-.85-3-.9-89.35-.8-79.3.15-89.4.2-89.55.9-.1.4-.5.75-.9.75-.55 0-.7-.8-.7-3.5m188-10.25V61.5h2c1.45 0 2 .2 2 .75 0 .4-.35.75-.8.75s-1.05.7-1.35 1.5c-.85 2.3-1.85 1.9-1.85-.75m-205.5-5c0-.55-.55-.75-2-.75h-2v-2c0-1.45-.2-2-.75-2-.4 0-.75-.35-.75-.75 0-.8 1.8-1 3.9-.45.8.25 1.1.7 1.1 1.75 0 1.1.25 1.45 1 1.45.8 0 1 .35 1 1.75 0 1.2-.25 1.75-.75 1.75-.4 0-.75-.35-.75-.75m214.85.4c-.2-.15-.35-1.6-.35-3.2 0-3.3-.15-3.2 5.4-3.7 3.45-.35 3.6-.3 3.6.7 0 .8-.3 1.05-1.25 1.05-1.15 0-1.25.2-1.25 2.05v2.05l-2.5-.2c-2.1-.1-2.5 0-2.5.75 0 .85-.55 1.1-1.15.5M33 43c0-.75.35-1 1.25-1 .8 0 1.25-.3 1.25-.75 0-.5.55-.75 1.75-.75 1.65 0 1.75.1 1.75 1.75V44h-3c-2.65 0-3-.1-3-1m40.9-6.85c-1.45-.35-1.05-1.15.6-1.2 1.45-.05 2.35-.2 2.65-.45.45-.35 1.8-.35 1.55.05-.15.25.35.45 1.05.45s1.2-.2 1.05-.45c-.2-.25.25-.2.95.1.7.35 1.25.9 1.25 1.25 0 .45-1.15.6-4.1.55-2.3-.05-4.55-.15-5-.3m10.6-.25c0-.9 2.15-1.8 3.3-1.4.5.2 1.45.2 2-.05.6-.2 1.25-.25 1.45-.05s.75.4 1.3.4c.5.05 1.3.1 1.7.15.4 0 .75.4.75.8 0 .6-.9.75-5.25.75-3.85 0-5.25-.15-5.25-.6m24-.15c0-.4.3-.75.65-.8.3 0 1.25-.15 2.1-.25 2.15-.4 4.75.2 4.75 1.05 0 .6-.8.75-3.75.75-3 0-3.75-.15-3.75-.75m12 .05c0-.9 1.25-1.2 4.55-1.05 3.85.15 3.95.15 3.95 1 0 .6-.8.75-4.25.75-3.3 0-4.25-.15-4.25-.7m19 0c0-.85 1.85-1.35 3.4-.95 2.05.5 1.3 1.65-1.15 1.65-1.6 0-2.25-.2-2.25-.7" fill="#C465A0"/><path d="M144.5 35.8c0-.95 1.05-1.1 6-1 5.65.1 5.5.1 5.5.95 0 .6-.95.75-5.75.75-4.55 0-5.75-.15-5.75-.7m12-.05c0-.7.45-.85 2.25-.85s2.25.15 2.25.85c0 .55-.6.75-2.25.75s-2.25-.2-2.25-.75m12 0c0-.4.3-.8.65-.8 5.9-.55 8.85-.25 8.85.85 0 .55-1.05.7-4.75.7-3.9 0-4.75-.15-4.75-.75m15 .05c0-1.05 2.2-1.3 7.9-.85.3.05.6.4.6.8 0 .6-.8.75-4.25.75-3.3 0-4.25-.15-4.25-.7m9-.05c0-.7.45-.85 2.25-.85s2.25.15 2.25.85c0 .55-.6.75-2.25.75s-2.25-.2-2.25-.75m12 .05c0-.95 1.35-1.2 6.1-1.05 5.65.2 5.4.15 5.4 1 0 .6-.95.75-5.75.75-4.55 0-5.75-.15-5.75-.7m15 0c0-.85 1.6-1.25 4.25-1.05 1.1.1 2.3.2 2.65.2.3.05.6.4.6.8 0 .6-.75.75-3.75.75-2.85 0-3.75-.15-3.75-.7m18-.05c0-.4.3-.75.65-.8.3-.05 1.3-.1 2.1-.2 2.1-.2 3.75.25 3.75 1.05 0 .55-.8.7-3.25.7-2.55 0-3.25-.15-3.25-.75m29.15.4c-4.35-.25-3.95-1.15.5-1.15 3 0 3.7-.15 3.7-.75 0-.55-.2-.6-.55-.25-.25.25-.95.5-1.5.5-.8 0-.9-.1-.35-.45.6-.4.6-.6-.1-1.25-.55-.6-1.8-.8-4.45-.85-2 0-4.1-.2-4.65-.45-.6-.25 2.35-.45 7.65-.45 5.65-.05 8.55.1 8.35.45-.15.25-.75.5-1.3.5-1.25 0-1.25 1.5.05 1.85.55.15 1 .45 1 .7s.35.45.75.45.75.35.75.75c0 .75-1.75.85-9.85.4M60.75 31.5c-.8-.2 41.5-.4 94-.4 53.25 0 95.05.15 94.5.4-1.25.55-186.45.55-188.5 0" fill="#C465A0"/><path d="M276 285.25c0-2.4.1-2.75 1-2.75s1 .35 1 2.75-.1 2.75-1 2.75-1-.35-1-2.75m3 1.75c0-.65.35-1 1-1s1 .35 1 1-.35 1-1 1-1-.35-1-1m.5-6.55v-2.5l2.65.2 2.6.2.15 2.35c.1 1.25 0 2.3-.2 2.3s-.95-.65-1.75-1.45l-1.4-1.45-.3 1.45c-.55 2.5-1.75 1.8-1.75-1.1M37.85 281.5c-.35-1.4.15-3 .95-3 .5 0 .7.65.7 2 0 2.15-1.15 2.85-1.65 1M276 279.25c0-1.2-.1-1.2-4.35-1.35l-4.4-.15-.15-2.6-.15-2.65h1.75c1.75 0 1.8-.05 1.8-1.8v-1.75l2.65.15 2.6.15.05 1.75c.1 6.65.15 7 1.2 7 .75 0 1 .35 1 1.25s-.25 1.25-1 1.25-1-.35-1-1.25m-230.5-5c0-1.65.1-1.75 1.75-1.75 1.95 0 2.5 1.2.75 1.65-.55.15-1 .6-1 1.05s-.35.8-.75.8c-.5 0-.75-.55-.75-1.75m216.3-6.85c.3-1.9 1.2-4 1.95-4.5.3-.25.25-.55-.2-.85-1.25-.8-.2-2.05 1.7-2.05H267v6.5h-1.75c-1.55 0-1.75.15-1.75 1.25 0 .9-.25 1.25-1 1.25-.85 0-.95-.25-.7-1.6m-205.3-1.55c0-.35.5-.85 1.15-1.1.85-.4 1.15-1.05 1.35-2.75l.25-2.25.4 2.45c.6 4.15.55 4.3-1.4 4.3-1.1 0-1.75-.25-1.75-.65m3.5-6.6c0-.4.25-.75.5-.75.3 0 .5.35.5.75s-.2.75-.5.75c-.25 0-.5-.35-.5-.75m191.85.4c-.2-.15-.35-1.65-.35-3.25v-2.9h6.5v6.5h-2.9c-1.6 0-3.1-.15-3.25-.35M67 252.15c-3.5-.55-3.5-.55-3.5-2.9V247h1.95c1.1 0 2.3.35 2.75.75.4.4.95.75 1.25.75s.55.55.55 1.25c0 .8.3 1.25.75 1.25.4 0 .75.35.75.75 0 .75-1.5.9-4.5.4m1-174.4c0-1.4.2-1.75 1-1.75s1 .35 1 1.75-.2 1.75-1 1.75-1-.35-1-1.75m181-4.55c0-.45-.45-.9-1-1.05-1.75-.45-1.2-1.65.75-1.65 1.65 0 1.75.1 1.75 1.75 0 1.2-.25 1.75-.75 1.75-.4 0-.75-.35-.75-.8m3-7.7c0-1-.35-1-96-1-85 0-96-.1-96-.75 0-.4-.35-.75-.75-.75-.6 0-.75-.75-.75-3.75V55.5l-2.6.05c-1.45.05-2.2.15-1.65.3 3.5.7 3.25.4 3.25 3.9V63H51v-5.65l-2.05.35c-2 .3-2.05.3-1.75-.8.15-.65.3-1.3.3-1.5 0-.25.4-.4.9-.45.45-.05.1-.3-.75-.55-2.25-.75-2.15-1.9.1-1.9h1.75v-7h-3.75c-3 0-3.75-.15-3.75-.75 0-.4-.35-.75-.75-.75-.55 0-.75-.6-.75-2.25 0-2.4-.2-2.25 3.75-2.95 1.95-.35 228.75-.35 229.3 0 .5.3.6 4.7.15 5.9-.2.6-1 .8-2.75.8h-2.45v3.3c0 2.15.25 3.5.7 4 1.15 1.15 1.3.85 1.3-2.3v-3h5.5v6.45h-3.55c-5.1 0-5.45.2-5.5 2.95-.1 1.7-.15 1.95-.3.85-.3-1.95-.85-2.25-4.25-2.25h-2.9v3.75c0 3-.15 3.75-.75 3.75q-.75 0-.75 1.5c0 1.15-.25 1.5-.95 1.5-.55 0-1.1-.3-1.2-.6-.15-.4-.3-.3-.3.25-.05.65-.5.85-1.8.85-1.4 0-1.75-.2-1.75-1" fill="#C871A6"/><path d="M268.9 57.15c.6-.1 1.5-.1 2 0 .45.15-.05.25-1.15.2-1.1 0-1.5-.1-.85-.2M42 53c0-.65.35-1 1-1s1 .35 1 1-.35 1-1 1-1-.35-1-1m-8.35-9.35c-.35-.1-.65-1-.65-1.95V40h2.5c1.9 0 2.5-.2 2.5-.75 0-.4.35-.75.75-.75.6 0 .75.65.75 2.75 0 2.4-.1 2.75-1 2.75-.7 0-1-.35-1.05-1.1 0-.8-.1-.9-.3-.4-.55 1.35-1.95 1.8-3.5 1.15M279.8 42.2c-.15-.45-.3-2.25-.3-4V35h5.5v3.15c0 2.5-.2 3.3-1 4-1.3 1.1-3.8 1.1-4.2.05" fill="#C871A6"/><path d="M38 283v-5h4v-9h9v-4h9v4h-9v5h-4v4h-5v10h-4zm238.5 4.65c-.05-.2-.15-1.95-.3-3.9-.4-5.2-.15-5.75 2.6-5.75h2.25l-.15 4.9-.15 4.85-2.1.15c-1.2.1-2.15 0-2.15-.25m-2.45-11.2c.95-.85 1.05-1.1.45-1.45-.4-.3-.5-.5-.2-.5s.9.35 1.25.8c.55.7.5.9-.3 1.5-1.55 1.15-2.6.85-1.2-.35M267 271.5V269h-5v-4h5v4h5v5h-5zM60 256.75v-3.25h4.25c2.5 0 4.25-.2 4.25-.5 0-.25-1.25-.5-2.75-.5-2.1 0-2.75-.15-2.75-.75 0-.4-.2-.75-.5-.75-.25 0-.5.25-.5.5 0 .3-.45.5-1 .5-1 0-1-.35-1-94.5V63h-4.25l.15-2.45c.2-2.65-.4-3.3-2.7-2.85-1.85.35-2.45-.4-1.7-2.15.6-1.55.65-1.55 4.55-1.55h3.9l.15 4.35.15 4.4 96.6.15 96.6.1.2 1.15c.2 1.1.2 1.1.3-.1.05-1 .25-1.15 1.5-.95 1.95.3 2.55-1.05 2.55-5.6V54h9V44h2.5c2.25 0 2.5-.15 2.8-1.25.15-.7.2-1.6 0-2-.25-.65-13.05-.75-111.15-.85-120.3-.1-113.25-.15-115.4.35-.8.15-2 .4-2.6.55-1.25.25-1.55 1.6-.55 2.6.35.35 2.15.6 4.5.6H51v10.05l-4.35-.15-4.4-.15-.15-4.9C42 45.1 41.8 44 41.25 44c-.4 0-.75-.65-.85-1.6-.1-1.25-.4-1.7-1.25-1.8-1.05-.15-1.15-.45-1.15-2.9V35h243v2.45c0 1.35.15 2.8.3 3.25.25.7.4.7 1.05.05.4-.4 1.15-.75 1.7-.75.8 0 .95.35.95 2v2h-9v5h-4v5h-5v9h-9.25l.15 96.5c.05 64.75-.05 96.5-.4 96.5-.25 0-.5-.2-.5-.5 0-.25-.9-.5-2.05-.5-2.05 0-2.05 0-1.85 1.65.15.85.35 1.95.45 2.35.2.65-10.85.75-96.65.9L60 260zm189-95.25V72H70v91.9c0 60.55-.15 86.1-.55 86.1-.25 0-.35.25-.2.5.2.35 30.75.5 90.05.5H249zM67 249.7c0-.5-.25-.7-.8-.5-.4.15-.6.1-.45-.2s.05-.5-.2-.5c-.75 0-.7 1.35.1 1.65 1.1.45 1.35.35 1.35-.45" fill="#D189B7"/><rect x="23" y="26" width="277" height="277" rx="19" stroke="#401831" stroke-width="10"/><path fill="#C465A0" d="M68 76h182v181H68z"/><path d="m119.526 217-22.05-105h20.1l11.4 59.1q.45 2.4.75 4.275t.525 4.125q.3-2.1.75-4.125.45-2.1 1.05-4.275l14.925-59.1h16.65l15 59.025q.6 2.1.975 4.125t.675 4.125q.3-2.025.6-3.9.375-1.95.75-3.975l11.925-59.4h20.025l-22.725 105h-17.625l-16.65-63q-.525-1.8-.9-3.45-.3-1.65-.6-3.825-.375 2.25-.75 3.825-.3 1.575-.75 3.375L137.301 217z" fill="#F1D1E5"/></g><defs><clipPath id="a"><path fill="#fff" d="M0 0h322v324H0z"/></clipPath></defs></svg>